<svg xmlns="http://www.w3.org/2000/svg"><defs><font id="prefix__NeutraText-BookItalic" horiz-adv-x="411"><font-face font-family="Neutra Text" font-weight="500" font-style="italic" units-per-em="2048" panose-1="2 0 0 0 0 0 0 0 0 0" ascent="1638" descent="-410" x-height="848" cap-height="1393" bbox="-238 -475 2222 1937" underline-thickness="40" underline-position="-312" slope="-12" unicode-range="U+000D-FB02"/><glyph glyph-name="fi" unicode="fi" horiz-adv-x="1028" d="M915 1098q-40 0-69 27t-29 69 29 69 69 27q38 0 67.5-27.5t29.5-68.5-29.5-68.5T915 1098zM399 729L238-201q-13-72-34-118.5T150-391t-70.5-34-91.5-9h-86l20 112h62q45 0 73.5 28T100-186l160 915H127l20 119h136l69 399q44 258 256 258 134 0 203-100l-96-82q-23 30-44.5 43.5T612 1380q-48 0-78.5-31T489 1239l-67-391h502L805 178q-6-34 2.5-49.5T844 113h84L909 0H809q-92 0-125 45.5T668 188l96 541H399z"/><glyph glyph-name="fl" unicode="fl" horiz-adv-x="1017" d="M262 729H127l20 119h136l59 342q27 157 117.5 236t232.5 79q152 0 231.5-97t49.5-265L803 178q-5-34 4-49.5t37-15.5h92L918 0H807q-92 0-125 45.5T668 188l168 963q21 112-19.5 172.5T686 1384q-89 0-138.5-52T479 1171l-57-323h209l-21-119H401L238-201q-13-72-34-118.5T150-391t-70.5-34-91.5-9h-86l20 112h62q45 0 73.5 28T100-186z"/><glyph glyph-name="ff" unicode="ff" horiz-adv-x="1136" d="M762 729H401L238-201q-13-72-34-118.5T150-391t-70.5-34-91.5-9h-86l20 112h62q45 0 73.5 28T100-186l162 915H127l20 119h136l63 360q44 256 256 256 124 0 189-90l-91-86q-22 28-41.5 39.5T606 1339q-49 0-79-30t-44-109l-61-352h360l72 395q47 262 260 262 132 0 205-102l-96-82q-22 30-44.5 44.5T1118 1380q-51 0-82-31.5T991 1235l-67-387h219l-21-119H901L745-156q-12-72-33-118.5T658-346t-70.5-34-91.5-9h-80l20 113h58q44 0 72 27.5T608-143z"/><glyph glyph-name="ffi" unicode="ffi" horiz-adv-x="1529" d="M1417 1098q-39 0-67.5 27t-28.5 69 28.5 69 67.5 27q38 0 67-27.5t29-68.5q0-42-28.5-69t-67.5-27zM901 729L748-156q-12-72-33.5-118.5t-54-71.5-70.5-34-92-9h-80l20 113h58q44 0 72 27.5T610-143l152 872H401L238-201q-13-72-34-118.5T150-391t-70.5-34-91.5-9h-86l20 112h62q45 0 73.5 28T100-186l162 915H127l20 119h136l63 360q44 256 256 256 124 0 189-90l-91-86q-22 28-41.5 39.5T606 1339q-49 0-79-30t-44-109l-61-352h362l70 399q44 258 256 258 134 0 203-100l-96-82q-23 30-44.5 43.5T1114 1380q-48 0-78.5-31T991 1239l-67-391h501l-118-670q-5-34 3.5-49.5T1348 113h82L1411 0h-100q-92 0-125.5 45.5T1169 188l97 541H901z"/><glyph glyph-name="ffl" unicode="ffl" horiz-adv-x="1519" d="M762 729H401L238-201q-13-72-34-118.5T150-391t-70.5-34-91.5-9h-86l20 112h62q45 0 73.5 28T100-186l162 915H127l20 119h136l63 360q44 256 256 256 124 0 189-90l-91-86q-22 28-41.5 39.5T606 1339q-49 0-79-30t-44-109l-61-352h360l62 342q29 157 118.5 236t231.5 79q153 0 232-97t49-265l-168-965q-6-34 2.5-49.5T1346 113h92L1419 0h-108q-93 0-126 45t-16 143l168 963q21 112-19.5 172.5T1188 1384t-138.5-52-68.5-161l-57-323h209l-21-119H903L745-156q-12-72-33-118.5T658-346t-70.5-34-91.5-9h-80l20 113h58q44 0 72 27.5T608-143z"/><glyph glyph-name=".notdef" horiz-adv-x="1024"/><glyph glyph-name=".notdef" horiz-adv-x="1024"/><glyph glyph-name=".null" horiz-adv-x="0"/><glyph glyph-name="nonmarkingreturn" horiz-adv-x="682"/><glyph glyph-name="CR" horiz-adv-x="475"/><glyph glyph-name="space" horiz-adv-x="475"/><glyph glyph-name="exclam" unicode="!" horiz-adv-x="483" d="M180 389l158 1004h158L289 389H180zm4-403q-42 0-74 31.5T78 94t32 77 74 32 74.5-32T291 94t-32.5-76.5T184-14z"/><glyph glyph-name="quotedbl" unicode="&quot;" horiz-adv-x="575" d="M457 963l59 430h150l-95-430H457zm-262 0l59 430h149l-96-430H195z"/><glyph glyph-name="numbersign" unicode="#" horiz-adv-x="878" d="M317 920H156l20 112h170l55 223h117l-55-223h201l55 223h119l-56-223h140l-21-112H754l-58-226h166l-20-112H670l-56-220H496l55 220H350l-55-220H178l55 220H94l21 112h145zm318 0H434l-57-226h201z"/><glyph glyph-name="dollar" unicode="$" horiz-adv-x="874" d="M303-8Q188 12 109 75T-6 217l117 57q65-138 211-172l67 390q-125 47-184.5 117T145 778q0 128 94.5 199.5T481 1049h6l37 206h103l-39-219q78-19 135-65.5T813 862l-104-65q-49 102-140 129l-61-344 12-4q137-53 201.5-124.5T786 276q0-140-105.5-215T403-16l-38-222H262zm164 946q-87-3-137.5-41T279 784q0-56 32.5-94.5T412 623zM422 94q108 5 167.5 51T649 274q0 60-38.5 101.5T485 451z"/><glyph glyph-name="percent" unicode="%" horiz-adv-x="1593" d="M397 446q-123 0-207 81t-84 206q0 135 94.5 225.5T422 1049q123 0 207-80t84-203q0-139-94-229.5T397 446zM334 0l821 1032h143L477 0H334zm872-16q-123 0-207 81t-84 205q0 134 94.5 224t221.5 90q123 0 207-80t84-203q0-139-93.5-228T1206-16zM397 555q81 0 136 58t55 151q0 82-45.5 128T422 938q-81 0-136-56.5T231 735q0-83 46.5-131.5T397 555zm809-465q81 0 136 58.5t55 150.5q0 82-46 129t-120 47q-81 0-136-57t-55-148q0-83 46.5-131.5T1206 90z"/><glyph glyph-name="ampersand" unicode="&amp;" horiz-adv-x="1335" d="M694 795l248-400q77 143 113 359h137q-47-291-172-482l41-65q32-51 56-67.5t67-16.5h61L1223 0h-62q-87 0-131 32T930 154l-4 6Q753-16 508-16q-194 0-311 99T80 346q0 89 32 163t94.5 131.5 133 100T508 827l-6 11q-90 139-90 276 0 126 86.5 210.5T723 1409q124 0 200-75.5t76-192.5q0-109-78.5-192T694 795zm-57 90q115 56 173 114t58 138q0 70-40.5 112.5T721 1292q-75 0-122.5-49T551 1116q0-94 59-190zm219-615L565 737q-162-73-247-162.5T233 352q0-111 75.5-176T506 111q212 0 350 159z"/><glyph glyph-name="quotesingle" unicode="'" horiz-adv-x="313" d="M195 963l59 430h149l-96-430H195z"/><glyph glyph-name="parenleft" unicode="(" horiz-adv-x="567" d="M301-276Q206-152 144 25T82 416q0 148 31.5 286.5t80.5 245T315 1155t140.5 172.5T606 1470l74-79q-94-87-171-185.5t-142-219-101.5-266T229 420q0-363 168-631z"/><glyph glyph-name="parenright" unicode=")" horiz-adv-x="563" d="M23-276l-74 79q450 421 450 977 0 355-168 627l95 63q96-123 157.5-297.5T545 784q0-151-31.5-290.5t-80-246.5T313 38.5 173-134 23-276z"/><glyph glyph-name="asterisk" unicode="*" horiz-adv-x="815" d="M430 766l57 260-213-131-51 115 246 75-229 117 71 105 189-166-11 252h132l-56-256 211 131 51-115-245-74 229-118-72-103-186 164 8-256H430z"/><glyph glyph-name="plus" unicode="+" horiz-adv-x="759" d="M449 457l-46-256H276l46 256H86l23 121h233l47 258h127l-47-258h238l-23-121H449z"/><glyph glyph-name="comma" unicode="," horiz-adv-x="401" d="M-16-229L96 0Q71 11 54 37T37 98q0 45 32.5 77t75.5 32q46 0 76.5-31T252 98q0-41-37-94L61-229h-77z"/><glyph glyph-name="hyphen" unicode="-" horiz-adv-x="567" d="M90 412l23 123h385l-21-123H90z"/><glyph glyph-name="hyphen" unicode="­" horiz-adv-x="567" d="M90 412l23 123h385l-21-123H90z"/><glyph glyph-name="period" unicode="." horiz-adv-x="401" d="M145-14q-42 0-75 31.5T37 94q0 46 33 78.5t75 32.5q43 0 75-32t32-79q0-45-32-76.5T145-14z"/><glyph glyph-name="slash" unicode="/" horiz-adv-x="851" d="M-78-262l912 1741h147L70-262H-78z"/><glyph glyph-name="zero" unicode="0" horiz-adv-x="1245" d="M610-16q-218 0-363 146.5T102 496q0 163 81 291.5t209 195 276 66.5q215 0 362.5-146.5T1178 539q0-124-47-230t-126-176T823.5 23.5 610-16zm4 125q179 0 296.5 120T1028 543q0 169-101.5 275T664 924q-179 0-296.5-119.5T250 492q0-169 101.5-276T614 109z"/><glyph glyph-name="one" unicode="1" horiz-adv-x="589" d="M188 0l160 913H127l20 119h365L330 0H188z"/><glyph glyph-name="two" unicode="2" horiz-adv-x="917" d="M-4 0v18l446 363q149 118 216 198t67 169q0 84-51 129t-133 45q-94 0-157-48T281 725l-129 39q50 142 152.5 213.5T545 1049q142 0 232.5-80.5T868 758q0-62-22.5-120t-70-114.5-96-101.5T557 317L379 172q-17-14-41-28.5T298 121l-15-8q67 8 106 8h422L788 0H-4z"/><glyph glyph-name="three" unicode="3" horiz-adv-x="1001" d="M424-211q-153 0-265 70.5T-8 47l123 64Q210-86 422-86q135 0 222 79t87 228q0 129-75 204t-205 75q-91 0-175-39l-14 20 369 367q15 16 36.5 34t35.5 28l14 10q-72-7-117-7H207l20 119h738v-14L612 666q-15-15-35.5-31.5T543 609l-13-9q151-11 250-115t99-272q0-187-127-305.5T424-211z"/><glyph glyph-name="four" unicode="4" horiz-adv-x="1060" d="M801 156h153L934 43H780l-41-236H598l41 236H-14l12 70 942 940h21zm-142 0l84 467q4 23 12 53.5t15 49.5l6 19q-45-55-82-92L279 229q-16-16-39-35.5T202 163l-14-11q62 4 107 4h364z"/><glyph glyph-name="five" unicode="5" horiz-adv-x="978" d="M403-211q-145 0-247 65.5T8 20l123 60Q214-86 401-86 543-86 629 .5T715 227q0 126-73 200.5T434 502q-146 0-282-99l-13 9 107 620h649l-21-119H350l-55-327q68 35 178 35 175 0 284-111.5T866 227q0-193-130.5-315.5T403-211z"/><glyph glyph-name="six" unicode="6" horiz-adv-x="1036" d="M498-16Q313-16 198.5 98T84 385q0 97 42.5 182T246 737l452 514h164L500 842q-16-17-48.5-44T394 753l-25-18q111 68 202 68 166 0 273.5-110T952 414q0-188-129.5-309T498-16zm0 125q137 0 222 86t85 221q0 123-71 197.5T537 688q-142 0-225-88t-83-219q0-119 73.5-195.5T498 109z"/><glyph glyph-name="seven" unicode="7" horiz-adv-x="903" d="M31-193L731 913H143l21 119h782v-18L184-193H31z"/><glyph glyph-name="eight" unicode="8" horiz-adv-x="1058" d="M422 721q-140 79-137 227 0 133 101 225.5t253 92.5q144 0 241-84.5T977 973q0-108-65.5-180.5T743 690q102-41 162-122t60-191q0-178-127.5-285.5T508-16Q318-16 197 90.5T76 356q0 150 94.5 244.5T422 721zm199 39q98 0 156.5 57T836 967q0 80-54.5 130T637 1147q-95 0-155-57t-60-146q0-83 53.5-133.5T621 760zM508 109q136 0 222.5 78.5T817 391q0 118-77.5 186T532 645q-138 0-222.5-78.5T225 362q0-111 77.5-182T508 109z"/><glyph glyph-name="nine" unicode="9" horiz-adv-x="1034" d="M186-193l346 361q24 24 58.5 53t57.5 45l22 17q-88-60-191-60-165 0-274 110.5T96 612q0 189 129.5 313T547 1049q185 0 299.5-115.5T961 645q0-101-52-203.5T776 252L356-193H186zm322 531q144 0 226.5 89T817 649q0 121-73 198t-197 77q-135 0-220-88t-85-224q0-124 70.5-199T508 338z"/><glyph glyph-name="colon" unicode=":" horiz-adv-x="419" d="M233 446q-42 0-74 31.5T127 555t32 78.5 74 32.5q45 0 77-32t32-79-32-78-77-31zM154-14q-42 0-74.5 31.5T47 94q0 46 32.5 78.5T154 205q45 0 76.5-32T262 94q0-45-31.5-76.5T154-14z"/><glyph glyph-name="semicolon" unicode=";" horiz-adv-x="419" d="M233 446q-42 0-74 31.5T127 555t32 78.5 74 32.5q45 0 77-32t32-79-32-78-77-31zM-6-229L106 0Q80 11 63.5 37T47 98q0 45 32 77t75 32q46 0 77-31t31-78q0-41-37-94L72-229H-6z"/><glyph glyph-name="semicolon" unicode=";" horiz-adv-x="419" d="M233 446q-42 0-74 31.5T127 555t32 78.5 74 32.5q45 0 77-32t32-79-32-78-77-31zM-6-229L106 0Q80 11 63.5 37T47 98q0 45 32 77t75 32q46 0 77-31t31-78q0-41-37-94L72-229H-6z"/><glyph glyph-name="less" unicode="&lt;" horiz-adv-x="724" d="M575 193L80 487v23l602 293-25-137-374-172 313-177z"/><glyph glyph-name="equal" unicode="=" horiz-adv-x="755" d="M113 578l22 124h584l-23-124H113zM68 311l20 127h584l-23-127H68z"/><glyph glyph-name="greater" unicode="&gt;" horiz-adv-x="724" d="M51 193l25 137 377 172-316 176 21 125 495-295v-23z"/><glyph glyph-name="question" unicode="?" horiz-adv-x="958" d="M365 383l63 360h90q147 0 227 83t80 210q0 115-67 181.5T580 1284q-97 0-165-44.5T295 1102l-111 61q55 117 159.5 181.5T582 1409q174 0 280.5-104T969 1036q0-176-119.5-289.5T541 633l-43-250H365zm16-397q-42 0-73.5 31.5T276 94t31.5 77 73.5 32q43 0 75.5-32T489 94t-32.5-76.5T381-14z"/><glyph glyph-name="at" unicode="@" horiz-adv-x="1785" d="M862-422q-171 0-316 58T301-204.5 144.5 39 88 346q0 183 67 343.5T336 961t269 175 327 64q169 0 312-55t241.5-152T1639 760.5t55-293.5q0-121-28.5-214.5T1588 103t-110.5-84.5T1346-10q-98 0-158 46.5T1110 162q-46-84-120-131T827-16Q675-16 580 87.5T485 350q0 183 108.5 302.5T860 772q103 0 176.5-57T1139 565l28 187h138l-84-465q-17-92 17-141.5T1348 96q94 0 157.5 96t63.5 279q0 134-44.5 248t-126 196-201 128.5T934 1090q-202 0-365.5-96.5T313 727t-92-379q0-190 76.5-338.5T521-225t341-86q184 0 344 75l45-100q-160-86-389-86zm-6 520q106 0 181 89t75 210q0 107-65 182.5T885 655q-114 0-185-83.5T629 350q0-115 62.5-183.5T856 98z"/><glyph glyph-name="A" unicode="A" horiz-adv-x="1314" d="M281 236L147 0H0l815 1407h23L1167 0h-145l-53 236H281zm661 120L803 973q-7 31-13.5 71t-9.5 64l-2 25q-35-88-76-160L350 356h592z"/><glyph glyph-name="B" unicode="B" horiz-adv-x="1218" d="M104 0l244 1393h436q162 0 251-88t89-222q0-124-59-206T893 760q104-27 167-111.5t62-204.5q0-197-126-320.5T645 0H104zm291 823h328q128 0 192 68t64 186q0 81-54.5 134T768 1264H473zM272 129h359q170 0 256 85.5T973 449q2 114-61 181.5T719 698H373z"/><glyph glyph-name="C" unicode="C" horiz-adv-x="1458" d="M803-16q-187 0-337.5 86.5T230 310.5 145 655q0 160 59 301t159 240 237 156 289 57q360 0 534-272l-114-76q-147 219-424 219-164 0-299.5-81.5t-213-224T295 659q0-238 144.5-392T809 113q270 0 446 202l107-84Q1149-16 803-16z"/><glyph glyph-name="D" unicode="D" horiz-adv-x="1349" d="M111 0l245 1393h316q204 0 350-80t217.5-218 71.5-321q0-230-97.5-405T932 97 502 0H111zm168 127h215q165 0 293 48.5T995.5 312t122 206 41.5 260q0 109-30 197t-90.5 153.5-158 101.5-225.5 36H479z"/><glyph glyph-name="E" unicode="E" horiz-adv-x="1159" d="M111 0l245 1393h830l-21-127H477L362 608h611l-23-125H340l-64-356h715L969 0H111z"/><glyph glyph-name="F" unicode="F" horiz-adv-x="1114" d="M111 0l245 1393h822l-25-127H477L362 608h615l-23-129H340L256 0H111z"/><glyph glyph-name="G" unicode="G" horiz-adv-x="1505" d="M838-16q-201 0-357 83.5t-242.5 236T152 653q0 163 60 305t161.5 240T611 1352.5t284 56.5q167 0 289-48.5t211-150.5l-107-94q-70 85-164 124.5T893 1280q-166 0-301.5-81.5T378.5 974 301 657q0-245 147.5-395.5T838 111q200 0 364 98l58 326H854l23 127h540l-92-531Q1122-16 838-16z"/><glyph glyph-name="H" unicode="H" horiz-adv-x="1386" d="M1090 608l139 785h145L1128 0H983l84 479H340L256 0H111l245 1393h146L362 608h728z"/><glyph glyph-name="I" unicode="I" horiz-adv-x="530" d="M119 0l246 1393h145L264 0H119z"/><glyph glyph-name="J" unicode="J" horiz-adv-x="931" d="M360-16q-128 0-217 60.5T14 197l125 69q39-75 92-113t134-38q100 0 156.5 53.5T598 336l186 1057h146L741 315Q683-16 360-16z"/><glyph glyph-name="K" unicode="K" horiz-adv-x="1212" d="M344 588q69 100 123 157l627 648h174L631 729 1079 0H915L524 637 334 449 256 0H111l245 1393h146L391 770q-7-41-47-182z"/><glyph glyph-name="L" unicode="L" horiz-adv-x="1054" d="M111 0l245 1393h146L279 129h645L901 0H111z"/><glyph glyph-name="M" unicode="M" horiz-adv-x="1691" d="M111 0l247 1409h21l493-805 789 805h20L1434 0h-140l162 920q4 29 14 71t18 69l7 27q-62-88-123-149L862 408h-22L514 942q-17 26-37.5 63.5T444 1068l-12 24q-8-102-20-172L250 0H111z"/><glyph glyph-name="N" unicode="N" horiz-adv-x="1427" d="M1143-14L504 971q-16 25-35 58t-30 53l-11 20q-2-97-14-156L248 0H111l247 1407h23l641-989q16-25 34.5-58t29.5-53l10-20q4 85 14 155l168 951h137L1167-14h-24z"/><glyph glyph-name="O" unicode="O" horiz-adv-x="1605" d="M809-16q-186 0-336 83.5T236.5 304 150 651q0 163 58.5 305T367 1197t236.5 155.5T893 1409q138 0 260-49t210.5-136 139.5-211.5 51-269.5q0-131-37.5-249t-106-210T1250 124 1044.5 20 809-16zm6 129q168 0 303.5 82.5t211 227T1405 745q0 236-142.5 384.5T891 1278q-126 0-236.5-47.5T466 1100 343.5 900.5 299 651q0-237 142.5-387.5T815 113z"/><glyph glyph-name="P" unicode="P" horiz-adv-x="1171" d="M319 346L258 0H113l245 1393h285q122 0 219-36.5t158.5-100.5 93.5-149.5 31-186.5q0-260-162.5-417T528 346H319zm23 125h186q123 0 214.5 33.5T888 600t80.5 141.5T995 920q2 158-88 253t-276 95H481z"/><glyph glyph-name="Q" unicode="Q" horiz-adv-x="1605" d="M1294 164l162-209-108-82-164 211Q1008-16 809-16q-186 0-336 83.5T236.5 304 150 651q0 163 58.5 305T367 1197t236.5 155.5T893 1409q138 0 260-49t210.5-136 139.5-211.5 51-269.5q0-174-69-323.5T1294 164zm-186 18L920 426l108 82 189-246q188 179 188 483 0 236-142.5 384.5T891 1278q-126 0-236.5-47.5T466 1100 343.5 900.5 299 651q0-237 142.5-388.5T815 111q166 0 293 71z"/><glyph glyph-name="R" unicode="R" horiz-adv-x="1181" d="M778 410L997 0H842L643 377q-47-8-115-8H315L250 0H104l246 1393h277q243 0 375.5-128T1133 928q-2-187-91-325T778 410zm-440 84h190q234 0 343.5 115.5T983 928q2 159-91.5 248.5T612 1266H473z"/><glyph glyph-name="S" unicode="S" horiz-adv-x="1081" d="M498-16q-88 0-165.5 24t-135 64.5-99 87T29 258l125 74q29-47 58.5-82.5t70.5-69 95.5-51.5T498 111q142 0 219.5 72.5T795 377q0 80-44.5 134T598 635l-96 61q-125 80-185.5 166.5T256 1065q0 156 102 250t258 94q232 0 353-188l-115-80q-46 71-101.5 106T610 1282q-92 0-151.5-57T399 1071q0-78 40-132t136-114l97-61q142-91 206-176.5T942 375q0-178-120.5-284.5T498-16z"/><glyph glyph-name="T" unicode="T" horiz-adv-x="1112" d="M410 0l225 1266H213l23 127h985l-23-127H780L557 0H410z"/><glyph glyph-name="U" unicode="U" horiz-adv-x="1327" d="M641-16q-109 0-200.5 35.5T285 120.5t-90 168-5 227.5l154 877h148L338 514q-34-196 52-298.5T647 113q153 0 244 78t121 251l166 951h147l-172-969Q1077-16 641-16z"/><glyph glyph-name="V" unicode="V" horiz-adv-x="1312" d="M580-14L244 1393h149l215-926q8-33 16-82.5t12-82.5l3-34q49 123 90 195l531 930h153L606-14h-26z"/><glyph glyph-name="W" unicode="W" horiz-adv-x="1908" d="M446-14L240 1393h151l129-910q4-27 6.5-70t3.5-73v-29q41 107 74 166l514 930h25l182-924q6-26 13-68.5t10-72.5l4-29q28 105 59 166l451 914h151L1313-14h-23l-190 958q-5 26-10.5 65.5t-7.5 66.5l-3 26q-36-97-69-154L471-14h-25z"/><glyph glyph-name="X" unicode="X" horiz-adv-x="1255" d="M2 0l604 760-282 633h155l193-424q9-21 17-50.5t12-48.5l4-20q30 68 65 115l340 428h162L768 758 1108 0H950L707 545q-9 20-17 49.5T678 644l-4 20q-33-68-68-113L164 0H2z"/><glyph glyph-name="Y" unicode="Y" horiz-adv-x="1312" d="M590 440l-348 953h153l252-688q9-25 17.5-62t13.5-61l4-25q39 91 78 148l491 688h162L735 438 657 0H512z"/><glyph glyph-name="Z" unicode="Z" horiz-adv-x="1181" d="M18 0v23l961 1245H328l22 125h877v-23L264 125h762L1004 0H18z"/><glyph glyph-name="bracketleft" unicode="[" horiz-adv-x="612" d="M29-262l307 1741h391l-20-121H457L193-141h249l-22-121H29z"/><glyph glyph-name="backslash" unicode="\" horiz-adv-x="835" d="M543-262L236 1479h137L680-262H543z"/><glyph glyph-name="bracketright" unicode="]" horiz-adv-x="614" d="M-49-262l22 121h250l264 1499H238l20 121h393L344-262H-49z"/><glyph glyph-name="asciicircum" unicode="^" horiz-adv-x="843" d="M229 948l355 461h20l197-461H688l-125 264-213-264H229z"/><glyph glyph-name="underscore" unicode="_" horiz-adv-x="520" d="M-125-262l23 125h528l-20-125h-531z"/><glyph glyph-name="grave" unicode="`" horiz-adv-x="1017" d="M530 1020l-178 395h164l125-395H530z"/><glyph glyph-name="a" unicode="a" horiz-adv-x="1081" d="M442-16Q287-16 189.5 95.5T92 391q0 208 121.5 341.5T510 866q113 0 198.5-67.5T825 616l35 232h139L883 178q-5-34 4-49.5t37-15.5h77L981 0h-92q-89 0-119 37t-22 110l6 27Q698 82 618 33T442-16zm35 120q132 0 220.5 98T786 451q0 127-68 209.5T535 743q-134 0-216.5-99.5T236 389q0-127 66-206t175-79z"/><glyph glyph-name="b" unicode="b" horiz-adv-x="1105" d="M594-16q-120 0-211 68.5T260 238L227 0H88l258 1479h139L346 686q55 86 135 133t174 47q161 0 261-112.5T1016 459q0-206-123-340.5T594-16zm-33 120q139 0 225 100.5T872 459q0 128-67.5 206T621 743q-137 0-228.5-98T301 397q0-128 71-210.5T561 104z"/><glyph glyph-name="c" unicode="c" horiz-adv-x="931" d="M512-16q-180 0-299 119.5T94 406q0 196 131 328t328 132q209 0 326-151l-103-82q-79 110-223 110-141 0-228-96t-87-244q0-128 76-213.5T512 104q131 0 225 84l82-92Q699-16 512-16z"/><glyph glyph-name="d" unicode="d" horiz-adv-x="1107" d="M451-16Q291-16 191.5 97.5T92 391q0 209 124 342t304 133q115 0 203-66t119-169l151 848h140L903 178q-6-35 2.5-50t36.5-15h78L1001 0h-94q-88 0-118.5 38.5T766 150l6 26Q720 85 634.5 34.5T451-16zm36 120q137 0 228.5 98T807 451q2 127-70 209.5T545 743q-139 0-224-99t-85-255q0-128 67.5-206.5T487 104z"/><glyph glyph-name="e" unicode="e" horiz-adv-x="1021" d="M238 348q18-112 95-180t195-68q162 0 265 107l88-86Q747-16 528-16q-193 0-313.5 119.5T94 406q0 196 127 328t314 132q191 0 293.5-122T934 422zm-2 107l550 57q-10 102-73 171t-181 69q-123 0-202.5-81.5T236 455z"/><glyph glyph-name="f" unicode="f" horiz-adv-x="634" d="M262 729H127l20 119h136l69 395q47 262 260 262 132 0 205-102l-96-82q-22 30-44.5 44.5T616 1380q-51 0-82-31.5T489 1235l-67-387h219l-20-119H401L238-201q-13-72-34-118.5T150-391t-70.5-34-91.5-9h-86l20 112h62q45 0 73.5 28T100-186z"/><glyph glyph-name="g" unicode="g" horiz-adv-x="1091" d="M414-457q-140 0-245.5 63.5T12-233l113 69q51-87 119-128.5T414-334q254 0 311 293l41 203Q711 77 631.5 30.5T455-16Q295-16 195.5 97.5T96 391q0 208 124.5 341.5T526 866q116 0 205-67.5T852 616l33 232h139L864-57q-36-201-152.5-300.5T414-457zm78 561q137 0 228.5 97.5T813 451q0 127-72.5 209.5T549 743q-138 0-223.5-99.5T240 389q0-128 68-206.5T492 104z"/><glyph glyph-name="h" unicode="h" horiz-adv-x="1044" d="M86 0l260 1479h139L346 690q109 176 295 176 143 0 220-103t48-274l-55-311q-6-34 2.5-49.5T893 113h78L952 0h-90Q684 0 719 193l49 284q22 123-23.5 193.5T592 741q-115 0-187.5-67.5T309 477L225 0H86z"/><glyph glyph-name="i" unicode="i" horiz-adv-x="477" d="M365 1096q-40 0-69.5 27.5T266 1194t29 71.5 70 28.5q39 0 68.5-28.5T463 1194t-28.5-70.5T365 1096zM260 0q-93 0-125.5 45T119 188l114 660h140L256 178q-6-34 2.5-49.5T295 113h84L358 0h-98z"/><glyph glyph-name="j" unicode="j" horiz-adv-x="460" d="M369 1096q-40 0-69.5 27.5T270 1194t29 71.5 70 28.5q39 0 68.5-28.5T467 1194t-28.5-70.5T369 1096zM-45-455q-119 0-193 82l88 82q41-45 95-45 46 0 69.5 27T49-219L238 848h139L190-219Q147-455-45-455z"/><glyph glyph-name="k" unicode="k" horiz-adv-x="946" d="M270 266L225 0H86l260 1479h139L317 530q-9-50-30-124l467 442h166L541 487l196-331q16-26 33-34.5t43-8.5h53L846 0h-60q-61 0-98.5 22T618 102L436 408z"/><glyph glyph-name="l" unicode="l" horiz-adv-x="481" d="M270 0q-92 0-125 45.5T129 188l229 1291h140L266 178q-6-34 2.5-49.5T305 113h94L379 0H270z"/><glyph glyph-name="m" unicode="m" horiz-adv-x="1519" d="M72 0l149 848h139l-32-154q103 172 274 172 89 0 148-48.5T831 684q51 91 130.5 136.5T1137 866q138 0 206.5-103.5T1382 489l-55-311q-5-34 4-49.5t37-15.5h78L1425 0h-94q-92 0-125 45.5T1192 188l49 289q22 125-14 194.5T1094 741q-206 0-254-264L756 0H616l84 477q22 124-13.5 194T555 741q-105 0-171-67t-89-197L211 0H72z"/><glyph glyph-name="n" unicode="n" horiz-adv-x="1026" d="M72 0l149 848h139l-34-170q47 88 124 138t177 50q143 0 220.5-103T895 489l-55-311q-6-34 2.5-49.5T881 113h77L938 0h-94q-92 0-125.5 45.5T702 188l52 289q22 123-23.5 193.5T578 741q-115 0-187.5-67.5T295 477L211 0H72z"/><glyph glyph-name="o" unicode="o" horiz-adv-x="1067" d="M518-16q-178 0-301 122T94 403q0 197 133 330t326 133q178 0 300-122.5T975 444q0-197-132-328.5T518-16zm2 120q139 0 225 96.5T831 446q0 129-77 213t-203 84q-137 0-225-97t-88-245q0-130 78.5-213.5T520 104z"/><glyph glyph-name="p" unicode="p" horiz-adv-x="1093" d="M-4-434L221 848h139l-36-174q56 91 138.5 141.5T643 866q160 0 260.5-113T1004 459q0-206-124-340.5T580-16q-119 0-207.5 67T252 223L135-434H-4zm553 538q138 0 224.5 100.5T860 459q0 127-69 205.5T606 743q-137 0-228-98t-91-248q0-128 71.5-210.5T549 104z"/><glyph glyph-name="q" unicode="q" horiz-adv-x="1093" d="M829-434q-93 0-125.5 45T688-246l74 408Q707 77 627.5 30.5T451-16Q291-16 191.5 97.5T92 391q0 209 124 342t304 133q118 0 206.5-67.5T846 616l35 232h139L825-256q-6-34 2.5-50t36.5-16h78l-18-112h-95zM487 104q137 0 228.5 98T807 451q2 127-70 209.5T545 743q-139 0-224-99t-85-255q0-128 67.5-206.5T487 104z"/><glyph glyph-name="r" unicode="r" horiz-adv-x="675" d="M72 0l149 848h139l-41-182q98 198 265 198 56 0 110-26l-55-125q-36 20-84 20-104 0-172.5-75.5T289 442L211 0H72z"/><glyph glyph-name="s" unicode="s" horiz-adv-x="825" d="M381-16q-123 0-213 51.5T33 170l106 68Q225 98 385 98q85 0 128.5 33t43.5 94q0 34-22.5 61T485 329t-101 55q-9 5-13 7-103 50-156 106t-53 144q0 106 76.5 165.5T432 866q177 0 273-129l-97-78q-37 46-76 70.5T430 754q-62 0-99.5-26.5T293 651q0-48 35-78.5T453 498q56-27 91-48t73-53.5 56.5-74T692 229q0-112-80-178.5T381-16z"/><glyph glyph-name="t" unicode="t" horiz-adv-x="671" d="M250 729H123l20 119h127l80 442h137l-77-442h229l-21-119H389l-84-473q-26-152 80-152 58 0 111 46l65-95q-78-71-192-71-111 0-169 68t-32 210z"/><glyph glyph-name="u" unicode="u" horiz-adv-x="1030" d="M395-18Q252-18 175 84.5T127 358l86 490h139l-84-477q-22-123 23.5-194T444 106q114 0 186 68t95 197l86 477h139L831 178q-5-34 4-49.5t37-15.5h78L930 0h-92q-87 0-119.5 43T696 150l2 14Q587-18 395-18z"/><glyph glyph-name="v" unicode="v" horiz-adv-x="923" d="M387-16L119 848h145l144-490q8-25 14-61.5t8-60.5l2-23q31 86 64 141l299 494h149L412-16h-25z"/><glyph glyph-name="w" unicode="w" horiz-adv-x="1370" d="M330-18L125 848h145l105-475q5-24 10-56t7-53l3-20q31 74 64 129l293 487h18l139-481q6-24 12.5-56t9.5-53l3-20q26 74 57 129l258 469h146L915-18h-22L752 485q-7 24-13.5 56t-8.5 51l-3 20q-24-69-55-120L352-18h-22z"/><glyph glyph-name="x" unicode="x" horiz-adv-x="942" d="M-12 0l405 453-213 395h156l117-221 34-92q29 57 56 90l198 223h164L559 459 809 0H651L504 276q-9 16-18.5 42T470 362l-5 17q-35-67-66-100L150 0H-12z"/><glyph glyph-name="y" unicode="y" horiz-adv-x="1032" d="M377-457q-126 0-220.5 54T16-254l111 72q42-75 100.5-113.5T377-334q113 0 185 69.5T659-61l37 202Q588-18 408-18 265-18 187 84.5T139 358l86 490h140l-84-477q-22-123 23.5-194T457 106q115 0 186 67.5T737 371l86 477h140L799-80q-33-188-142-282.5T377-457z"/><glyph glyph-name="z" unicode="z" horiz-adv-x="862" d="M20 0v20l603 711H190l21 117h651v-23L262 115h471L713 0H20z"/><glyph glyph-name="braceleft" unicode="{" horiz-adv-x="739" d="M444-262q-46 0-83.5 9t-72 30-53.5 56.5T208-78t7 125l51 301q14 82-7 110.5T180 487H59l21 121h115q62 0 96.5 33T340 760l80 444q16 84 44.5 140.5t69 84.5 81.5 39 94 11h145l-20-121H721q-69 0-105.5-34T561 1194l-82-465q-16-91-57-131t-111-51q130-33 99-203L356 35q-18-100 10-138t99-38h104l-22-121H444z"/><glyph glyph-name="bar" unicode="|" horiz-adv-x="483" d="M51-262l307 1741h138L188-262H51z"/><glyph glyph-name="braceright" unicode="}" horiz-adv-x="741" d="M-51-262l20 121H84q68 0 105 34t53 130l59 342q16 92 57.5 132T471 549q-63 14-88.5 61.5T371 750l78 432q18 100-10 138t-99 38H236l20 121h104q45 0 83-9t72.5-30.5 53.5-57 27.5-88.5-6.5-125l-76-424q-14-81 7-110t79-29h123l-23-119H588q-62 0-96.5-33.5T440 334L383 12q-15-83-44-139.5T269.5-212 188-251t-94-11H-51z"/><glyph glyph-name="asciitilde" unicode="~" horiz-adv-x="790" d="M225 459l-104 12q40 225 190 225 61 0 131-63 8-7 23-20.5t21-18 16-11.5 18-9.5 17-2.5q30 0 48.5 26.5T621 694l104-12q-19-111-67-168t-121-57q-64 0-134 63-7 7-19 18t-17.5 16-14 11.5-14 9.5-12.5 5-15 2q-30 0-49.5-27T225 459z"/><glyph glyph-name="nbspace" horiz-adv-x="370"/><glyph glyph-name="exclamdown" unicode="¡" horiz-adv-x="481" d="M397 1407q42 0 73.5-32t31.5-77-31.5-76.5T397 1190q-43 0-75.5 31.5T289 1298t32.5 77 75.5 32zm2-403L242 0H84l207 1004h108z"/><glyph glyph-name="cent" unicode="¢" horiz-adv-x="931" d="M385 2Q254 41 174 150.5T94 406q0 191 126 322.5T537 866l38 217h103l-39-223q148-25 240-145l-103-82q-64 84-158 106L506 102h6q58 0 108 16.5t69.5 30T737 186l82-90Q698-16 512-16h-27l-39-222H344zm131 741q-127-12-203.5-105.5T236 403q0-97 46-173t124-107z"/><glyph glyph-name="sterling" unicode="£" horiz-adv-x="1105" d="M385 532H188l21 113h160q-21 168-21 232 0 183 107.5 286T743 1266q125 0 213.5-59.5T1094 1049l-113-68q-43 79-98.5 119.5T741 1141q-121 0-185-68t-64-207q0-44 14-221h321l-20-113H518q12-95 12-202 0-62-16-121 46-35 72.5-52.5t69.5-35 83-17.5q61 0 105 23.5t86 67.5l84-86Q908-16 739-16q-77 0-141 32t-133 90q-41-59-104-90.5T225-16q-95 0-152 51T16 164q0 85 59.5 134.5T227 348q87 0 179-57v18q0 90-21 223zm-6-352q-88 74-152 74-44 0-72-25t-28-63 26.5-63T225 78q47 0 88.5 26.5T379 180z"/><glyph glyph-name="currency" unicode="¤" horiz-adv-x="1234" d="M225 580H98l19 108h133q58 164 199 262.5t309 98.5q267 0 401-203l-108-74q-49 76-116.5 114T758 924q-119 0-215-63T401 688h463l-18-108H371q-6-37-6-82 0-38 2-54h454l-18-108H389q36-109 121.5-169.5T719 106q97 0 166.5 34T1018 242l96-78Q968-16 717-16q-177 0-304.5 95.5T240 336H55l19 108h147q-2 16-2 52 0 44 6 84z"/><glyph glyph-name="yen" unicode="¥" horiz-adv-x="1112" d="M463 342l-57 143H127l18 113h215l-172 434h150l184-475q9-27 17-63.5t12-59.5l4-22q29 80 72 143l352 477h158L811 598h213l-18-113H727L621 342h360l-18-113H592L553 0H410l41 229H84l18 113h361z"/><glyph glyph-name="brokenbar" unicode="¦" d="M219 387q-43 0-76.5 33.5T109 500t33 78 77 32q45 0 78-32t33-78q0-47-33-80t-78-33z"/><glyph glyph-name="section" unicode="§" horiz-adv-x="995" d="M297 846q-25 58-25 125 0 129 91 212t231 83q119 0 193-48.5T905 1079l-112-59q-66 129-197 129-88 0-136-49t-48-127q0-61 27-101t91-69l183-86q117-53 169-121t52-158q0-167-197-239 31-57 31-131 0-126-90-202.5T432-211q-138 0-233.5 63T66 8l116 55Q254-94 428-94q91 0 144 44.5T625 68q0 59-34 96.5T481 236l-164 75q-119 55-170 120.5T96 600q0 91 55.5 155.5T297 846zm381-574q121 42 121 154 0 54-32.5 94T657 596l-178 84q-83 39-133 92-57-20-87-62t-30-96q0-64 32.5-102.5T371 436l164-74q96-45 143-90z"/><glyph glyph-name="dieresis" unicode="¨" horiz-adv-x="1017" d="M813 1059q-36 0-64 27t-28 65q0 39 28 66.5t64 27.5q37 0 64.5-27.5T905 1151q0-38-27.5-65t-64.5-27zm-348 0q-37 0-64.5 27t-27.5 65q0 39 27.5 66.5T465 1245q36 0 64-27.5t28-66.5q0-38-28-65t-64-27z"/><glyph glyph-name="copyright" unicode="©" horiz-adv-x="1226" d="M631-14q-143 0-265 68T171 244.5 98 516q0 150 73 273t195 191.5 265 68.5 265-68.5T1090.5 789t72.5-273q0-149-72.5-271.5T896 54 631-14zm0 82q189 0 316.5 126.5T1075 516q0 196-127.5 323.5T631 967q-190 0-318.5-127.5T184 516q0-128 59.5-231T405 125t226-57zm0 143q-127 0-211 86t-84 213q0 136 88 224.5T641 823q142 0 231-100l-86-76q-53 66-141 66-78 0-130-57t-52-146q0-83 47-135.5T631 322q87 0 145 61l80-76q-89-96-225-96z"/><glyph glyph-name="ordfeminine" unicode="ª" horiz-adv-x="964" d="M436 299q-132 0-217.5 94.5T133 645q0 180 105.5 292T496 1049q95 0 166-55.5T758 842l28 190h125l-98-561q-9-55 37-55h65l-18-103h-78q-73 0-102.5 33T692 438v13q-99-152-256-152zm31 111q110 0 184 80t74 206q0 107-56.5 174.5T514 938q-112 0-180-81t-68-212q0-106 53.5-170.5T467 410z"/><glyph glyph-name="guillemotleft" unicode="«" horiz-adv-x="798" d="M516 76L383 385l2 16 242 338h153L522 387 662 76H516zm-307 0L74 385l2 16 241 338h154L215 387 352 76H209z"/><glyph glyph-name="logicalnot" unicode="¬" d="M219 387q-43 0-76.5 33.5T109 500t33 78 77 32q45 0 78-32t33-78q0-47-33-80t-78-33z"/><glyph glyph-name="registered" unicode="®" horiz-adv-x="1054" d="M623 543q-185 0-314 125T180 981q0 190 129 315t314 125q122 0 224.5-56t163-157.5T1071 981q0-188-130.5-313T623 543zm0 69q163 0 265.5 101.5T991 981q0 167-102.5 269T623 1352q-160 0-260.5-102T262 981q0-166 100.5-267.5T623 612zm96 269l72-138h-95l-61 117H535l-21-117h-90l86 484h131q97 0 146.5-55.5T831 1036q-3-55-32.5-94.5T719 881zm-172 51h65q64 0 93 26.5t34 77.5q6 50-19.5 83.5T637 1153h-51z"/><glyph glyph-name="macron" unicode="¯" horiz-adv-x="1017" d="M410 1063l18 111h428l-20-111H410z"/><glyph glyph-name="macron" unicode="ˉ" horiz-adv-x="1017" d="M410 1063l18 111h428l-20-111H410z"/><glyph glyph-name="degree" unicode="°" horiz-adv-x="661" d="M383 586q-97 0-163 64.5T154 809q0 103 72 171.5t173 68.5q96 0 162-65t66-159q0-102-71.5-170.5T383 586zm0 90q61 0 99 43t38 108q0 59-33 94t-90 35q-61 0-100-42t-39-107q0-59 34-95t91-36z"/><glyph glyph-name="twosuperior" unicode="²" d="M219 387q-43 0-76.5 33.5T109 500t33 78 77 32q45 0 78-32t33-78q0-47-33-80t-78-33z"/><glyph glyph-name="threesuperior" unicode="³" d="M219 387q-43 0-76.5 33.5T109 500t33 78 77 32q45 0 78-32t33-78q0-47-33-80t-78-33z"/><glyph glyph-name="acute" unicode="´" horiz-adv-x="1017" d="M547 1020l201 395h172l-261-395H547z"/><glyph glyph-name="mu" unicode="µ" d="M219 387q-43 0-76.5 33.5T109 500t33 78 77 32q45 0 78-32t33-78q0-47-33-80t-78-33z"/><glyph glyph-name="mu" unicode="μ" d="M219 387q-43 0-76.5 33.5T109 500t33 78 77 32q45 0 78-32t33-78q0-47-33-80t-78-33z"/><glyph glyph-name="paragraph" unicode="¶" horiz-adv-x="1267" d="M670 623h-84q-179 0-280 100.5T205 979q0 176 120.5 295T641 1393h610L1006 0H864l223 1270H926L702 0H561zm22 122l92 525H635q-127 0-202-78.5T358 981q0-113 62.5-174.5T594 745h98z"/><glyph glyph-name="periodcentered" unicode="·" d="M219 387q-43 0-76.5 33.5T109 500t33 78 77 32q45 0 78-32t33-78q0-47-33-80t-78-33z"/><glyph glyph-name="periodcentered" unicode="∙" d="M219 387q-43 0-76.5 33.5T109 500t33 78 77 32q45 0 78-32t33-78q0-47-33-80t-78-33z"/><glyph glyph-name="cedilla" unicode="¸" horiz-adv-x="1017" d="M428-475q-77 0-131.5 35T219-352l90 49q33-76 113-76 43 0 69.5 25.5T518-285q0 42-26 70.5T414-186h-43L403 0h95l-19-109q61-10 104.5-58T627-287q0-86-58.5-137T428-475z"/><glyph glyph-name="onesuperior" unicode="¹" d="M219 387q-43 0-76.5 33.5T109 500t33 78 77 32q45 0 78-32t33-78q0-47-33-80t-78-33z"/><glyph glyph-name="ordmasculine" unicode="º" horiz-adv-x="911" d="M487 299q-151 0-251.5 103.5T135 662q0 166 110.5 276.5T512 1049q151 0 251.5-105.5T864 686q0-171-109.5-279T487 299zm2 111q107 0 174.5 77T731 690q0 106-61 177t-160 71q-107 0-173.5-77.5T270 657q0-109 59.5-178T489 410z"/><glyph glyph-name="guillemotright" unicode="»" horiz-adv-x="796" d="M326 76l258 354-140 309h146l133-307-2-16L479 76H326zM16 76l258 354-139 309h146l135-307-4-16L170 76H16z"/><glyph glyph-name="onequarter" unicode="¼" d="M219 387q-43 0-76.5 33.5T109 500t33 78 77 32q45 0 78-32t33-78q0-47-33-80t-78-33z"/><glyph glyph-name="onehalf" unicode="½" d="M219 387q-43 0-76.5 33.5T109 500t33 78 77 32q45 0 78-32t33-78q0-47-33-80t-78-33z"/><glyph glyph-name="threequarters" unicode="¾" d="M219 387q-43 0-76.5 33.5T109 500t33 78 77 32q45 0 78-32t33-78q0-47-33-80t-78-33z"/><glyph glyph-name="questiondown" unicode="¿" horiz-adv-x="956" d="M674 1407q42 0 74-31t32-76-32-76.5-74-31.5-74.5 31.5T567 1300t32.5 76 74.5 31zm18-395l-63-361h-90q-147 0-227.5-83T231 358q0-114 67.5-180.5T477 111q97 0 165 44.5T762 293l108-62Q816 114 712.5 50T475-14Q301-14 194.5 89.5T88 358q0 176 119.5 290T516 762l43 250h133z"/><glyph glyph-name="Agrave" unicode="À" horiz-adv-x="1314" d="M762 1542l-178 395h164l124-395H762zM281 236L147 0H0l815 1407h23L1167 0h-145l-53 236H281zm661 120L803 973q-7 31-13.5 71t-9.5 64l-2 25q-35-88-76-160L350 356h592z"/><glyph glyph-name="Aacute" unicode="Á" horiz-adv-x="1314" d="M766 1542l201 395h172l-260-395H766zM281 236L147 0H0l815 1407h23L1167 0h-145l-53 236H281zm661 120L803 973q-7 31-13.5 71t-9.5 64l-2 25q-35-88-76-160L350 356h592z"/><glyph glyph-name="Acircumflex" unicode="Â" horiz-adv-x="1314" d="M543 1538l323 395h21l192-395H967l-115 217-186-217H543zM281 236L147 0H0l815 1407h23L1167 0h-145l-53 236H281zm661 120L803 973q-7 31-13.5 71t-9.5 64l-2 25q-35-88-76-160L350 356h592z"/><glyph glyph-name="Atilde" unicode="Ã" horiz-adv-x="1314" d="M625 1530l-105 12q40 225 191 225 61 0 131-63 9-7 23-20t20.5-18.5 16-12 17.5-9 17-2.5q30 0 48.5 26.5t35.5 96.5l104-12q-19-111-67-168t-121-57q-63 0-133 63-7 7-19 18t-17.5 16-14 11.5-14 9.5-12.5 5-15 2q-30 0-49.5-27t-36.5-96zM281 236L147 0H0l815 1407h23L1167 0h-145l-53 236H281zm661 120L803 973q-7 31-13.5 71t-9.5 64l-2 25q-35-88-76-160L350 356h592z"/><glyph glyph-name="Adieresis" unicode="Ä" horiz-adv-x="1314" d="M1014 1581q-36 0-64 27t-28 65q0 39 28 66.5t64 27.5q37 0 64.5-27.5t27.5-66.5q0-38-27.5-65t-64.5-27zm-348 0q-37 0-65 27t-28 65q0 39 28 66.5t65 27.5q36 0 64-27.5t28-66.5q0-38-28-65t-64-27zM281 236L147 0H0l815 1407h23L1167 0h-145l-53 236H281zm661 120L803 973q-7 31-13.5 71t-9.5 64l-2 25q-35-88-76-160L350 356h592z"/><glyph glyph-name="Aring" unicode="Å" horiz-adv-x="1314" d="M838 1513q-89 0-151 60t-62 145q0 86 62 146.5t151 60.5 151-60.5 62-146.5q0-85-62-145t-151-60zM281 236L147 0H0l815 1407h23L1167 0h-145l-53 236H281zm557 1368q46 0 76 31t30 83q0 53-29.5 84t-76.5 31-78-31-31-84q0-51 31-82.5t78-31.5zM942 356L803 973q-7 31-13.5 71t-9.5 64l-2 25q-35-88-76-160L350 356h592z"/><glyph glyph-name="AE" unicode="Æ" horiz-adv-x="1898" d="M332 233L141 0H-20l1150 1393h795l-20-127h-680l-117-658h604l-20-127h-607l-63-354h709L1708 0H856l41 233H332zm586 123l110 631q6 34 18.5 79.5t21.5 73.5l9 29q-65-104-114-163L432 356h486z"/><glyph glyph-name="Ccedilla" unicode="Ç" horiz-adv-x="1458" d="M682-6Q444 34 294.5 216.5T145 655q0 160 59 301t159 240 237 156 289 57q360 0 534-272l-114-76q-147 219-424 219-164 0-299.5-81.5t-213-224T295 659q0-238 144.5-392T809 113q270 0 446 202l107-84Q1149-16 803-16h-27l-16-93q61-10 104-58t43-120q0-86-58-137t-140-51q-77 0-131.5 35T500-352l90 49q33-76 112-76 43 0 70 26t27 68-26.5 70.5T694-186h-43z"/><glyph glyph-name="Egrave" unicode="È" horiz-adv-x="1159" d="M735 1542l-178 395h164l125-395H735zM111 0l245 1393h830l-21-127H477L362 608h611l-23-125H340l-64-356h715L969 0H111z"/><glyph glyph-name="Eacute" unicode="É" horiz-adv-x="1159" d="M719 1542l201 395h172l-261-395H719zM111 0l245 1393h830l-21-127H477L362 608h611l-23-125H340l-64-356h715L969 0H111z"/><glyph glyph-name="Ecircumflex" unicode="Ê" horiz-adv-x="1159" d="M516 1538l324 395h20l193-395H940l-115 217-186-217H516zM111 0l245 1393h830l-21-127H477L362 608h611l-23-125H340l-64-356h715L969 0H111z"/><glyph glyph-name="Edieresis" unicode="Ë" horiz-adv-x="1159" d="M971 1581q-36 0-64 27t-28 65q0 39 28 66.5t64 27.5q37 0 64.5-27.5t27.5-66.5q0-38-27.5-65t-64.5-27zm-348 0q-37 0-65 27t-28 65q0 39 28 66.5t65 27.5q36 0 64-27.5t28-66.5q0-38-28-65t-64-27zM111 0l245 1393h830l-21-127H477L362 608h611l-23-125H340l-64-356h715L969 0H111z"/><glyph glyph-name="Igrave" unicode="Ì" horiz-adv-x="530" d="M387 1542l-178 395h164l125-395H387zM119 0l246 1393h145L264 0H119z"/><glyph glyph-name="Iacute" unicode="Í" horiz-adv-x="530" d="M387 1542l201 395h172l-260-395H387zM119 0l246 1393h145L264 0H119z"/><glyph glyph-name="Icircumflex" unicode="Î" horiz-adv-x="530" d="M188 1538l324 395h20l193-395H612l-114 217-187-217H188zM119 0l246 1393h145L264 0H119z"/><glyph glyph-name="Idieresis" unicode="Ï" horiz-adv-x="530" d="M666 1581q-36 0-64.5 27.5T573 1673q0 39 28.5 66.5T666 1767q37 0 64.5-27.5T758 1673q0-38-27.5-65t-64.5-27zm-349 0q-37 0-64.5 27t-27.5 65q0 39 27.5 66.5T317 1767q36 0 64.5-27.5T410 1673q0-37-28.5-64.5T317 1581zM119 0l246 1393h145L264 0H119z"/><glyph glyph-name="Eth" unicode="Ð" horiz-adv-x="1349" d="M199 498H39l22 127h160l135 768h316q151 0 272.5-46.5t201.5-129 122.5-195.5 42.5-248q0-230-97.5-405T932 97 502 0H111zm168 127h368l-22-127H344l-65-371h215q165 0 293 48.5T995.5 312t122 206 41.5 260q0 109-30 197t-90.5 153.5-158 101.5-225.5 36H479z"/><glyph glyph-name="Ntilde" unicode="Ñ" horiz-adv-x="1427" d="M700 1530l-104 12q40 225 190 225 62 0 132-63 9-7 23-20t20.5-18.5 16-12 17.5-9 17-2.5q30 0 48.5 26.5t35.5 96.5l104-12q-19-111-67-168t-121-57q-63 0-133 63-7 6-19.5 17.5t-17.5 16-14 11.5-14 9.5-12.5 5-15.5 2.5q-30 0-49.5-27t-36.5-96zM1143-14L504 971q-16 25-35 58t-30 53l-11 20q-2-97-14-156L248 0H111l247 1407h23l641-989q16-25 34.5-58t29.5-53l10-20q4 85 14 155l168 951h137L1167-14h-24z"/><glyph glyph-name="Ograve" unicode="Ò" horiz-adv-x="1605" d="M866 1542l-178 395h164l125-395H866zM809-16q-186 0-336 83.5T236.5 304 150 651q0 163 58.5 305T367 1197t236.5 155.5T893 1409q138 0 260-49t210.5-136 139.5-211.5 51-269.5q0-131-37.5-249t-106-210T1250 124 1044.5 20 809-16zm6 129q168 0 303.5 82.5t211 227T1405 745q0 236-142.5 384.5T891 1278q-126 0-236.5-47.5T466 1100 343.5 900.5 299 651q0-237 142.5-387.5T815 113z"/><glyph glyph-name="Oacute" unicode="Ó" horiz-adv-x="1605" d="M879 1542l200 395h172l-260-395H879zM809-16q-186 0-336 83.5T236.5 304 150 651q0 163 58.5 305T367 1197t236.5 155.5T893 1409q138 0 260-49t210.5-136 139.5-211.5 51-269.5q0-131-37.5-249t-106-210T1250 124 1044.5 20 809-16zm6 129q168 0 303.5 82.5t211 227T1405 745q0 236-142.5 384.5T891 1278q-126 0-236.5-47.5T466 1100 343.5 900.5 299 651q0-237 142.5-387.5T815 113z"/><glyph glyph-name="Ocircumflex" unicode="Ô" horiz-adv-x="1605" d="M670 1538l323 395h21l192-395h-112l-115 217-186-217H670zM809-16q-186 0-336 83.5T236.5 304 150 651q0 163 58.5 305T367 1197t236.5 155.5T893 1409q138 0 260-49t210.5-136 139.5-211.5 51-269.5q0-131-37.5-249t-106-210T1250 124 1044.5 20 809-16zm6 129q168 0 303.5 82.5t211 227T1405 745q0 236-142.5 384.5T891 1278q-126 0-236.5-47.5T466 1100 343.5 900.5 299 651q0-237 142.5-387.5T815 113z"/><glyph glyph-name="Otilde" unicode="Õ" horiz-adv-x="1605" d="M750 1530l-105 12q40 225 191 225 61 0 131-63 9-7 23-20t20.5-18.5 16-12 17.5-9 17-2.5q30 0 48.5 26.5t35.5 96.5l104-12q-19-111-67-168t-121-57q-63 0-133 63-7 7-19 18t-17.5 16-14 11.5-14 9.5-12.5 5-15 2q-30 0-49.5-27t-36.5-96zM809-16q-186 0-336 83.5T236.5 304 150 651q0 163 58.5 305T367 1197t236.5 155.5T893 1409q138 0 260-49t210.5-136 139.5-211.5 51-269.5q0-131-37.5-249t-106-210T1250 124 1044.5 20 809-16zm6 129q168 0 303.5 82.5t211 227T1405 745q0 236-142.5 384.5T891 1278q-126 0-236.5-47.5T466 1100 343.5 900.5 299 651q0-237 142.5-387.5T815 113z"/><glyph glyph-name="Odieresis" unicode="Ö" horiz-adv-x="1605" d="M1135 1581q-36 0-64.5 27.5T1042 1673q0 39 28.5 66.5t64.5 27.5q37 0 64.5-27.5t27.5-66.5q0-38-27.5-65t-64.5-27zm-349 0q-37 0-64.5 27t-27.5 65q0 39 27.5 66.5T786 1767q36 0 64.5-27.5T879 1673q0-37-28.5-64.5T786 1581zM809-16q-186 0-336 83.5T236.5 304 150 651q0 163 58.5 305T367 1197t236.5 155.5T893 1409q138 0 260-49t210.5-136 139.5-211.5 51-269.5q0-131-37.5-249t-106-210T1250 124 1044.5 20 809-16zm6 129q168 0 303.5 82.5t211 227T1405 745q0 236-142.5 384.5T891 1278q-126 0-236.5-47.5T466 1100 343.5 900.5 299 651q0-237 142.5-387.5T815 113z"/><glyph glyph-name="multiply" unicode="×" d="M219 387q-43 0-76.5 33.5T109 500t33 78 77 32q45 0 78-32t33-78q0-47-33-80t-78-33z"/><glyph glyph-name="Oslash" unicode="Ø" horiz-adv-x="1605" d="M1417 1165q137-180 137-422 0-131-37.5-249t-106-210-160-160-204-104T813-16q-257 0-442 155L211-18l-86 88 162 159Q150 406 150 651q0 163 58.5 305t158 241T602 1352.5t287 56.5q259 0 442-156l160 156 86-88zM389 330l844 827q-133 121-344 121-167 0-302-81T375.5 972 299 651q0-182 90-321zm926 735L469 236q139-123 348-123 166 0 301 82.5t211 227 76 322.5q0 184-90 320z"/><glyph glyph-name="Ugrave" unicode="Ù" horiz-adv-x="1327" d="M770 1542l-178 395h164l125-395H770zM641-16q-109 0-200.5 35.5T285 120.5t-90 168-5 227.5l154 877h148L338 514q-34-196 52-298.5T647 113q153 0 244 78t121 251l166 951h147l-172-969Q1077-16 641-16z"/><glyph glyph-name="Uacute" unicode="Ú" horiz-adv-x="1327" d="M770 1542l201 395h172l-260-395H770zM641-16q-109 0-200.5 35.5T285 120.5t-90 168-5 227.5l154 877h148L338 514q-34-196 52-298.5T647 113q153 0 244 78t121 251l166 951h147l-172-969Q1077-16 641-16z"/><glyph glyph-name="Ucircumflex" unicode="Û" horiz-adv-x="1327" d="M575 1538l324 395h21l192-395H999l-114 217-187-217H575zM641-16q-109 0-200.5 35.5T285 120.5t-90 168-5 227.5l154 877h148L338 514q-34-196 52-298.5T647 113q153 0 244 78t121 251l166 951h147l-172-969Q1077-16 641-16z"/><glyph glyph-name="Udieresis" unicode="Ü" horiz-adv-x="1327" d="M1030 1581q-36 0-64 27t-28 65q0 39 28 66.5t64 27.5q37 0 64.5-27.5t27.5-66.5q0-38-27.5-65t-64.5-27zm-348 0q-37 0-64.5 27t-27.5 65q0 39 27.5 66.5T682 1767q36 0 64-27.5t28-66.5q0-38-28-65t-64-27zM641-16q-109 0-200.5 35.5T285 120.5t-90 168-5 227.5l154 877h148L338 514q-34-196 52-298.5T647 113q153 0 244 78t121 251l166 951h147l-172-969Q1077-16 641-16z"/><glyph glyph-name="Yacute" unicode="Ý" horiz-adv-x="1312" d="M766 1542l201 395h172l-260-395H766zM590 440l-348 953h153l252-688q9-25 17.5-62t13.5-61l4-25q39 91 78 148l491 688h162L735 438 657 0H512z"/><glyph glyph-name="Thorn" unicode="Þ" horiz-adv-x="1159" d="M475 1231h125q121 0 218.5-36.5t159.5-101 94.5-150.5 31.5-187q-2-262-163-418T487 182H291L258 0H113l245 1393h146zM313 309h176q122 0 212.5 33t145 94T927 576.5 954 756q2 159-88.5 254.5T590 1106H453z"/><glyph glyph-name="germandbls" unicode="ß" horiz-adv-x="1079" d="M711 815q127-39 200.5-138.5T985 436q0-205-117-325.5T549-10q-103 0-184 35l36 112q71-26 142-26 145 0 221 90.5T840 451q0 137-83.5 218T512 756l20 114q132 8 221 90t89 218q0 107-52.5 157.5T649 1386q-99 0-158-63t-83-203L174-201q-23-138-81-185.5T-74-434h-86l21 112h61q45 0 74 28t43 108l231 1316q33 190 130.5 282.5T651 1505q144 0 234-86t90-239q0-129-70.5-224.5T711 815z"/><glyph glyph-name="agrave" unicode="à" horiz-adv-x="1081" d="M532 1020l-178 395h164l125-395H532zM442-16Q287-16 189.5 95.5T92 391q0 208 121.5 341.5T510 866q113 0 198.5-67.5T825 616l35 232h139L883 178q-5-34 4-49.5t37-15.5h77L981 0h-92q-89 0-119 37t-22 110l6 27Q698 82 618 33T442-16zm35 120q132 0 220.5 98T786 451q0 127-68 209.5T535 743q-134 0-216.5-99.5T236 389q0-127 66-206t175-79z"/><glyph glyph-name="aacute" unicode="á" horiz-adv-x="1081" d="M528 1020l201 395h172l-260-395H528zM442-16Q287-16 189.5 95.5T92 391q0 208 121.5 341.5T510 866q113 0 198.5-67.5T825 616l35 232h139L883 178q-5-34 4-49.5t37-15.5h77L981 0h-92q-89 0-119 37t-22 110l6 27Q698 82 618 33T442-16zm35 120q132 0 220.5 98T786 451q0 127-68 209.5T535 743q-134 0-216.5-99.5T236 389q0-127 66-206t175-79z"/><glyph glyph-name="acircumflex" unicode="â" horiz-adv-x="1081" d="M346 1016l324 395h20l193-395H770l-115 217-186-217H346zM442-16Q287-16 189.5 95.5T92 391q0 208 121.5 341.5T510 866q113 0 198.5-67.5T825 616l35 232h139L883 178q-5-34 4-49.5t37-15.5h77L981 0h-92q-89 0-119 37t-22 110l6 27Q698 82 618 33T442-16zm35 120q132 0 220.5 98T786 451q0 127-68 209.5T535 743q-134 0-216.5-99.5T236 389q0-127 66-206t175-79z"/><glyph glyph-name="atilde" unicode="ã" horiz-adv-x="1081" d="M440 1008l-104 12q40 225 190 225 61 0 131-63 8-7 23-20.5t21-18 16-11.5 18-9.5 17-2.5q30 0 48.5 26.5T836 1243l104-12q-19-111-67-168t-121-57q-64 0-134 63-7 6-19.5 17.5t-17 16T568 1114t-14.5 9.5-12.5 4.5-15 2q-30 0-49.5-26.5T440 1008zm2-1024Q287-16 189.5 95.5T92 391q0 208 121.5 341.5T510 866q113 0 198.5-67.5T825 616l35 232h139L883 178q-5-34 4-49.5t37-15.5h77L981 0h-92q-89 0-119 37t-22 110l6 27Q698 82 618 33T442-16zm35 120q132 0 220.5 98T786 451q0 127-68 209.5T535 743q-134 0-216.5-99.5T236 389q0-127 66-206t175-79z"/><glyph glyph-name="adieresis" unicode="ä" horiz-adv-x="1081" d="M823 1059q-36 0-64 27t-28 65q0 39 28 66.5t64 27.5q37 0 64.5-27.5T915 1151q0-38-27.5-65t-64.5-27zm-348 0q-37 0-64.5 27t-27.5 65q0 39 27.5 66.5T475 1245q36 0 64-27.5t28-66.5q0-38-28-65t-64-27zM442-16Q287-16 189.5 95.5T92 391q0 208 121.5 341.5T510 866q113 0 198.5-67.5T825 616l35 232h139L883 178q-5-34 4-49.5t37-15.5h77L981 0h-92q-89 0-119 37t-22 110l6 27Q698 82 618 33T442-16zm35 120q132 0 220.5 98T786 451q0 127-68 209.5T535 743q-134 0-216.5-99.5T236 389q0-127 66-206t175-79z"/><glyph glyph-name="aring" unicode="å" horiz-adv-x="1081" d="M647 991q-89 0-151 60t-62 145q0 86 62 146.5t151 60.5 151-60.5 62-146.5q0-85-62-145t-151-60zM442-16Q287-16 189.5 95.5T92 391q0 208 121.5 341.5T510 866q113 0 198.5-67.5T825 616l35 232h139L883 178q-5-34 4-49.5t37-15.5h77L981 0h-92q-89 0-119 37t-22 110l6 27Q698 82 618 33T442-16zm205 1097q46 0 76.5 31.5T754 1196q0 53-30 84t-77 31-77.5-31-30.5-84q0-52 30.5-83.5T647 1081zM477 104q132 0 220.5 98T786 451q0 127-68 209.5T535 743q-134 0-216.5-99.5T236 389q0-127 66-206t175-79z"/><glyph glyph-name="ae" unicode="æ" horiz-adv-x="1593" d="M780 700q57 78 140 122t184 44q193 0 295.5-122T1505 422l-696-74q15-112 93-180t196-68q163 0 266 107l88-86Q1318-16 1098-16q-130 0-224.5 60T733 207Q646-16 369-16q-139 0-223.5 65T61 225q0 73 28 127t77 85 109 46 131 15h272l2 6q21 119-28 183.5T508 752q-150 0-242-121l-84 82q52 70 137 111.5T512 866q93 0 164.5-43.5T780 700zm27-245l551 57q-10 101-73.5 170.5T1104 752q-122 0-202.5-82T807 455zm-145-62H406q-203 0-203-160 0-64 45.5-100.5T379 96q116 0 182 51t82 138z"/><glyph glyph-name="ccedilla" unicode="ç" horiz-adv-x="931" d="M395-2Q260 35 177 145.5T94 406q0 196 131 328t328 132q209 0 326-151l-103-82q-79 110-223 110-141 0-228-96t-87-244q0-128 76-213.5T512 104q131 0 225 84l82-92Q699-16 512-16h-25l-16-93q61-10 104-58t43-120q0-86-58-137t-140-51q-77 0-131.5 35T211-352l90 49q33-76 113-76 43 0 69.5 25.5T510-285q0 42-26 70.5T406-186h-44z"/><glyph glyph-name="egrave" unicode="è" horiz-adv-x="1021" d="M508 1020l-178 395h164l124-395H508zM238 348q18-112 95-180t195-68q162 0 265 107l88-86Q747-16 528-16q-193 0-313.5 119.5T94 406q0 196 127 328t314 132q191 0 293.5-122T934 422zm-2 107l550 57q-10 102-73 171t-181 69q-123 0-202.5-81.5T236 455z"/><glyph glyph-name="eacute" unicode="é" horiz-adv-x="1021" d="M537 1020l200 395h172l-260-395H537zM238 348q18-112 95-180t195-68q162 0 265 107l88-86Q747-16 528-16q-193 0-313.5 119.5T94 406q0 196 127 328t314 132q191 0 293.5-122T934 422zm-2 107l550 57q-10 102-73 171t-181 69q-123 0-202.5-81.5T236 455z"/><glyph glyph-name="ecircumflex" unicode="ê" horiz-adv-x="1021" d="M317 1016l324 395h21l192-395H741l-114 217-187-217H317zm-79-668q18-112 95-180t195-68q162 0 265 107l88-86Q747-16 528-16q-193 0-313.5 119.5T94 406q0 196 127 328t314 132q191 0 293.5-122T934 422zm-2 107l550 57q-10 102-73 171t-181 69q-123 0-202.5-81.5T236 455z"/><glyph glyph-name="edieresis" unicode="ë" horiz-adv-x="1021" d="M788 1059q-36 0-64 27t-28 65q0 39 28 66.5t64 27.5q37 0 65-27.5t28-66.5q0-38-28-65t-65-27zm-348 0q-37 0-64.5 27t-27.5 65q0 39 27.5 66.5T440 1245q36 0 64-27.5t28-66.5q0-38-28-65t-64-27zM238 348q18-112 95-180t195-68q162 0 265 107l88-86Q747-16 528-16q-193 0-313.5 119.5T94 406q0 196 127 328t314 132q191 0 293.5-122T934 422zm-2 107l550 57q-10 102-73 171t-181 69q-123 0-202.5-81.5T236 455z"/><glyph glyph-name="igrave" unicode="ì" horiz-adv-x="477" d="M266 1020L88 1415h164l125-395H266zM260 0q-93 0-125.5 45T119 188l114 660h140L256 178q-6-34 2.5-49.5T295 113h84L358 0h-98z"/><glyph glyph-name="iacute" unicode="í" horiz-adv-x="477" d="M268 1020l201 395h172l-260-395H268zM260 0q-93 0-125.5 45T119 188l114 660h140L256 178q-6-34 2.5-49.5T295 113h84L358 0h-98z"/><glyph glyph-name="icircumflex" unicode="î" horiz-adv-x="477" d="M55 1016l324 395h20l193-395H479l-114 217-187-217H55zM260 0q-93 0-125.5 45T119 188l114 660h140L256 178q-6-34 2.5-49.5T295 113h84L358 0h-98z"/><glyph glyph-name="idieresis" unicode="ï" horiz-adv-x="477" d="M524 1059q-36 0-64 27t-28 65q0 39 28 66.5t64 27.5q37 0 64.5-27.5T616 1151q0-38-27.5-65t-64.5-27zm-348 0q-37 0-64.5 27T84 1151q0 39 27.5 66.5T176 1245q36 0 64-27.5t28-66.5q0-38-28-65t-64-27zM260 0q-93 0-125.5 45T119 188l114 660h140L256 178q-6-34 2.5-49.5T295 113h84L358 0h-98z"/><glyph glyph-name="eth" unicode="ð" horiz-adv-x="1067" d="M635 1188l-156-121-55 78 156 123q-67 97-129 164l88 79q84-84 143-163l154 120 57-77-156-121q242-358 242-758 0-247-125-387.5T518-16q-183 0-301.5 120T98 410q0 99 37 185.5t98.5 145 141 92T539 866q188 0 282-143-45 242-186 465zM520 102q139 0 225 98.5T831 459q0 126-75.5 206T557 745q-137 0-227-95.5T240 406q0-134 76.5-219T520 102z"/><glyph glyph-name="ntilde" unicode="ñ" horiz-adv-x="1026" d="M406 1008l-105 12q40 225 191 225 61 0 131-63 9-7 23-20t20.5-18.5 16-12 17.5-9 17-2.5q30 0 48.5 26.5T801 1243l104-12q-19-111-67-168t-121-57q-63 0-133 63-7 6-19.5 17.5t-17 16T534 1114t-14.5 9.5-12.5 4.5-15 2q-30 0-49.5-26.5T406 1008zM72 0l149 848h139l-34-170q47 88 124 138t177 50q143 0 220.5-103T895 489l-55-311q-6-34 2.5-49.5T881 113h77L938 0h-94q-92 0-125.5 45.5T702 188l52 289q22 123-23.5 193.5T578 741q-115 0-187.5-67.5T295 477L211 0H72z"/><glyph glyph-name="ograve" unicode="ò" horiz-adv-x="1067" d="M537 1020l-179 395h164l125-395H537zM518-16q-178 0-301 122T94 403q0 197 133 330t326 133q178 0 300-122.5T975 444q0-197-132-328.5T518-16zm2 120q139 0 225 96.5T831 446q0 129-77 213t-203 84q-137 0-225-97t-88-245q0-130 78.5-213.5T520 104z"/><glyph glyph-name="oacute" unicode="ó" horiz-adv-x="1067" d="M541 1020l200 395h172l-260-395H541zM518-16q-178 0-301 122T94 403q0 197 133 330t326 133q178 0 300-122.5T975 444q0-197-132-328.5T518-16zm2 120q139 0 225 96.5T831 446q0 129-77 213t-203 84q-137 0-225-97t-88-245q0-130 78.5-213.5T520 104z"/><glyph glyph-name="ocircumflex" unicode="ô" horiz-adv-x="1067" d="M342 1016l324 395h20l193-395H766l-115 217-186-217H342zM518-16q-178 0-301 122T94 403q0 197 133 330t326 133q178 0 300-122.5T975 444q0-197-132-328.5T518-16zm2 120q139 0 225 96.5T831 446q0 129-77 213t-203 84q-137 0-225-97t-88-245q0-130 78.5-213.5T520 104z"/><glyph glyph-name="otilde" unicode="õ" horiz-adv-x="1067" d="M416 1008l-105 12q40 225 191 225 61 0 131-63 9-7 23-20t20.5-18.5 16-12 17.5-9 17-2.5q30 0 48.5 26.5T811 1243l104-12q-19-111-67-168t-121-57q-63 0-133 63-7 6-19.5 17.5t-17 16T544 1114t-14.5 9.5-12.5 4.5-15 2q-30 0-49.5-26.5T416 1008zM518-16q-178 0-301 122T94 403q0 197 133 330t326 133q178 0 300-122.5T975 444q0-197-132-328.5T518-16zm2 120q139 0 225 96.5T831 446q0 129-77 213t-203 84q-137 0-225-97t-88-245q0-130 78.5-213.5T520 104z"/><glyph glyph-name="odieresis" unicode="ö" horiz-adv-x="1067" d="M815 1059q-36 0-64 27t-28 65q0 39 28 66.5t64 27.5q37 0 64.5-27.5T907 1151q0-38-27.5-65t-64.5-27zm-348 0q-37 0-64.5 27t-27.5 65q0 39 27.5 66.5T467 1245q36 0 64-27.5t28-66.5q0-38-28-65t-64-27zM518-16q-178 0-301 122T94 403q0 197 133 330t326 133q178 0 300-122.5T975 444q0-197-132-328.5T518-16zm2 120q139 0 225 96.5T831 446q0 129-77 213t-203 84q-137 0-225-97t-88-245q0-130 78.5-213.5T520 104z"/><glyph glyph-name="divide" unicode="÷" d="M219 387q-43 0-76.5 33.5T109 500t33 78 77 32q45 0 78-32t33-78q0-47-33-80t-78-33z"/><glyph glyph-name="oslash" unicode="ø" horiz-adv-x="1067" d="M901 688q76-110 76-244 0-197-132-328.5T520-16Q361-16 244 84L125-25 53 51l119 109Q96 273 96 403q0 197 133 330t326 133q159 0 276-102l117 106 70-75zM270 250l471 430q-73 70-188 70-140 0-228.5-99T236 401q0-87 34-151zm533 348L332 166q77-68 190-68 141 0 228.5 98.5T838 446q0 87-35 152z"/><glyph glyph-name="ugrave" unicode="ù" horiz-adv-x="1030" d="M535 1020l-179 395h164l125-395H535zM395-18Q252-18 175 84.5T127 358l86 490h139l-84-477q-22-123 23.5-194T444 106q114 0 186 68t95 197l86 477h139L831 178q-5-34 4-49.5t37-15.5h78L930 0h-92q-87 0-119.5 43T696 150l2 14Q587-18 395-18z"/><glyph glyph-name="uacute" unicode="ú" horiz-adv-x="1030" d="M535 1020l200 395h172l-260-395H535zM395-18Q252-18 175 84.5T127 358l86 490h139l-84-477q-22-123 23.5-194T444 106q114 0 186 68t95 197l86 477h139L831 178q-5-34 4-49.5t37-15.5h78L930 0h-92q-87 0-119.5 43T696 150l2 14Q587-18 395-18z"/><glyph glyph-name="ucircumflex" unicode="û" horiz-adv-x="1030" d="M338 1016l324 395h20l192-395H762l-115 217-186-217H338zM395-18Q252-18 175 84.5T127 358l86 490h139l-84-477q-22-123 23.5-194T444 106q114 0 186 68t95 197l86 477h139L831 178q-5-34 4-49.5t37-15.5h78L930 0h-92q-87 0-119.5 43T696 150l2 14Q587-18 395-18z"/><glyph glyph-name="udieresis" unicode="ü" horiz-adv-x="1030" d="M793 1059q-36 0-64.5 27.5T700 1151q0 39 28.5 66.5T793 1245q37 0 64.5-27.5T885 1151q0-38-27.5-65t-64.5-27zm-349 0q-37 0-64.5 27t-27.5 65q0 39 27.5 66.5T444 1245q36 0 64.5-27.5T537 1151q0-37-28.5-64.5T444 1059zM395-18Q252-18 175 84.5T127 358l86 490h139l-84-477q-22-123 23.5-194T444 106q114 0 186 68t95 197l86 477h139L831 178q-5-34 4-49.5t37-15.5h78L930 0h-92q-87 0-119.5 43T696 150l2 14Q587-18 395-18z"/><glyph glyph-name="yacute" unicode="ý" horiz-adv-x="1032" d="M559 1020l201 395h172l-260-395H559zM383-457q-126 0-220 54T23-254l110 72q42-75 100.5-113.5T383-334q113 0 185.5 69.5T666-61l36 202Q594-18 414-18 271-18 193 84.5T145 358l86 490h140l-84-477q-22-123 23.5-194T463 106q115 0 186 67.5T743 371l86 477h140L805-80q-33-188-142-282.5T383-457z"/><glyph glyph-name="thorn" unicode="þ" horiz-adv-x="1093" d="M-4-434l336 1913h139L332 682q53 88 133 136t178 48q160 0 260.5-113T1004 459q0-206-124-340.5T580-16q-119 0-207.5 67T252 223L135-434H-4zm553 538q138 0 224.5 100.5T860 459q0 127-69 205.5T606 743q-137 0-228-98t-91-248q0-128 71.5-210.5T549 104z"/><glyph glyph-name="ydieresis" unicode="ÿ" horiz-adv-x="1032" d="M797 1059q-36 0-64 27t-28 65q0 39 28 66.5t64 27.5q37 0 64.5-27.5T889 1151q0-38-27.5-65t-64.5-27zm-348 0q-37 0-65 27t-28 65q0 39 28 66.5t65 27.5q36 0 64-27.5t28-66.5q0-38-28-65t-64-27zM377-457q-126 0-220.5 54T16-254l111 72q42-75 100.5-113.5T377-334q113 0 185 69.5T659-61l37 202Q588-18 408-18 265-18 187 84.5T139 358l86 490h140l-84-477q-22-123 23.5-194T457 106q115 0 186 67.5T737 371l86 477h140L799-80q-33-188-142-282.5T377-457z"/><glyph glyph-name="dotlessi" unicode="ı" horiz-adv-x="477" d="M260 0q-93 0-125.5 45T119 188l114 660h140L256 178q-6-34 2.5-49.5T295 113h84L358 0h-98z"/><glyph glyph-name="Lslash" unicode="Ł" horiz-adv-x="1064" d="M344 467l-59-338h645L907 0H117l71 408-163-62 22 135 166 64 149 848h146L369 604l411 156-22-137z"/><glyph glyph-name="lslash" unicode="ł" horiz-adv-x="559" d="M369 573l-70-395q-6-34 2.5-49.5T338 113h94L412 0H303q-93 0-125.5 45T162 188l53 299L33 387l24 143 183 101 149 848h141L395 715l203 112-25-141z"/><glyph glyph-name="OE" unicode="Œ" horiz-adv-x="2007" d="M780 0Q477 0 308 168T139 618q0 353 220 564t591 211h1084l-25-129h-686l-115-656h611l-21-129h-612l-62-350h713L1815 0H780zm15 127h184l201 1139H956q-165 0-293-49t-208.5-137-122-206T291 614q0-109 30-197t90.5-153.5 158-101T795 127z"/><glyph glyph-name="oe" unicode="œ" horiz-adv-x="1759" d="M897 211Q843 105 745 44.5T518-16q-178 0-301 122T94 403q0 197 134 330t327 133q124 0 216-62t138-167q52 106 147 167.5t216 61.5q192 0 294-121.5T1671 422l-696-74q18-112 95.5-180t195.5-68q161 0 264 107l88-86Q1484-16 1266-16q-132 0-227.5 61.5T897 211zm76 244l551 57q-10 102-73 171t-181 69q-123 0-203-81.5T973 455zM520 104q139 0 225 96.5T831 446q0 129-77 213t-203 84q-137 0-225-97t-88-245q0-130 78.5-213.5T520 104z"/><glyph glyph-name="Scaron" unicode="Š" horiz-adv-x="1081" d="M659 1520l-192 397h115l114-219 185 219h123l-324-397h-21zM498-16q-88 0-165.5 24t-135 64.5-99 87T29 258l125 74q29-47 58.5-82.5t70.5-69 95.5-51.5T498 111q142 0 219.5 72.5T795 377q0 80-44.5 134T598 635l-96 61q-125 80-185.5 166.5T256 1065q0 156 102 250t258 94q232 0 353-188l-115-80q-46 71-101.5 106T610 1282q-92 0-151.5-57T399 1071q0-78 40-132t136-114l97-61q142-91 206-176.5T942 375q0-178-120.5-284.5T498-16z"/><glyph glyph-name="scaron" unicode="š" horiz-adv-x="825" d="M467 997l-193 398h115l115-219 184 219h123L487 997h-20zM381-16q-123 0-213 51.5T33 170l106 68Q225 98 385 98q85 0 128.5 33t43.5 94q0 34-22.5 61T485 329t-101 55q-9 5-13 7-103 50-156 106t-53 144q0 106 76.5 165.5T432 866q177 0 273-129l-97-78q-37 46-76 70.5T430 754q-62 0-99.5-26.5T293 651q0-48 35-78.5T453 498q56-27 91-48t73-53.5 56.5-74T692 229q0-112-80-178.5T381-16z"/><glyph glyph-name="Ydieresis" unicode="Ÿ" horiz-adv-x="1312" d="M1016 1581q-36 0-64 27t-28 65q0 39 28 66.5t64 27.5q37 0 64.5-27.5t27.5-66.5q0-38-27.5-65t-64.5-27zm-348 0q-37 0-65 27t-28 65q0 39 28 66.5t65 27.5q36 0 64-27.5t28-66.5q0-38-28-65t-64-27zM590 440l-348 953h153l252-688q9-25 17.5-62t13.5-61l4-25q39 91 78 148l491 688h162L735 438 657 0H512z"/><glyph glyph-name="Zcaron" unicode="Ž" horiz-adv-x="1181" d="M776 1520l-192 397h114l115-219 184 219h123l-323-397h-21zM18 0v23l961 1245H328l22 125h877v-23L264 125h762L1004 0H18z"/><glyph glyph-name="zcaron" unicode="ž" horiz-adv-x="862" d="M539 997l-193 398h115l114-219 185 219h123L559 997h-20zM20 0v20l603 711H190l21 117h651v-23L262 115h471L713 0H20z"/><glyph glyph-name="florin" unicode="ƒ" horiz-adv-x="712" d="M236 424H92l19 108h143l82 469q24 139 85.5 202t162.5 63q137 0 207-113l-101-76q-22 34-44 50t-60 16q-47 0-73-31t-40-115l-82-465h191l-19-108H373L221-434H84z"/><glyph glyph-name="circumflex" unicode="ˆ" horiz-adv-x="1015" d="M344 1016l324 395h20l193-395H768l-115 217-186-217H344z"/><glyph glyph-name="caron" unicode="ˇ" horiz-adv-x="1015" d="M604 997l-192 398h114l115-219 184 219h123L625 997h-21z"/><glyph glyph-name="breve" unicode="˘" horiz-adv-x="1017" d="M618 1001q-111 0-176 69t-73 171l114 19q10-69 40-107.5t95-38.5q126 0 162 146l115-21q-24-102-95-170t-182-68z"/><glyph glyph-name="dotaccent" unicode="˙" horiz-adv-x="1015" d="M639 1057q-37 0-65.5 27.5T545 1151t28.5 66.5T639 1245q36 0 64-27.5t28-66.5-28-66.5-64-27.5z"/><glyph glyph-name="ring" unicode="˚" horiz-adv-x="1017" d="M645 991q-89 0-151 60t-62 145q0 86 62 146.5t151 60.5 151-60.5 62-146.5q0-85-62-145t-151-60zm0 90q46 0 76.5 31.5T752 1196q0 53-30 84t-77 31-77.5-31-30.5-84q0-52 30.5-83.5T645 1081z"/><glyph glyph-name="ogonek" unicode="˛" horiz-adv-x="1017" d="M455-475q-78 0-134.5 46T264-301q0 112 123 231l72 70h104l-92-109q-51-62-71.5-100T379-295q0-38 24.5-61t61.5-23q25 0 45.5 12t30.5 24 28 38l84-51q-62-119-198-119z"/><glyph glyph-name="tilde" unicode="˜" horiz-adv-x="1003" d="M426 1008l-104 12q40 225 190 225 61 0 131-63 9-7 23-20t20.5-18.5 16-12 17.5-9 17-2.5q30 0 48.5 26.5T821 1243l105-12q-19-111-67.5-168T737 1006q-63 0-133 63-7 6-19.5 17.5t-17 16T554 1114t-14.5 9.5-12.5 4.5-15 2q-30 0-49.5-26.5T426 1008z"/><glyph glyph-name="hungarumlaut" unicode="˝" horiz-adv-x="1017" d="M655 1020l205 395h158l-250-395H655zm-280 0l205 395h157l-250-395H375z"/><glyph glyph-name="Delta" unicode="Δ" d="M219 387q-43 0-76.5 33.5T109 500t33 78 77 32q45 0 78-32t33-78q0-47-33-80t-78-33z"/><glyph glyph-name="Delta" unicode="∆" d="M219 387q-43 0-76.5 33.5T109 500t33 78 77 32q45 0 78-32t33-78q0-47-33-80t-78-33z"/><glyph glyph-name="Omega" unicode="Ω" d="M219 387q-43 0-76.5 33.5T109 500t33 78 77 32q45 0 78-32t33-78q0-47-33-80t-78-33z"/><glyph glyph-name="Omega" unicode="Ω" d="M219 387q-43 0-76.5 33.5T109 500t33 78 77 32q45 0 78-32t33-78q0-47-33-80t-78-33z"/><glyph glyph-name="pi" unicode="π" d="M219 387q-43 0-76.5 33.5T109 500t33 78 77 32q45 0 78-32t33-78q0-47-33-80t-78-33z"/><glyph glyph-name="endash" unicode="–" horiz-adv-x="784" d="M55 336l23 123h643l-21-123H55z"/><glyph glyph-name="emdash" unicode="—" horiz-adv-x="1241" d="M55 336l23 123h1100l-23-123H55z"/><glyph glyph-name="quoteleft" unicode="‘" horiz-adv-x="397" d="M313 973q-45 0-73.5 28.5T211 1075q0 41 35 99l141 219h78l-107-222q60-24 60-96 0-43-32-72.5T313 973z"/><glyph glyph-name="quoteright" unicode="’" horiz-adv-x="397" d="M205 987l104 221q-26 11-42.5 36.5T250 1305q0 43 31.5 72.5T354 1407q45 0 75-28.5t30-73.5q0-46-37-99L281 987h-76z"/><glyph glyph-name="quotesinglbase" unicode="‚" horiz-adv-x="397" d="M4-190L98 10q-59 25-59 96 0 43 31.5 73t72.5 30q46 0 75.5-28.5T248 106q0-40-35-98L82-190H4z"/><glyph glyph-name="quotedblleft" unicode="“" horiz-adv-x="718" d="M637 973q-45 0-75 28.5t-30 73.5q0 41 35 99l144 219h75l-104-222q59-25 59-96 0-43-31.5-72.5T637 973zm-324 0q-45 0-73.5 28.5T211 1075q0 41 35 99l141 219h78l-107-222q60-24 60-96 0-43-32-72.5T313 973z"/><glyph glyph-name="quotedblright" unicode="”" horiz-adv-x="718" d="M526 987l107 221q-60 24-60 97 0 43 32 72.5t73 29.5q45 0 73.5-28.5T780 1305q0-41-35-99L604 987h-78zm-321 0l104 221q-26 11-42.5 36.5T250 1305q0 43 31.5 72.5T354 1407q45 0 75-28.5t30-73.5q0-46-37-99L281 987h-76z"/><glyph glyph-name="quotedblbase" unicode="„" horiz-adv-x="720" d="M328-190l94 200q-60 24-60 96 0 43 32 73t73 30q45 0 74.5-29t29.5-74q0-39-36-98L403-190h-75zM4-190L98 10q-59 25-59 96 0 43 31.5 73t72.5 30q46 0 75.5-28.5T248 106q0-40-35-98L82-190H4z"/><glyph glyph-name="dagger" unicode="†" horiz-adv-x="686" d="M391 1063H201l20 117h191l39 213h129l-37-213h190l-20-117H522l-86-488H305z"/><glyph glyph-name="daggerdbl" unicode="‡" horiz-adv-x="686" d="M393 1071H201l20 109h191l39 213h129l-39-213h192l-20-109H522l-30-174h190l-16-109H473l-39-215H305l39 215H152l18 109h192z"/><glyph glyph-name="bullet" unicode="•" horiz-adv-x="565" d="M301 328q-77 0-134.5 56.5T109 520q0 82 57 138.5T301 715t135.5-56.5T494 520q0-79-58-135.5T301 328z"/><glyph glyph-name="ellipsis" unicode="…" horiz-adv-x="1216" d="M961-14q-42 0-75.5 31.5T852 94q0 46 33.5 78.5T961 205q43 0 74.5-32t31.5-79q0-45-31.5-76.5T961-14zm-408 0q-42 0-75.5 31.5T444 94q0 46 33.5 78.5T553 205q43 0 74.5-32T659 94q0-45-31.5-76.5T553-14zm-408 0q-42 0-75 31.5T37 94q0 46 33 78.5t75 32.5q43 0 75-32t32-79q0-45-32-76.5T145-14z"/><glyph glyph-name="perthousand" unicode="‰" horiz-adv-x="2293" d="M397 446q-123 0-207 81t-84 206q0 135 94.5 225.5T422 1049q123 0 207-80t84-203q0-139-94-229.5T397 446zM334 0l821 1032h143L477 0H334zm1573-16q-123 0-207 81t-84 205q0 135 94.5 224.5T1933 584q122 0 205.5-80t83.5-203q0-139-93-228t-222-89zm-701 0q-123 0-207 81t-84 205q0 134 94.5 224t221.5 90q123 0 207-80t84-203q0-139-93.5-228T1206-16zM397 555q81 0 136 58t55 151q0 82-45.5 128T422 938q-81 0-136-56.5T231 735q0-83 46.5-131.5T397 555zM1909 90q81 0 135.5 58.5T2099 299q0 82-46 129t-120 47q-81 0-136.5-57T1741 270q0-83 46.5-131.5T1909 90zm-703 0q81 0 136 58.5t55 150.5q0 82-46 129t-120 47q-81 0-136-57t-55-148q0-83 46.5-131.5T1206 90z"/><glyph glyph-name="guilsinglleft" unicode="‹" horiz-adv-x="489" d="M205 76L72 383v16l243 340h154L211 387 350 76H205z"/><glyph glyph-name="guilsinglright" unicode="›" horiz-adv-x="487" d="M16 76l258 354-139 309h146l133-305v-16L170 76H16z"/><glyph glyph-name="fraction" unicode="⁄" horiz-adv-x="813" d="M-59 0l821 1032h143L86 0H-59z"/><glyph glyph-name="fraction" unicode="∕" horiz-adv-x="813" d="M-59 0l821 1032h143L86 0H-59z"/><glyph glyph-name="Euro" unicode="€" horiz-adv-x="1234" d="M225 580H98l19 108h133q58 164 199 262.5t309 98.5q267 0 401-203l-108-74q-49 76-116.5 114T758 924q-119 0-215-63T401 688h463l-18-108H371q-6-37-6-82 0-38 2-54h454l-18-108H389q36-109 121.5-169.5T719 106q97 0 166.5 34T1018 242l96-78Q968-16 717-16q-177 0-304.5 95.5T240 336H55l19 108h147q-2 16-2 52 0 44 6 84z"/><glyph glyph-name="trademark" unicode="™" horiz-adv-x="1454" d="M758 784l110 619h17l229-332 348 332h17l-109-619h-108l67 383-225-227h-21l-147 229-68-385H758zm-328 516H250l16 93h471l-18-93H541l-90-516H340z"/><glyph glyph-name="partialdiff" unicode="∂" d="M219 387q-43 0-76.5 33.5T109 500t33 78 77 32q45 0 78-32t33-78q0-47-33-80t-78-33z"/><glyph glyph-name="product" unicode="∏" d="M219 387q-43 0-76.5 33.5T109 500t33 78 77 32q45 0 78-32t33-78q0-47-33-80t-78-33z"/><glyph glyph-name="summation" unicode="∑" horiz-adv-x="1603" d="M872-6q43-34 66-50.5t63.5-39.5 81.5-33 88-10q122 0 205 92l99-88q-112-137-304-137-50 0-100.5 13T988-233t-82.5 46.5-65.5 45T774-90q-57 43-94 67t-94.5 46T473 45q-148 0-248-149L125-23q91 136 240 173-103 88-160.5 217T147 651q0 217 100 391.5T516.5 1313t374.5 96q138 0 260-49t210.5-136 139.5-211.5 51-269.5q0-155-52-290t-142.5-231.5-216-156T872-6zm-59 119q168 0 303.5 82.5t211 227T1403 745q0 236-142.5 384.5T889 1278q-126 0-236.5-47.5T464 1100 341.5 900.5 297 651q0-237 142.5-387.5T813 113z"/><glyph glyph-name="minus" unicode="−" d="M219 387q-43 0-76.5 33.5T109 500t33 78 77 32q45 0 78-32t33-78q0-47-33-80t-78-33z"/><glyph glyph-name="radical" unicode="√" d="M219 387q-43 0-76.5 33.5T109 500t33 78 77 32q45 0 78-32t33-78q0-47-33-80t-78-33z"/><glyph glyph-name="integral" unicode="∫" d="M219 387q-43 0-76.5 33.5T109 500t33 78 77 32q45 0 78-32t33-78q0-47-33-80t-78-33z"/><glyph glyph-name="approxequal" unicode="≈" d="M219 387q-43 0-76.5 33.5T109 500t33 78 77 32q45 0 78-32t33-78q0-47-33-80t-78-33z"/><glyph glyph-name="lessequal" unicode="≤" d="M219 387q-43 0-76.5 33.5T109 500t33 78 77 32q45 0 78-32t33-78q0-47-33-80t-78-33z"/><glyph glyph-name="greaterequal" unicode="≥" d="M219 387q-43 0-76.5 33.5T109 500t33 78 77 32q45 0 78-32t33-78q0-47-33-80t-78-33z"/><glyph glyph-name="lozenge" unicode="◊" d="M219 387q-43 0-76.5 33.5T109 500t33 78 77 32q45 0 78-32t33-78q0-47-33-80t-78-33z"/><glyph glyph-name="plusminus" horiz-adv-x="1519" d="M762 729H401L238-201q-13-72-34-118.5T150-391t-70.5-34-91.5-9h-86l20 112h62q45 0 73.5 28T100-186l162 915H127l20 119h136l63 360q44 256 256 256 124 0 189-90l-91-86q-22 28-41.5 39.5T606 1339q-49 0-79-30t-44-109l-61-352h360l62 342q29 157 118.5 236t231.5 79q153 0 232-97t49-265l-168-965q-6-34 2.5-49.5T1346 113h92L1419 0h-108q-93 0-126 45t-16 143l168 963q21 112-19.5 172.5T1188 1384t-138.5-52-68.5-161l-57-323h209l-21-119H903L745-156q-12-72-33-118.5T658-346t-70.5-34-91.5-9h-80l20 113h58q44 0 72 27.5T608-143z"/><glyph glyph-name="apple" d="M219 387q-43 0-76.5 33.5T109 500t33 78 77 32q45 0 78-32t33-78q0-47-33-80t-78-33z"/><glyph glyph-name="infinity" horiz-adv-x="1529" d="M1417 1098q-39 0-67.5 27t-28.5 69 28.5 69 67.5 27q38 0 67-27.5t29-68.5q0-42-28.5-69t-67.5-27zM901 729L748-156q-12-72-33.5-118.5t-54-71.5-70.5-34-92-9h-80l20 113h58q44 0 72 27.5T610-143l152 872H401L238-201q-13-72-34-118.5T150-391t-70.5-34-91.5-9h-86l20 112h62q45 0 73.5 28T100-186l162 915H127l20 119h136l63 360q44 256 256 256 124 0 189-90l-91-86q-22 28-41.5 39.5T606 1339q-49 0-79-30t-44-109l-61-352h362l70 399q44 258 256 258 134 0 203-100l-96-82q-23 30-44.5 43.5T1114 1380q-48 0-78.5-31T991 1239l-67-391h501l-118-670q-5-34 3.5-49.5T1348 113h82L1411 0h-100q-92 0-125.5 45.5T1169 188l97 541H901z"/><glyph glyph-name="notequal" horiz-adv-x="1136" d="M762 729H401L238-201q-13-72-34-118.5T150-391t-70.5-34-91.5-9h-86l20 112h62q45 0 73.5 28T100-186l162 915H127l20 119h136l63 360q44 256 256 256 124 0 189-90l-91-86q-22 28-41.5 39.5T606 1339q-49 0-79-30t-44-109l-61-352h360l72 395q47 262 260 262 132 0 205-102l-96-82q-22 30-44.5 44.5T1118 1380q-51 0-82-31.5T991 1235l-67-387h219l-21-119H901L745-156q-12-72-33-118.5T658-346t-70.5-34-91.5-9h-80l20 113h58q44 0 72 27.5T608-143z"/></font>
</defs>
</svg>
