<svg xmlns="http://www.w3.org/2000/svg"><defs><font id="prefix__NeutraText-BoldItalic" horiz-adv-x="499"><font-face font-family="Neutra Text" font-weight="700" font-style="italic" units-per-em="2048" panose-1="2 0 0 0 0 0 0 0 0 0" ascent="1638" descent="-410" x-height="872" cap-height="1393" bbox="-281 -492 2460 1974" underline-thickness="40" underline-position="-312" slope="-12" unicode-range="U+000D-FB02"/><glyph glyph-name="fi" unicode="fi" horiz-adv-x="1181" d="M1036 1032q-66 0-112.5 45T877 1192q0 69 45.5 113.5T1034 1350q67 0 114.5-44.5T1196 1192q0-71-46.5-115.5T1036 1032zM516 649L367-199q-14-79-36-126.5t-61.5-71T186-427t-120-7H-76l39 203h82q25 0 37 10t18 41l146 829H102l39 223h144l55 312q29 161 109 241t231 80q76 0 131.5-22.5T920 1411l-158-178q-36 31-70 31-35 0-55-19t-29-67l-53-306h559l-108-618q-4-28 4.5-39.5T1042 203h62L1069 0H967q-62 0-103.5 6.5t-74 23T744 74t-18 72 9 106l70 397H516z"/><glyph glyph-name="fl" unicode="fl" horiz-adv-x="1181" d="M246 649H102l39 223h144l45 258q33 187 140 281t304 94q208 0 309.5-115.5T1149 1067l-143-813q-4-28 4.5-39.5T1042 203h78L1085 0H967q-62 0-103.5 6.5t-74 23T744 74t-18 72 9 106l146 827q18 101-13 148t-110 47q-75 0-111-40.5T596 1100l-41-228h190l-38-223H516L367-199q-14-79-36-126.5t-61.5-71T186-427t-120-7H-76l39 203h82q25 0 37 10t18 41z"/><glyph glyph-name="ff" unicode="ff" horiz-adv-x="1320" d="M805 649H516L367-199q-14-79-36-126.5t-61.5-71T186-427t-120-7H-76l39 203h82q25 0 37 10t18 41l146 829H102l39 223h144l49 271q29 160 109 240.5t227 80.5q124 0 200-67l-116-203q-37 29-72 29-32 0-51.5-19.5T602 1137l-47-265h289l55 312q29 160 112 240.5t234 80.5q163 0 256-110l-158-178q-32 47-86 47-74 0-90-86l-53-306h225l-39-223h-225L934-147q-14-79-36-126.5T836.5-345 753-376t-120-7H508l39 203h65q25 0 37.5 10t18.5 41z"/><glyph glyph-name="ffi" unicode="ffi" horiz-adv-x="1740" d="M1595 1032q-66 0-112.5 45t-46.5 115q0 69 45.5 113.5T1593 1350q67 0 114.5-44.5T1755 1192q0-71-46.5-115.5T1595 1032zm-520-383L934-147q-14-79-36-126.5T836.5-345 753-376t-120-7H508l39 203h65q25 0 37.5 10t18.5 41l137 778H516L367-199q-14-79-36-126.5t-61.5-71T186-427t-120-7H-76l39 203h82q25 0 37 10t18 41l146 829H102l39 223h144l49 271q29 160 109 240.5t227 80.5q124 0 200-67l-116-203q-37 29-72 29-32 0-51.5-19.5T602 1137l-47-265h289l55 312q29 161 109 241t231 80q76 0 131.5-22.5T1479 1411l-158-178q-36 31-70 31-35 0-55-19t-29-67l-55-306h561l-108-618q-4-27 4.5-39t32.5-12h61L1628 0h-102q-62 0-103.5 6.5t-74 23T1303 74t-18 72 9 106l70 397h-289z"/><glyph glyph-name="ffl" unicode="ffl" horiz-adv-x="1740" d="M805 649H516L367-199q-14-79-36-126.5t-61.5-71T186-427t-120-7H-76l39 203h82q25 0 37 10t18 41l146 829H102l39 223h144l49 271q29 160 109 240.5t227 80.5q134 0 211-71l-127-199q-37 29-72 29-32 0-51.5-19.5T602 1137l-47-265h289l45 258q33 187 140 281t304 94q208 0 309.5-115.5T1708 1067l-143-813q-4-27 4.5-39t32.5-12h77L1645 0h-119q-62 0-103.5 6.5t-74 23T1303 74t-18 72 9 106l146 827q18 101-13 148t-110 47q-75 0-111-40.5t-51-133.5l-41-228h191l-39-223h-191L934-147q-14-79-36-126.5T836.5-345 753-376t-120-7H508l39 203h65q25 0 37.5 10t18.5 41z"/><glyph glyph-name=".notdef" horiz-adv-x="1024"/><glyph glyph-name=".notdef" horiz-adv-x="1024"/><glyph glyph-name=".null" horiz-adv-x="0"/><glyph glyph-name="nonmarkingreturn" horiz-adv-x="682"/><glyph glyph-name="CR" horiz-adv-x="421"/><glyph glyph-name="space" horiz-adv-x="421"/><glyph glyph-name="exclam" unicode="!" horiz-adv-x="550" d="M168 473l129 920h303L377 473H168zm61-485q-69 0-117.5 48T63 158q0 72 48.5 121T229 328t118.5-49T397 158q0-73-49.5-121.5T229-12z"/><glyph glyph-name="quotedbl" unicode="&quot;" horiz-adv-x="819" d="M569 887l58 506h293L791 887H569zm-385 0l60 506h288L406 887H184z"/><glyph glyph-name="numbersign" unicode="#" horiz-adv-x="972" d="M285 862H145l37 207h154l51 199h211l-51-199h145l51 199h211l-51-199h119l-37-207H852l-39-157h143l-36-207H762l-51-207H500l51 207H406l-52-207H143l52 207H80l37 207h129zm356 0H496l-39-157h145z"/><glyph glyph-name="dollar" unicode="$" horiz-adv-x="974" d="M330-6Q195 19 111 90T-16 250l211 106q57-117 172-153l41 237q-165 55-233.5 137T106 778q0 145 107.5 227t280.5 82h26l37 205h133l-39-223q170-43 258-176L723 764q-40 71-109 98l-36-209q165-54 247-136.5T907 307q0-111-60.5-186t-158-107T461-18l-39-220H289zm155 893q-131-5-131-92 0-35 22.5-59t76.5-44zm11-699q78 6 116.5 33t38.5 68q0 39-25 64.5T535 401z"/><glyph glyph-name="percent" unicode="%" horiz-adv-x="1794" d="M436 444q-142 0-232.5 91T113 758q0 145 96.5 237t236.5 92q143 0 233.5-88T770 780q0-145-97.5-240.5T436 444zM358 0l859 1069h260L618 0H358zm1031-18q-142 0-233 90.5T1065 295q0 145 97 237.5t237 92.5q143 0 233-88.5t90-219.5q0-145-97-240t-236-95zM438 643q45 0 77 36.5t32 92.5q0 57-29 87t-72 30q-46 0-77-34.5T338 760q0-53 29-85t71-32zm953-463q45 0 76.5 36.5T1499 309q0 57-28.5 87t-71.5 30q-46 0-77.5-35t-31.5-94q0-53 29.5-85t71.5-32z"/><glyph glyph-name="ampersand" unicode="&amp;" horiz-adv-x="1394" d="M791 750l174-277q64 116 82 266h247q-37-288-190-483 24-27 70-27h118L1251 0h-112q-82 0-136 19t-98 61Q743-18 563-18q-120 0-216 30.5T190.5 97 98 221 66 373q0 145 91.5 248T432 807q-65 125-65 262 0 152 104 246t281 94q146 0 240.5-86.5T1087 1104q0-220-296-354zM690 907q156 72 156 183 0 45-27 76.5t-69 31.5q-52 0-83.5-35.5T635 1071q0-78 47-151zm76-635L532 641q-89-49-129.5-109.5T362 393q0-74 53.5-122T561 223q114 0 205 49z"/><glyph glyph-name="quotesingle" unicode="'" horiz-adv-x="432" d="M184 887l60 506h288L406 887H184z"/><glyph glyph-name="parenleft" unicode="(" horiz-adv-x="690" d="M356-272Q251-137 181 45.5T111 434q0 116 18 224t47.5 194 73.5 167.5 89.5 143 103 122 106 102.5 106.5 86l127-146Q391 971 391 430q0-326 146-592z"/><glyph glyph-name="parenright" unicode=")" horiz-adv-x="690" d="M102-272L-29-127q391 356 391 897 0 328-145 592l180 111q105-135 175.5-318T643 766q0-161-34.5-305.5t-86-248T394 11.5 251-147 102-272z"/><glyph glyph-name="asterisk" unicode="*" horiz-adv-x="847" d="M389 733l86 234-184-148-94 211 233 41-223 86 135 189 152-183-41 230h239l-86-234 180 156 95-215-236-41 225-86-135-187-147 177 41-230H389z"/><glyph glyph-name="plus" unicode="+" horiz-adv-x="825" d="M535 436l-41-229H260l41 229H82l41 226h217l41 229h233l-41-229h218l-41-226H535z"/><glyph glyph-name="comma" unicode="," horiz-adv-x="491" d="M-2-233L125 10Q35 61 35 162q0 70 48.5 118T201 328t117.5-49T367 158q0-45-18-83.5T295-12L133-233H-2z"/><glyph glyph-name="hyphen" unicode="-" horiz-adv-x="598" d="M59 377l43 237h463l-43-237H59z"/><glyph glyph-name="hyphen" unicode="­" horiz-adv-x="598" d="M59 377l43 237h463l-43-237H59z"/><glyph glyph-name="period" unicode="." horiz-adv-x="491" d="M201-12q-69 0-117.5 48T35 158q0 72 48.5 121T201 328t117.5-49T367 158q0-74-48.5-122T201-12z"/><glyph glyph-name="slash" unicode="/" horiz-adv-x="811" d="M-150-262l865 1741h268L119-262h-269z"/><glyph glyph-name="zero" unicode="0" horiz-adv-x="1253" d="M629-18q-111 0-210.5 40T246 132.5t-115.5 171T88 520q0 131 50.5 240.5t133 179.5T456 1048.5t210 38.5q149 0 272-68t195.5-192 72.5-278q0-131-50-240.5T1023.5 129t-185-108.5T629-18zm6 239q123 0 204 86t81 242q0 137-72 218t-189 81q-122 0-203-87.5T375 520q0-137 71.5-218T635 221z"/><glyph glyph-name="one" unicode="1" horiz-adv-x="657" d="M172 0l150 846H125l39 223h471L446 0H172z"/><glyph glyph-name="two" unicode="2" horiz-adv-x="972" d="M-14 0v25l452 426q117 109 159 165t42 117q0 48-28.5 80.5T524 846q-61 0-101-36t-71-110l-250 64q54 169 170 246t267 77q95 0 170-27.5t119.5-74 67-103.5T918 762q0-77-29-144.5t-77-124T676 354l-74-69q-16-16-42.5-33.5T514 224l-18-9q75 10 116 10h265L838 0H-14z"/><glyph glyph-name="three" unicode="3" horiz-adv-x="1042" d="M449-211q-187 0-309 81.5T-35 74l244 121q31-73 89-119.5T442 29q90 0 152.5 54.5T657 242q0 93-64 153t-167 60q-88 0-172-39l-16 24 280 324q20 23 45 46.5t40 35.5l15 12q-78-10-135-10H186l39 221h817v-22L745 702q-16-19-38-38.5T671 634l-14-9q52-12 100.5-41t92-75 70-116.5T946 238q0-92-32.5-173t-94-143-157-97.5T449-211z"/><glyph glyph-name="four" unicode="4" horiz-adv-x="1112" d="M864 205h142L969 0H827l-32-193H522L557 0H-25L8 188l983 893h29zm-270 0l33 188q4 20 14 54t19 57l8 24q-54-61-97-100L399 272q-20-18-44.5-36.5T316 208l-15-9q56 6 113 6h180z"/><glyph glyph-name="five" unicode="5" horiz-adv-x="993" d="M416-211q-175 0-290 79T-35 66l248 110q23-61 70.5-104T406 29q100 0 149 53.5T604 227q0 84-56.5 140.5T387 424q-117 0-240-80l-16 10 125 715h688l-39-221H451l-37-213q40 10 82 10 120 0 212.5-56T849 441t48-203q0-193-128.5-321T416-211z"/><glyph glyph-name="six" unicode="6" horiz-adv-x="1071" d="M522-18q-196 0-324 121T70 414q0 111 53 212.5T276 840l365 407h317L649 903q-21-23-64.5-53T508 801l-33-19q68 31 156 31 151 0 260.5-110.5T1001 420q0-136-64.5-236.5T764 32.5 522-18zm8 237q87 0 139 57.5T721 420q0 81-49 134.5T541 608q-87 0-140-56.5T348 410q0-81 50-136t132-55z"/><glyph glyph-name="seven" unicode="7" horiz-adv-x="983" d="M27-193L639 848H137l39 221h871v-22L319-193H27z"/><glyph glyph-name="eight" unicode="8" horiz-adv-x="1083" d="M375 735q-118 78-115 215 0 126 104 221t277 95q164 0 269.5-92T1016 952q0-98-58-161.5T809 694q93-47 146.5-126.5T1008 379q0-178-129.5-287.5T532-18Q330-18 196.5 97T63 381q0 144 84.5 232.5T375 735zm260 78q48 0 80.5 33.5T748 932q0 49-29.5 80.5T637 1044q-49 0-82-31.5T522 930q0-49 30.5-83t82.5-34zM532 217q87 0 140 57t53 144q0 79-50 133.5T543 606q-87 0-140-59t-53-146q0-79 49.5-131.5T532 217z"/><glyph glyph-name="nine" unicode="9" horiz-adv-x="1071" d="M147-193l320 351q27 30 71 64t74 52l31 19q-67-37-158-37-153 0-263.5 108.5T111 645q0 201 136 321.5T586 1087q199 0 327.5-119T1042 655q0-118-60-228.5T815 197L469-193H147zm424 654q88 0 140.5 57.5T764 662q0 84-49 136t-133 52q-88 0-139.5-57.5T391 649q0-83 48.5-135.5T571 461z"/><glyph glyph-name="colon" unicode=":" horiz-adv-x="503" d="M289 463q-69 0-117.5 48T123 633q0 73 48.5 121.5T289 803t117.5-48.5T455 633q0-74-48.5-122T289 463zM207-12q-69 0-117.5 48T41 158q0 72 48.5 121T207 328t117.5-49T373 158q0-74-48.5-122T207-12z"/><glyph glyph-name="semicolon" unicode=";" horiz-adv-x="503" d="M289 463q-69 0-117.5 48T123 633q0 73 48.5 121.5T289 803t117.5-48.5T455 633q0-74-48.5-122T289 463zM4-233L131 10Q41 61 41 162q0 70 48.5 118T207 328t117.5-49T373 158q0-45-18-83.5T301-12L139-233H4z"/><glyph glyph-name="semicolon" unicode=";" horiz-adv-x="503" d="M289 463q-69 0-117.5 48T123 633q0 73 48.5 121.5T289 803t117.5-48.5T455 633q0-74-48.5-122T289 463zM4-233L131 10Q41 61 41 162q0 70 48.5 118T207 328t117.5-49T373 158q0-45-18-83.5T301-12L139-233H4z"/><glyph glyph-name="less" unicode="&lt;" horiz-adv-x="718" d="M598 147L63 487v23l658 338-43-246-254-115 213-114z"/><glyph glyph-name="equal" unicode="=" horiz-adv-x="813" d="M98 571l41 236h670l-41-236H98zM39 236l43 235h670l-43-235H39z"/><glyph glyph-name="greater" unicode="&gt;" horiz-adv-x="718" d="M27 147l43 246 254 115-213 115 39 225 534-340v-23z"/><glyph glyph-name="question" unicode="?" horiz-adv-x="1030" d="M412 473l57 326h72q120 0 178.5 55.5T778 999q0 75-44 122.5T614 1169q-126 0-211-133l-208 123q57 109 169.5 179.5T618 1409q205 0 319-117.5T1051 997q0-163-104-269.5T686 600l-22-127H412zm75-485q-69 0-117 48t-48 122q0 73 48.5 121.5T487 328q69 0 118.5-49T655 158q0-73-49.5-121.5T487-12z"/><glyph glyph-name="at" unicode="@" horiz-adv-x="1835" d="M918-424q-194 0-354 60.5t-267.5 167-166 253T72 373q0 157 46.5 296t129 243.5 193 180 242 114T956 1245q187 0 341.5-58.5t257-159.5T1713 791t56-287q0-256-111-384T1356-8q-104 0-174 46.5T1085 154q-40-85-107.5-128.5T831-18Q678-18 581.5 90T485 371q0 192 106.5 311T848 801q173 0 244-160l18 139h258l-80-448q-28-150 80-150 74 0 124 78.5t50 249.5q0 168-77 289.5t-208 182-301 60.5q-183 0-329-83T398 722.5 315 371q0-268 159-430t448-162q165 0 313 49l72-186q-155-66-389-66zm-11 623q63 0 104.5 58t41.5 144q0 73-38.5 126T918 580q-70 0-112-53.5T764 375q0-85 38.5-130.5T907 199z"/><glyph glyph-name="A" unicode="A" horiz-adv-x="1333" d="M346 162L250 0H-31l848 1405h23L1217 0H932l-41 162H346zm488 223l-64 252q-13 49-21.5 106.5T738 834l-3 32q-40-116-106-227L479 385h355z"/><glyph glyph-name="B" unicode="B" horiz-adv-x="1224" d="M66 0l245 1393h459q177 0 276-98t99-251q0-103-56.5-181.5T920 750q104-34 165.5-114.5T1147 446q0-200-136-323T653 0H66zm434 874h205q73 0 116 39.5t43 110.5q0 56-35 90.5t-94 34.5H549zM389 244h252q101 0 159 56.5T858 457q0 87-47 134.5T672 639H459z"/><glyph glyph-name="C" unicode="C" horiz-adv-x="1447" d="M805-18q-188 0-341 91T225 321t-86 347q0 158 59.5 297T358 1200.5 592.5 1353t281.5 56q198 0 327-69.5t229-217.5l-230-149q-116 186-334 186-190 0-312-142.5T432 666q0-190 110-312.5T815 231q213 0 342 160l211-162q-101-119-235.5-183T805-18z"/><glyph glyph-name="D" unicode="D" horiz-adv-x="1366" d="M66 0l245 1393h365q306 0 479.5-174T1329 750q0-231-101-402T949.5 88.5 541 0H66zm323 246h158q122 0 216.5 39t154 108.5 90 163T1038 762q0 181-99 283t-298 102h-92z"/><glyph glyph-name="E" unicode="E" horiz-adv-x="1179" d="M66 0l245 1393h903l-43-246H547l-80-451h547l-43-241H424l-37-209h653L995 0H66z"/><glyph glyph-name="F" unicode="F" horiz-adv-x="1110" d="M66 0l245 1393h879l-43-246H549l-82-467h543l-45-250H422L346 0H66z"/><glyph glyph-name="G" unicode="G" horiz-adv-x="1529" d="M862-18q-221 0-384 87.5T231 312t-84 358q0 165 61 305.5T372 1210t238 146.5 283 52.5q186 0 303-45.5t209-136.5l-197-191q-127 123-321 123-195 0-323-132.5T436 672q0-205 112-324t318-119q143 0 260 54l39 219H836l43 243h585l-108-620Q1149-18 862-18z"/><glyph glyph-name="H" unicode="H" horiz-adv-x="1423" d="M1049 680l127 713h280L1210 0H930l76 432H422L346 0H66l245 1393h281L467 680h582z"/><glyph glyph-name="I" unicode="I" horiz-adv-x="575" d="M74 0l245 1393h281L354 0H74z"/><glyph glyph-name="J" unicode="J" horiz-adv-x="995" d="M406-18q-155 0-259.5 76T-2 246l244 133q32-70 69-108t101-38q71 0 111 38.5T582 418l172 975h280L856 383Q819 168 708.5 75T406-18z"/><glyph glyph-name="K" unicode="K" horiz-adv-x="1302" d="M426 641q120 195 195 279l423 473h326L795 754 1198 0H887L586 567 416 395 346 0H66l245 1393h281l-80-451q-17-103-86-301z"/><glyph glyph-name="L" unicode="L" horiz-adv-x="1114" d="M66 0l245 1393h281L389 246h619L965 0H66z"/><glyph glyph-name="M" unicode="M" horiz-adv-x="1658" d="M66 0l247 1407h21l522-758 811 758h25L1444 0h-268l92 522q7 42 21 105.5t24 106.5l10 42q-94-129-176-207L821 260h-22L582 569q-24 35-55.5 86.5T476 742l-19 34q-15-160-31-254L334 0H66z"/><glyph glyph-name="N" unicode="N" horiz-adv-x="1398" d="M1157-12L592 666q-28 35-60 85t-50 83l-19 32q-9-158-27-256L328 0H66l247 1405h27l567-680q28-34 60.5-84t50.5-83l18-34q7 147 25 256l108 613h263L1184-12h-27z"/><glyph glyph-name="O" unicode="O" horiz-adv-x="1597" d="M815-18q-142 0-267 51.5t-215 142T191 395t-52 277q0 166 59.5 306t161 233.5 236 145.5 283.5 52q142 0 267-51.5t215.5-142T1504 996t52-277q0-133-38.5-250T1410 263.5 1248.5 111 1045 14.5 815-18zm10 249q201 0 322 135t121 359q0 196-111 315t-287 119q-201 0-321.5-134.5T428 666q0-196 110.5-315.5T825 231z"/><glyph glyph-name="P" unicode="P" horiz-adv-x="1193" d="M401 317L346 0H66l245 1393h336q262 0 409.5-136.5T1204 891q0-269-178-421.5T545 317H401zm43 244h109q183 0 272.5 85.5T915 891q0 258-292 258h-74z"/><glyph glyph-name="Q" unicode="Q" horiz-adv-x="1597" d="M1329 182l154-200-209-162-168 219Q984-18 815-18q-142 0-267 51.5t-215 142T191 395t-52 277q0 166 59.5 306t161 233.5 236 145.5 283.5 52q142 0 267-51.5t215.5-142T1504 996t52-277q0-161-60-298t-167-239zm-377 58L811 426l209 162 156-205q92 124 92 342 0 196-111 315t-287 119q-201 0-321.5-134.5T428 666q0-197 110.5-319T825 225q69 0 127 15z"/><glyph glyph-name="R" unicode="R" horiz-adv-x="1232" d="M872 418L1094 0H799L614 348q-20-2-63-2H408L346 0H66l245 1393h310q269 0 419-130.5T1190 897q0-163-80-292.5T872 418zM449 588h106q346 0 346 309 0 133-78 192.5T592 1149h-45z"/><glyph glyph-name="S" unicode="S" horiz-adv-x="1077" d="M514-18q-181 0-317.5 85T2 264l221 150q49-80 121.5-133.5T514 227q88 0 143.5 40.5T713 375q0 55-35.5 91.5T539 571l-66 43q-137 89-199.5 183.5T211 1024q0 80 27.5 148.5t80 122 136.5 84 190 30.5q241 0 379-174l-201-172q-43 53-86.5 78.5T631 1167q-70 0-107-37.5t-37-93.5q0-51 31.5-89T631 858l67-43q78-50 127-89t92-89 62.5-109.5T999 395q0-134-65-229T761.5 26.5 514-18z"/><glyph glyph-name="T" unicode="T" horiz-adv-x="1177" d="M377 0l203 1147H188l43 246h1061l-43-246H862L659 0H377z"/><glyph glyph-name="U" unicode="U" horiz-adv-x="1370" d="M662-18q-125 0-228 41T262 137t-97.5 181-6.5 235l147 840h283L436 532q-26-147 36-224t204-77q128 0 198 67t95 206l157 889h283l-166-934q-42-236-192.5-356.5T662-18z"/><glyph glyph-name="V" unicode="V" horiz-adv-x="1325" d="M608-12L211 1393h285l141-523q16-57 31-145t22-147l8-60q88 213 160 338l309 537h291L637-12h-29z"/><glyph glyph-name="W" unicode="W" horiz-adv-x="1912" d="M473-12L211 1393h291l92-541q8-48 16-118.5T622 617l3-46q65 161 131 263l362 571h29l151-555q13-45 27.5-115t22.5-117l8-47q55 163 108 263l295 559h287L1296-12h-26l-180 655q-11 41-22 101.5T1052 845l-5 40q-64-142-117-226L500-12h-27z"/><glyph glyph-name="X" unicode="X" horiz-adv-x="1314" d="M-27 0l582 766-260 627h303l90-226q15-36 30.5-92t23.5-93l8-38q61 131 118 209l179 240h305L877 764 1194 0H891L748 358q-15 36-31 93t-25 96l-8 39q-68-137-127-215L279 0H-27z"/><glyph glyph-name="Y" unicode="Y" horiz-adv-x="1359" d="M557 444l-348 949h297l160-449q16-47 32.5-116T723 714l8-46q76 174 148 276l311 449h305L840 457 760 0H479z"/><glyph glyph-name="Z" unicode="Z" horiz-adv-x="1218" d="M4 0v25l797 1124H283l43 244h946v-25L473 244h596L1026 0H4z"/><glyph glyph-name="bracketleft" unicode="[" horiz-adv-x="675" d="M0-262l307 1741h496l-39-228H539L311-35h226l-41-227H0z"/><glyph glyph-name="backslash" unicode="\" horiz-adv-x="811" d="M465-262L201 1479h254L719-262H465z"/><glyph glyph-name="bracketright" unicode="]" horiz-adv-x="675" d="M-61-262l41 227h225l227 1286H207l39 228h495L434-262H-61z"/><glyph glyph-name="asciicircum" unicode="^" horiz-adv-x="880" d="M197 915l407 492h21l235-492H651l-92 156-141-156H197z"/><glyph glyph-name="underscore" unicode="_" horiz-adv-x="567" d="M-125-262l43 239h576l-43-239h-576z"/><glyph glyph-name="grave" unicode="`" horiz-adv-x="1003" d="M463 1024l-187 385h312l80-385H463z"/><glyph glyph-name="a" unicode="a" horiz-adv-x="1089" d="M410-18Q265-18 166.5 97T68 399q0 227 119.5 359.5T481 891q199 0 281-158l18 139h271L942 254q-4-27 4.5-39t32.5-12h61L1006 0H903q-71 0-117.5 8.5T715 35t-33.5 36.5T666 121l-2 10Q610 52 553.5 17T410-18zm108 233q86 0 139.5 66.5T711 453q0 94-43.5 148T543 655q-89 0-141-66t-52-177q0-92 44.5-144.5T518 215z"/><glyph glyph-name="b" unicode="b" horiz-adv-x="1097" d="M623-18q-210 0-299 180L303 0H33l260 1479h270L436 756q100 135 248 135 151 0 251.5-115T1036 473q0-111-33.5-204.5T912 113 780 16.5 623-18zm-72 233q93 0 148 66.5T754 459q0 92-48 144t-131 52q-90 0-146-66t-56-171q0-93 47-148t131-55z"/><glyph glyph-name="c" unicode="c" horiz-adv-x="931" d="M530-18q-203 0-330.5 122T72 428q0 204 137 333.5T553 891q242 0 367-174L721 561q-59 94-170 94-90 0-144.5-63.5T352 428t45-156.5T530 215q55 0 92.5 17.5T696 281l156-179Q732-18 530-18z"/><glyph glyph-name="d" unicode="d" horiz-adv-x="1110" d="M420-18Q270-18 169 96.5T68 399q0 227 123 359.5T492 891q197 0 286-148l129 736h271L963 254q-4-28 4.5-39.5T999 203h62L1026 0H924q-58 0-99.5 6.5T758 23t-40.5 27-22 34-9.5 41l-2 14Q596-18 420-18zm108 233q90 0 146.5 66.5T731 453q0 93-47 147.5T553 655q-93 0-148-66t-55-177q0-92 47.5-144.5T528 215z"/><glyph glyph-name="e" unicode="e" horiz-adv-x="1054" d="M354 332q45-129 215-129 114 0 207 73l164-172Q793-18 567-18q-232 0-362.5 125T74 430q0 206 134.5 333.5T543 891q222 0 334.5-131T1001 401zm-10 151l363 39q-5 72-46.5 113T545 676q-180 0-201-193z"/><glyph glyph-name="f" unicode="f" horiz-adv-x="761" d="M246 649H102l39 223h144l55 312q29 160 112 240.5t234 80.5q163 0 256-110l-158-178q-32 47-86 47-74 0-90-86l-53-306h225l-39-223H516L367-199q-14-79-36-126.5t-61.5-71T186-427t-120-7H-76l39 203h82q25 0 37 10t18 41z"/><glyph glyph-name="g" unicode="g" horiz-adv-x="1095" d="M406-455q-146 0-256 50T-18-287l180 174q98-112 246-112 199 0 241 227l21 115Q624 52 566 17T422-18Q272-18 171 96.5T70 399q0 227 123 359.5T494 891q208 0 290-158l19 139h270L913-37q-38-219-172-318.5T406-455zm124 670q90 0 146.5 66.5T733 453q0 93-47 147.5T555 655q-93 0-148-66t-55-177q0-92 47.5-144.5T530 215z"/><glyph glyph-name="h" unicode="h" horiz-adv-x="1075" d="M33 0l260 1479h270L430 723q54 85 120 126.5T707 891q144 0 219-113t43-295l-41-229q-4-27 4.5-39t32.5-12h61L991 0h-88Q757 0 695.5 59T659 262l37 213q15 87-17.5 131.5T573 651q-81 0-125-42t-61-136L303 0H33z"/><glyph glyph-name="i" unicode="i" horiz-adv-x="532" d="M389 1024q-69 0-118.5 47.5T221 1192q0 72 48.5 119t117.5 47q70 0 120-47t50-119q0-74-49-121t-119-47zM319 0q-62 0-103 6.5t-74 23T96.5 74 79 146t9 106l109 620h270L358 254q-4-27 4.5-39t32.5-12h62L422 0H319z"/><glyph glyph-name="j" unicode="j" horiz-adv-x="526" d="M389 1024q-69 0-118.5 47.5T221 1192q0 72 48.5 119t117.5 47q70 0 120-47t50-119q0-74-49-121t-119-47zM-35-455q-158 0-246 99l140 168q34-37 84-37 61 0 73 75L197 872h270L289-139Q234-455-35-455z"/><glyph glyph-name="k" unicode="k" horiz-adv-x="1005" d="M348 256L303 0H33l260 1479h270L430 725q-15-88-49-199l330 346h307L664 510l127-256q17-33 30-42t39-9h64L889 0h-98q-57 0-95.5 9t-67 33.5T582 95t-43 79l-86 174z"/><glyph glyph-name="l" unicode="l" horiz-adv-x="532" d="M319 0q-62 0-103 6.5t-74 23T96.5 74 79 146t9 106l215 1227h270L358 254q-4-27 4.5-39t32.5-12h78L438 0H319z"/><glyph glyph-name="m" unicode="m" horiz-adv-x="1585" d="M33 0l153 872h271l-31-141q54 83 116.5 121.5T694 891q82 0 142-43.5T924 727q109 164 301 164 145 0 215.5-112t38.5-296l-41-229q-4-27 4.5-39t32.5-12h61L1501 0h-102q-62 0-103.5 6.5t-74 23T1176 74t-18 72 9 106l39 223q30 176-100 176-76 0-115.5-41.5T934 473L850 0H580l84 475q30 176-103 176-77 0-117-41.5T387 473L303 0H33z"/><glyph glyph-name="n" unicode="n" horiz-adv-x="1075" d="M33 0l153 872h271l-33-157q107 176 283 176 144 0 219-113t43-295l-41-229q-4-27 4.5-39t32.5-12h61L991 0H889q-62 0-103.5 6.5t-74 23T666 74t-18 72 9 106l39 223q15 87-17.5 131.5T573 651q-81 0-125-42t-61-136L303 0H33z"/><glyph glyph-name="o" unicode="o" horiz-adv-x="1085" d="M532-18q-195 0-327.5 125.5T72 424q0 208 139 337.5T557 891q196 0 328.5-125.5T1018 446q0-208-139.5-336T532-18zm9 229q91 0 144.5 65.5T739 449q0 95-51 151.5T549 657q-91 0-145-65t-54-172q0-95 51.5-152T541 211z"/><glyph glyph-name="p" unicode="p" horiz-adv-x="1097" d="M-43-434L186 872h271l-29-127q107 146 256 146 151 0 251.5-115T1036 473q0-111-33.5-204.5T912 113 780 16.5 623-18q-203 0-293 170L227-434H-43zm594 649q93 0 148 66.5T754 459q0 92-48 144t-131 52q-90 0-146-66t-56-171q0-93 47-148t131-55z"/><glyph glyph-name="q" unicode="q" horiz-adv-x="1103" d="M846-434q-62 0-103.5 6.5t-74 23T623-360t-18 72 9 106l54 299Q622 52 564 17T420-18Q270-18 169 96.5T68 399q0 227 123 359.5T492 891q208 0 290-158l19 139h270L885-180q-4-27 4.5-39t32.5-12h61l-35-203H846zM528 215q90 0 146.5 66.5T731 453q0 93-47 147.5T553 655q-93 0-148-66t-55-177q0-92 47.5-144.5T528 215z"/><glyph glyph-name="r" unicode="r" horiz-adv-x="776" d="M33 0l153 872h271l-35-167q60 105 125 145.5T690 891q67 0 131-35L719 608q-48 29-113 29-97 0-153.5-54T371 387L303 0H33z"/><glyph glyph-name="s" unicode="s" horiz-adv-x="845" d="M381-18q-129 0-224.5 48.5T8 162l187 131q37-53 82-76.5T387 193q105 0 105 53 0 8-2 14t-8.5 12-13 10.5-22 11.5-29.5 13-40 17-49 22q-97 45-148 106t-51 158q0 133 91 207t237 74q193 0 305-129L586 614q-28 35-56 52.5T457 684q-36 0-58-14.5T377 631q0-23 25-39t100-49q63-27 101.5-49t75-55 53-78T748 256q0-125-94.5-199.5T381-18z"/><glyph glyph-name="t" unicode="t" horiz-adv-x="741" d="M229 649H102l39 223h127l80 455h268l-79-455h211l-39-223H498l-58-330q-11-62 3-85t49-23q42 0 94 31l86-191Q629 19 577.5.5T444-18q-54 0-98.5 10.5t-85 34.5T198 90.5 166 189t6 139z"/><glyph glyph-name="u" unicode="u" horiz-adv-x="1081" d="M360-18Q215-18 140.5 94.5T98 389l84 483h273l-84-475q-15-87 17.5-131.5T494 221q81 0 125 42t61 136l84 473h270L926 254q-4-27 4.5-39t32.5-12h61L989 0H887q-58 0-99.5 6.5T721 23t-40.5 27-22 34-9.5 41l-2 14Q588 56 521 19T360-18z"/><glyph glyph-name="v" unicode="v" horiz-adv-x="980" d="M451-18L96 872h283l90-254q14-37 26.5-89.5T514 442l6-34q49 128 96 210l144 254h282L477-18h-26z"/><glyph glyph-name="w" unicode="w" horiz-adv-x="1382" d="M385-23L98 872h283l74-249q9-33 19-79.5t16-77.5l6-30q49 115 94 187l172 272h20l113-272q14-32 27-79t20-78l6-30q49 117 86 187l131 249h279L936-23h-23L774 326q-11 27-22.5 70.5T734 470l-5 30q-37-101-78-160L408-23h-23z"/><glyph glyph-name="x" unicode="x" horiz-adv-x="1024" d="M-41 0l397 457-215 415h297l47-108q9-21 20.5-58.5T524 641l8-27q41 103 78 148l90 110h308L666 479 915 0H616l-67 143q-14 28-30 72.5T494 291l-9 31q-49-117-96-172L264 0H-41z"/><glyph glyph-name="y" unicode="y" horiz-adv-x="1060" d="M373-455q-260 0-396 168l179 172q86-112 225-112 186 0 225 209l25 135Q575 46 511 14T360-18Q215-18 140.5 94.5T98 389l84 483h273l-84-475q-15-87 17.5-131.5T494 221q81 0 125 42t61 136l84 473h270L872-49q-37-209-167-307.5T373-455z"/><glyph glyph-name="z" unicode="z" horiz-adv-x="894" d="M-2 0v23l459 628H129l39 221h741v-22L451 221h335L748 0H-2z"/><glyph glyph-name="braceleft" unicode="{" horiz-adv-x="831" d="M494-262q-64 0-118 17t-96.5 52.5-60 99T217 55l47 273q12 72-6 98.5T184 453H57l41 227h121q63 0 89.5 27T352 825l66 369q28 154 106.5 219.5T729 1479h227l-38-228H772q-39 0-57.5-18t-24.5-57l-72-412q-19-110-72.5-152.5T393 557q87-13 126.5-69T541 330L489 39q-7-37 5-55.5T549-35h141l-41-227H494z"/><glyph glyph-name="bar" unicode="|" horiz-adv-x="557" d="M27-262l307 1741h260L287-262H27z"/><glyph glyph-name="braceright" unicode="}" horiz-adv-x="831" d="M-68-262l39 227h146q39 0 57.5 18T199 41l57 326q19 110 72.5 152T481 573q-86 12-125.5 69T334 801l65 377q7 37-4.5 55t-54.5 18H199l41 228h155q64 0 118-17t96.5-53 60-99.5T672 1161l-64-358q-13-72 6-98.5t76-26.5h127l-41-227H655q-63 0-90.5-28T520 305L471 23q-26-152-105.5-218.5T160-262H-68z"/><glyph glyph-name="asciitilde" unicode="~" horiz-adv-x="755" d="M236 424L57 442q18 140 82 213.5T291 729q70 0 129-41 10-7 27.5-19.5t25-17.5 18.5-9.5 21-4.5q27 0 41 22t22 70l179-18q-14-139-79-213t-155-74q-70 0-129 41-11 7-27.5 19.5T339 502t-19 9.5-21 4.5q-48 0-63-92z"/><glyph glyph-name="nbspace" horiz-adv-x="364"/><glyph glyph-name="exclamdown" unicode="¡" horiz-adv-x="550" d="M420 1065q-69 0-118.5 49T252 1235q0 73 49.5 121.5T420 1405t117.5-48 48.5-122q0-73-49-121.5T420 1065zM49 0l223 920h209L352 0H49z"/><glyph glyph-name="cent" unicode="¢" horiz-adv-x="931" d="M387 0Q242 40 157 153.5T72 428q0 202 134 331t339 132l39 217h133l-41-229q156-32 246-162L721 565q-29 51-86 80l-78-436q31 3 60.5 16t41 21.5T696 276l156-174Q732-18 530-18h-12l-39-220H346zm117 659q-73-14-115.5-74T346 428q0-140 82-195z"/><glyph glyph-name="sterling" unicode="£" horiz-adv-x="1161" d="M379 508H170l35 203h135q-18 106-18 170 0 175 116.5 280T754 1266q264 0 385-226L922 907q-36 61-73 90t-97 29q-70 0-113-45t-43-119q0-66 10-151h283l-35-203H631q4-66 4-102 0-77-23-154 77-43 146-43 94 0 176 86l151-164Q962-18 754-18q-128 0-250 94-100-94-250-94-118 0-185 62T2 197q0 105 70.5 162T248 416q74 0 145-33-2 38-14 125zm-14-305q-63 53-111 53-28 0-47-15.5T188 201q0-27 18.5-43.5T258 141q70 0 107 62z"/><glyph glyph-name="currency" unicode="¤" horiz-adv-x="1208" d="M184 580H66l30 168h131q65 156 205.5 247.5T737 1087q146 0 249-47.5T1171 883L969 743q-40 58-91 83.5T741 852q-145 0-221-104h277l-31-168H459q0-9-1-29.5t-1-30.5v-35h295l-29-168H508q66-104 211-104 71 0 121.5 24t95.5 74l182-149q-74-94-171.5-137T715-18q-173 0-307 91T217 317H23l28 168h131v33q0 42 2 62z"/><glyph glyph-name="yen" unicode="¥" horiz-adv-x="1148" d="M424 373l-45 121H111l28 170h174l-149 405h287l100-319q13-41 24-98.5t16-94.5l5-37q46 129 109 223l219 326h290L918 664h176l-29-170H795l-88-121h335l-28-170H672L637 0H362l37 203H59l29 170h336z"/><glyph glyph-name="brokenbar" unicode="¦" d="M268 354q-70 0-120 49.5T98 528q0 74 50 123t120 49 120-49 50-123q0-75-50-124.5T268 354z"/><glyph glyph-name="section" unicode="§" horiz-adv-x="1054" d="M301 795q-37 67-37 161 0 137 103.5 223.5T618 1266q138 0 221-51t126-152L748 956q-19 47-47 71t-76 24q-52 0-78.5-25T520 963q0-33 14-54t52-39l198-90q121-53 174.5-124t53.5-171q0-99-55-160.5T797 229q30-59 30-141 0-141-99.5-220T442-211q-147 0-250 62T55 8l219 107Q319 6 436 6q58 0 87.5 19.5T553 78q0 27-16 46t-54 36l-180 78q-120 52-173.5 123T76 535q0 110 63.5 174.5T301 795zm385-451q74 24 74 96 0 76-88 117l-195 88q-35 14-76 43-77-27-77-104 0-41 20-67t66-46l184-80q51-22 92-47z"/><glyph glyph-name="dieresis" unicode="¨" horiz-adv-x="1003" d="M854 1040q-58 0-103.5 45T705 1192t45.5 106.5T854 1343q59 0 103-44.5t44-106.5-44-107-103-45zm-430 0q-58 0-103 45t-45 107 45 106.5 103 44.5q59 0 104-44.5t45-106.5-45-107-104-45z"/><glyph glyph-name="copyright" unicode="©" horiz-adv-x="1218" d="M633-10q-110 0-211 41.5T245.5 145 125 320 80 539q0 154 76.5 281t203 197 273.5 70q145 0 269.5-70t200-197 75.5-281q0-116-44.5-219t-119-175-174-113.5T633-10zm0 121q175 0 296.5 119T1051 539 929.5 848 633 967q-179 0-302.5-118.5T207 539t123.5-309.5T633 111zm14 127q-142 0-229.5 82.5T330 535q0 139 88.5 224T643 844q156 0 254-111L748 602q-36 45-93 45-47 0-72.5-30T557 535q0-47 25.5-76t68.5-29q55 0 88 37l140-125q-39-45-99-74.5T647 238z"/><glyph glyph-name="ordfeminine" unicode="ª" horiz-adv-x="1003" d="M420 317q-124 0-210.5 98.5T123 672q0 192 104.5 302.5T481 1085q163 0 232-133l16 117h242l-90-508q-8-45 32-45h52l-31-184H834q-79 0-123 14.5T653.5 380 633 434l-2 10q-42-66-89.5-96.5T420 317zm92 203q70 0 114 56.5T670 717q0 75-35 118.5T535 879q-72 0-115-54t-43-143q0-73 36-117.5t99-44.5z"/><glyph glyph-name="guillemotleft" unicode="«" horiz-adv-x="1024" d="M641 66L494 401v17l251 346h273L756 406 905 66H641zm-430 0L63 401v17l252 346h273L326 406 475 66H211z"/><glyph glyph-name="logicalnot" unicode="¬" d="M268 354q-70 0-120 49.5T98 528q0 74 50 123t120 49 120-49 50-123q0-75-50-124.5T268 354z"/><glyph glyph-name="registered" unicode="®" horiz-adv-x="1034" d="M610 518q-187 0-314.5 126.5T168 965t127.5 320T610 1411t317-126 130-320-130-320.5T610 518zm0 96q151 0 246.5 93.5T952 965q0 163-95 256.5T610 1315q-150 0-244-93t-94-257 94-257.5T610 614zm119 265l53-134H649l-43 113h-55l-21-113H399l78 445h164q85 0 131.5-48.5T819 1026q0-106-90-147zm-162 82h68q53 0 53 59 0 57-49 57h-51z"/><glyph glyph-name="macron" unicode="¯" horiz-adv-x="1003" d="M377 1083l35 197h491l-35-197H377z"/><glyph glyph-name="macron" unicode="ˉ" horiz-adv-x="1003" d="M377 1083l35 197h491l-35-197H377z"/><glyph glyph-name="degree" unicode="°" horiz-adv-x="665" d="M401 549q-115 0-196.5 76.5T123 815q0 119 83.5 195.5T410 1087q116 0 196-74t80-186q0-120-83-199t-202-79zm2 160q45 0 75 32t30 84q0 49-28 76t-72 27q-45 0-75-31.5T303 813q0-49 28-76.5t72-27.5z"/><glyph glyph-name="twosuperior" unicode="²" d="M268 354q-70 0-120 49.5T98 528q0 74 50 123t120 49 120-49 50-123q0-75-50-124.5T268 354z"/><glyph glyph-name="threesuperior" unicode="³" d="M268 354q-70 0-120 49.5T98 528q0 74 50 123t120 49 120-49 50-123q0-75-50-124.5T268 354z"/><glyph glyph-name="acute" unicode="´" horiz-adv-x="1003" d="M471 1024l164 385h323l-278-385H471z"/><glyph glyph-name="mu" unicode="µ" d="M268 354q-70 0-120 49.5T98 528q0 74 50 123t120 49 120-49 50-123q0-75-50-124.5T268 354z"/><glyph glyph-name="mu" unicode="μ" d="M268 354q-70 0-120 49.5T98 528q0 74 50 123t120 49 120-49 50-123q0-75-50-124.5T268 354z"/><glyph glyph-name="paragraph" unicode="¶" horiz-adv-x="1421" d="M627 498h-17q-107 0-194 32t-143.5 88.5T186 750t-30 161q0 98 34.5 184.5t98 153T452 1354t222 39h776L1204 0H938l205 1159h-133L805 0H539zm41 233l75 428h-84q-88 0-148-60.5T451 926q0-97 50-146t128-49h39z"/><glyph glyph-name="periodcentered" unicode="·" d="M268 354q-70 0-120 49.5T98 528q0 74 50 123t120 49 120-49 50-123q0-75-50-124.5T268 354z"/><glyph glyph-name="periodcentered" unicode="∙" d="M268 354q-70 0-120 49.5T98 528q0 74 50 123t120 49 120-49 50-123q0-75-50-124.5T268 354z"/><glyph glyph-name="cedilla" unicode="¸" horiz-adv-x="1003" d="M410-492q-176 0-240 127l133 74q31-57 90-57 36 0 57 19t21 55q0 35-21.5 55T385-199h-72L348 0h146l-15-84q63-10 108.5-60.5T633-276q0-100-65-158t-158-58z"/><glyph glyph-name="onesuperior" unicode="¹" d="M268 354q-70 0-120 49.5T98 528q0 74 50 123t120 49 120-49 50-123q0-75-50-124.5T268 354z"/><glyph glyph-name="ordmasculine" unicode="º" horiz-adv-x="958" d="M510 311q-165 0-275 108.5T125 690q0 172 123.5 284.5T547 1087q165 0 275-109t110-271q0-114-57.5-205.5t-154-141T510 311zm8 207q70 0 114 55t44 142q0 73-36.5 118.5T539 879q-74 0-116-54.5T381 682q0-75 36-119.5T518 518z"/><glyph glyph-name="guillemotright" unicode="»" horiz-adv-x="1024" d="M436 66l262 358-149 340h264l148-336v-16L709 66H436zM6 66l262 358-149 340h264l147-336v-16L279 66H6z"/><glyph glyph-name="onequarter" unicode="¼" d="M268 354q-70 0-120 49.5T98 528q0 74 50 123t120 49 120-49 50-123q0-75-50-124.5T268 354z"/><glyph glyph-name="onehalf" unicode="½" d="M268 354q-70 0-120 49.5T98 528q0 74 50 123t120 49 120-49 50-123q0-75-50-124.5T268 354z"/><glyph glyph-name="threequarters" unicode="¾" d="M268 354q-70 0-120 49.5T98 528q0 74 50 123t120 49 120-49 50-123q0-75-50-124.5T268 354z"/><glyph glyph-name="questiondown" unicode="¿" horiz-adv-x="1030" d="M641 1069q-69 0-118.5 49T473 1239q0 73 49.5 121.5T641 1409t117.5-48 48.5-122q0-73-48.5-121.5T641 1069zM510-12q-205 0-318.5 117T78 399q0 163 103.5 270T442 797l23 127h252l-58-326h-71q-120 0-179-56t-59-145q0-75 44-122.5T514 227q126 0 211 133l209-122Q877 129 764 58.5T510-12z"/><glyph glyph-name="Agrave" unicode="À" horiz-adv-x="1333" d="M719 1532l-187 385h312l80-385H719zM346 162L250 0H-31l848 1405h23L1217 0H932l-41 162H346zm488 223l-64 252q-13 49-21.5 106.5T738 834l-3 32q-40-116-106-227L479 385h355z"/><glyph glyph-name="Aacute" unicode="Á" horiz-adv-x="1333" d="M733 1532l164 385h324l-279-385H733zM346 162L250 0H-31l848 1405h23L1217 0H932l-41 162H346zm488 223l-64 252q-13 49-21.5 106.5T738 834l-3 32q-40-116-106-227L479 385h355z"/><glyph glyph-name="Acircumflex" unicode="Â" horiz-adv-x="1333" d="M479 1532l395 442h23l240-442H928l-88 147-138-147H479zM346 162L250 0H-31l848 1405h23L1217 0H932l-41 162H346zm488 223l-64 252q-13 49-21.5 106.5T738 834l-3 32q-40-116-106-227L479 385h355z"/><glyph glyph-name="Atilde" unicode="Ã" horiz-adv-x="1333" d="M659 1532l-178 18q18 140 82 213.5t152 73.5q70 0 129-41 10-7 27.5-19.5t25-17.5 18.5-9.5 21-4.5q27 0 41 22t22 70l179-18q-14-139-79-213t-155-74q-70 0-129 41-11 7-27.5 19.5T763 1610t-19 9.5-21 4.5q-49 0-64-92zM346 162L250 0H-31l848 1405h23L1217 0H932l-41 162H346zm488 223l-64 252q-13 49-21.5 106.5T738 834l-3 32q-40-116-106-227L479 385h355z"/><glyph glyph-name="Adieresis" unicode="Ä" horiz-adv-x="1333" d="M1069 1548q-58 0-103.5 45T920 1700t45.5 106.5T1069 1851q59 0 103.5-44.5T1217 1700t-44.5-107-103.5-45zm-430 0q-58 0-102.5 45T492 1700t44.5 106.5T639 1851q59 0 104-44.5t45-106.5-45-107-104-45zM346 162L250 0H-31l848 1405h23L1217 0H932l-41 162H346zm488 223l-64 252q-13 49-21.5 106.5T738 834l-3 32q-40-116-106-227L479 385h355z"/><glyph glyph-name="Aring" unicode="Å" horiz-adv-x="1333" d="M850 1479q-108 0-182 72t-74 171q0 101 74 172.5t182 71.5 182-71.5 74-172.5q0-99-74-171t-182-72zM346 162L250 0H-31l848 1405h23L1217 0H932l-41 162H346zm504 1466q37 0 61.5 25.5T936 1722t-25 69-61 26-61-26-25-69 24.5-68.5T850 1628zM834 385l-64 252q-13 49-21.5 106.5T738 834l-3 32q-40-116-106-227L479 385h355z"/><glyph glyph-name="AE" unicode="Æ" horiz-adv-x="1980" d="M401 158L270 0H-41l1182 1393h876l-43-246h-624l-80-451h547l-43-241h-547l-37-209h653L1798 0H866l29 158H401zm535 231l68 387q6 37 22 94t28 96l13 38q-84-143-137-209L594 389h342z"/><glyph glyph-name="Ccedilla" unicode="Ç" horiz-adv-x="1447" d="M676-6Q439 37 289 225T139 668q0 158 59.5 297T358 1200.5 592.5 1353t281.5 56q198 0 327-69.5t229-217.5l-230-149q-116 186-334 186-190 0-312-142.5T432 666q0-190 110-312.5T815 231q213 0 342 160l211-162q-99-117-230-180.5T819-18l-10-66q63-10 108.5-60.5T963-276q0-100-65.5-158T739-492q-175 0-239 127l133 74q31-57 90-57 36 0 57 19t21 55q0 35-21.5 55T715-199h-72z"/><glyph glyph-name="Egrave" unicode="È" horiz-adv-x="1179" d="M672 1532l-187 385h312l80-385H672zM66 0l245 1393h903l-43-246H547l-80-451h547l-43-241H424l-37-209h653L995 0H66z"/><glyph glyph-name="Eacute" unicode="É" horiz-adv-x="1179" d="M668 1532l163 385h324l-278-385H668zM66 0l245 1393h903l-43-246H547l-80-451h547l-43-241H424l-37-209h653L995 0H66z"/><glyph glyph-name="Ecircumflex" unicode="Ê" horiz-adv-x="1179" d="M453 1532l395 442h22l240-442H901l-88 147-137-147H453zM66 0l245 1393h903l-43-246H547l-80-451h547l-43-241H424l-37-209h653L995 0H66z"/><glyph glyph-name="Edieresis" unicode="Ë" horiz-adv-x="1179" d="M1004 1548q-58 0-104 45t-46 107 46 106.5 104 44.5q59 0 103-44.5t44-106.5-44-107-103-45zm-431 0q-58 0-102.5 45T426 1700t44.5 106.5T573 1851q59 0 104.5-44.5T723 1700t-45.5-107-104.5-45zM66 0l245 1393h903l-43-246H547l-80-451h547l-43-241H424l-37-209h653L995 0H66z"/><glyph glyph-name="Igrave" unicode="Ì" horiz-adv-x="575" d="M393 1532l-186 385h311l80-385H393zM74 0l245 1393h281L354 0H74z"/><glyph glyph-name="Iacute" unicode="Í" horiz-adv-x="575" d="M348 1532l164 385h324l-279-385H348zM74 0l245 1393h281L354 0H74z"/><glyph glyph-name="Icircumflex" unicode="Î" horiz-adv-x="575" d="M145 1532l396 442h22l240-442H594l-88 147-137-147H145zM74 0l245 1393h281L354 0H74z"/><glyph glyph-name="Idieresis" unicode="Ï" horiz-adv-x="575" d="M727 1548q-58 0-103.5 45T578 1700t45.5 106.5T727 1851q59 0 103-44.5t44-106.5-44-107-103-45zm-430 0q-58 0-102.5 45T150 1700t44.5 106.5T297 1851q59 0 104-44.5t45-106.5-45-107-104-45zM74 0l245 1393h281L354 0H74z"/><glyph glyph-name="Eth" unicode="Ð" horiz-adv-x="1366" d="M152 492H37l43 243h115l116 658h365q306 0 479.5-174T1329 750q0-231-101-402T949.5 88.5 541 0H66zm323 243h307l-43-243H432l-43-246h158q122 0 216.5 39t154 108.5 90 163T1038 762q0 181-99 283t-298 102h-92z"/><glyph glyph-name="Ntilde" unicode="Ñ" horiz-adv-x="1398" d="M709 1532l-179 18q18 140 82 213.5t152 73.5q70 0 129-41 10-7 27.5-19.5t25-17.5 18.5-9.5 21-4.5q27 0 41.5 22.5t22.5 69.5l178-18q-14-139-79-213t-155-74q-70 0-129 41-11 7-27.5 19.5T812 1610t-19 9.5-21 4.5q-48 0-63-92zM1157-12L592 666q-28 35-60 85t-50 83l-19 32q-9-158-27-256L328 0H66l247 1405h27l567-680q28-34 60.5-84t50.5-83l18-34q7 147 25 256l108 613h263L1184-12h-27z"/><glyph glyph-name="Ograve" unicode="Ò" horiz-adv-x="1597" d="M809 1532l-186 385h311l80-385H809zm6-1550q-142 0-267 51.5t-215 142T191 395t-52 277q0 166 59.5 306t161 233.5 236 145.5 283.5 52q142 0 267-51.5t215.5-142T1504 996t52-277q0-133-38.5-250T1410 263.5 1248.5 111 1045 14.5 815-18zm10 249q201 0 322 135t121 359q0 196-111 315t-287 119q-201 0-321.5-134.5T428 666q0-196 110.5-315.5T825 231z"/><glyph glyph-name="Oacute" unicode="Ó" horiz-adv-x="1597" d="M805 1532l164 385h323l-278-385H805zM815-18q-142 0-267 51.5t-215 142T191 395t-52 277q0 166 59.5 306t161 233.5 236 145.5 283.5 52q142 0 267-51.5t215.5-142T1504 996t52-277q0-133-38.5-250T1410 263.5 1248.5 111 1045 14.5 815-18zm10 249q201 0 322 135t121 359q0 196-111 315t-287 119q-201 0-321.5-134.5T428 666q0-196 110.5-315.5T825 231z"/><glyph glyph-name="Ocircumflex" unicode="Ô" horiz-adv-x="1597" d="M596 1532l395 442h23l239-442h-209l-88 147-137-147H596zM815-18q-142 0-267 51.5t-215 142T191 395t-52 277q0 166 59.5 306t161 233.5 236 145.5 283.5 52q142 0 267-51.5t215.5-142T1504 996t52-277q0-133-38.5-250T1410 263.5 1248.5 111 1045 14.5 815-18zm10 249q201 0 322 135t121 359q0 196-111 315t-287 119q-201 0-321.5-134.5T428 666q0-196 110.5-315.5T825 231z"/><glyph glyph-name="Otilde" unicode="Õ" horiz-adv-x="1597" d="M772 1532l-178 18q18 140 81.5 213.5T827 1837q70 0 129-41 9-6 27.5-19.5t26-18 18.5-9 21-4.5q27 0 41 22t22 70l178-18q-14-139-78.5-213t-154.5-74q-70 0-129 41-11 7-27.5 19.5T876 1610t-19 9.5-21 4.5q-49 0-64-92zM815-18q-142 0-267 51.5t-215 142T191 395t-52 277q0 166 59.5 306t161 233.5 236 145.5 283.5 52q142 0 267-51.5t215.5-142T1504 996t52-277q0-133-38.5-250T1410 263.5 1248.5 111 1045 14.5 815-18zm10 249q201 0 322 135t121 359q0 196-111 315t-287 119q-201 0-321.5-134.5T428 666q0-196 110.5-315.5T825 231z"/><glyph glyph-name="Odieresis" unicode="Ö" horiz-adv-x="1597" d="M1161 1548q-58 0-103.5 45t-45.5 107 45.5 106.5T1161 1851q59 0 103.5-44.5T1309 1700t-44.5-107-103.5-45zm-430 0q-58 0-102.5 45T584 1700t44.5 106.5T731 1851q59 0 104.5-44.5T881 1700t-45.5-107-104.5-45zM815-18q-142 0-267 51.5t-215 142T191 395t-52 277q0 166 59.5 306t161 233.5 236 145.5 283.5 52q142 0 267-51.5t215.5-142T1504 996t52-277q0-133-38.5-250T1410 263.5 1248.5 111 1045 14.5 815-18zm10 249q201 0 322 135t121 359q0 196-111 315t-287 119q-201 0-321.5-134.5T428 666q0-196 110.5-315.5T825 231z"/><glyph glyph-name="multiply" unicode="×" d="M268 354q-70 0-120 49.5T98 528q0 74 50 123t120 49 120-49 50-123q0-75-50-124.5T268 354z"/><glyph glyph-name="Oslash" unicode="Ø" horiz-adv-x="1597" d="M1452 1102q104-172 104-383 0-133-38.5-250.5t-107-205.5-160-152T1050 14.5 825-18q-258 0-438 147L223-20 78 137l166 152Q139 457 139 672q0 133 38.5 250.5T284 1128t159 152 200 96.5 225 32.5q256 0 439-147l163 149 148-158zM457 485l653 598q-98 76-246 76-194 0-315-135T428 666q0-96 29-181zm782 422L584 309q101-78 247-78 195 0 316 135.5T1268 725q0 93-29 182z"/><glyph glyph-name="Ugrave" unicode="Ù" horiz-adv-x="1370" d="M752 1532l-187 385h312l79-385H752zM662-18q-125 0-228 41T262 137t-97.5 181-6.5 235l147 840h283L436 532q-26-147 36-224t204-77q128 0 198 67t95 206l157 889h283l-166-934q-42-236-192.5-356.5T662-18z"/><glyph glyph-name="Uacute" unicode="Ú" horiz-adv-x="1370" d="M752 1532l163 385h324l-278-385H752zM662-18q-125 0-228 41T262 137t-97.5 181-6.5 235l147 840h283L436 532q-26-147 36-224t204-77q128 0 198 67t95 206l157 889h283l-166-934q-42-236-192.5-356.5T662-18z"/><glyph glyph-name="Ucircumflex" unicode="Û" horiz-adv-x="1370" d="M539 1532l395 442h22l240-442H987l-88 147-137-147H539zM662-18q-125 0-228 41T262 137t-97.5 181-6.5 235l147 840h283L436 532q-26-147 36-224t204-77q128 0 198 67t95 206l157 889h283l-166-934q-42-236-192.5-356.5T662-18z"/><glyph glyph-name="Udieresis" unicode="Ü" horiz-adv-x="1370" d="M1100 1548q-58 0-104 45t-46 107 46 106.5 104 44.5q59 0 103-44.5t44-106.5-44-107-103-45zm-430 0q-58 0-103 45t-45 107 45 106.5 103 44.5q59 0 104-44.5t45-106.5-45-107-104-45zM662-18q-125 0-228 41T262 137t-97.5 181-6.5 235l147 840h283L436 532q-26-147 36-224t204-77q128 0 198 67t95 206l157 889h283l-166-934q-42-236-192.5-356.5T662-18z"/><glyph glyph-name="Yacute" unicode="Ý" horiz-adv-x="1359" d="M754 1532l164 385h323l-278-385H754zM557 444l-348 949h297l160-449q16-47 32.5-116T723 714l8-46q76 174 148 276l311 449h305L840 457 760 0H479z"/><glyph glyph-name="Thorn" unicode="Þ" horiz-adv-x="1193" d="M565 1243h49q261 0 412.5-137.5T1178 741q0-277-174.5-425T524 168H375L346 0H66l245 1393h281zM418 412h114q185 0 271 80.5T889 741q0 258-293 258h-74z"/><glyph glyph-name="germandbls" unicode="ß" horiz-adv-x="1157" d="M866 795q226-91 226-344 0-216-126-339.5T625-12q-133 0-197 35l57 213q54-21 113-21 101 0 160 61t59 181q0 221-246 227l37 209q98 6 155.5 64t57.5 176q0 73-39.5 112T676 1284q-76 0-119.5-49.5T494 1077L268-199q-14-79-36-126.5t-61.5-71T87-427t-120-7h-141l39 203h82q25 0 37 10t18 41l225 1272q35 202 150.5 307.5T682 1505q180 0 288.5-100t108.5-266q0-119-56-206T866 795z"/><glyph glyph-name="agrave" unicode="à" horiz-adv-x="1089" d="M508 1024l-186 385h311l80-385H508zM410-18Q265-18 166.5 97T68 399q0 227 119.5 359.5T481 891q199 0 281-158l18 139h271L942 254q-4-27 4.5-39t32.5-12h61L1006 0H903q-71 0-117.5 8.5T715 35t-33.5 36.5T666 121l-2 10Q610 52 553.5 17T410-18zm108 233q86 0 139.5 66.5T711 453q0 94-43.5 148T543 655q-89 0-141-66t-52-177q0-92 44.5-144.5T518 215z"/><glyph glyph-name="aacute" unicode="á" horiz-adv-x="1089" d="M494 1024l163 385h324l-279-385H494zM410-18Q265-18 166.5 97T68 399q0 227 119.5 359.5T481 891q199 0 281-158l18 139h271L942 254q-4-27 4.5-39t32.5-12h61L1006 0H903q-71 0-117.5 8.5T715 35t-33.5 36.5T666 121l-2 10Q610 52 553.5 17T410-18zm108 233q86 0 139.5 66.5T711 453q0 94-43.5 148T543 655q-89 0-141-66t-52-177q0-92 44.5-144.5T518 215z"/><glyph glyph-name="acircumflex" unicode="â" horiz-adv-x="1089" d="M305 1024l395 442h23l240-442H754l-88 147-138-147H305zM410-18Q265-18 166.5 97T68 399q0 227 119.5 359.5T481 891q199 0 281-158l18 139h271L942 254q-4-27 4.5-39t32.5-12h61L1006 0H903q-71 0-117.5 8.5T715 35t-33.5 36.5T666 121l-2 10Q610 52 553.5 17T410-18zm108 233q86 0 139.5 66.5T711 453q0 94-43.5 148T543 655q-89 0-141-66t-52-177q0-92 44.5-144.5T518 215z"/><glyph glyph-name="atilde" unicode="ã" horiz-adv-x="1089" d="M498 1024l-179 18q18 140 82 213.5t152 73.5q70 0 129-41 10-7 27.5-19.5t25-17.5 18.5-9.5 21-4.5q27 0 41.5 22.5T838 1329l178-18q-14-139-79-213t-155-74q-70 0-129 41-11 7-27.5 19.5T601 1102t-19 9.5-21 4.5q-48 0-63-92zM410-18Q265-18 166.5 97T68 399q0 227 119.5 359.5T481 891q199 0 281-158l18 139h271L942 254q-4-27 4.5-39t32.5-12h61L1006 0H903q-71 0-117.5 8.5T715 35t-33.5 36.5T666 121l-2 10Q610 52 553.5 17T410-18zm108 233q86 0 139.5 66.5T711 453q0 94-43.5 148T543 655q-89 0-141-66t-52-177q0-92 44.5-144.5T518 215z"/><glyph glyph-name="adieresis" unicode="ä" horiz-adv-x="1089" d="M893 1040q-58 0-104 45t-46 107 46 106.5 104 44.5q59 0 103-44.5t44-106.5-44-107-103-45zm-430 0q-58 0-103 45t-45 107 45 106.5 103 44.5q59 0 104-44.5t45-106.5-45-107-104-45zM410-18Q265-18 166.5 97T68 399q0 227 119.5 359.5T481 891q199 0 281-158l18 139h271L942 254q-4-27 4.5-39t32.5-12h61L1006 0H903q-71 0-117.5 8.5T715 35t-33.5 36.5T666 121l-2 10Q610 52 553.5 17T410-18zm108 233q86 0 139.5 66.5T711 453q0 94-43.5 148T543 655q-89 0-141-66t-52-177q0-92 44.5-144.5T518 215z"/><glyph glyph-name="aring" unicode="å" horiz-adv-x="1089" d="M659 971q-108 0-182 72t-74 171q0 101 74 172.5t182 71.5 182-71.5 74-172.5q0-99-74-171t-182-72zM410-18Q265-18 166.5 97T68 399q0 227 119.5 359.5T481 891q199 0 281-158l18 139h271L942 254q-4-27 4.5-39t32.5-12h61L1006 0H903q-71 0-117.5 8.5T715 35t-33.5 36.5T666 121l-2 10Q610 52 553.5 17T410-18zm249 1138q37 0 61.5 25.5T745 1214t-25 69-61 26-61-26-25-69 24.5-68.5T659 1120zM518 215q86 0 139.5 66.5T711 453q0 94-43.5 148T543 655q-89 0-141-66t-52-177q0-92 44.5-144.5T518 215z"/><glyph glyph-name="ae" unicode="æ" horiz-adv-x="1581" d="M776 776q112 115 293 115 222 0 335-131t124-359l-647-69q45-129 215-129 114 0 207 73l163-172q-74-61-162-91.5T1094-18q-247 0-359 157Q633-18 389-18q-161 0-259.5 67.5T31 242q0 270 377 270h217q6 76-28 120t-114 44q-59 0-112-20t-88-50L139 774q134 117 357 117 188 0 280-115zm94-293l363 39q-5 72-46.5 113T1071 676q-180 0-201-193zM598 356H403q-102 0-102-82 0-84 119-84 152 0 170 115z"/><glyph glyph-name="ccedilla" unicode="ç" horiz-adv-x="931" d="M369 4Q233 48 152.5 159T72 428q0 204 137 333.5T553 891q242 0 367-174L721 561q-59 94-170 94-90 0-144.5-63.5T352 428t45-156.5T530 215q55 0 92.5 17.5T696 281l156-179Q732-18 530-18h-20l-10-66q62-10 107.5-60.5T653-276q0-100-65-158t-158-58q-176 0-240 127l134 74q31-57 90-57 36 0 57 19t21 55q0 35-21.5 55T406-199h-72z"/><glyph glyph-name="egrave" unicode="è" horiz-adv-x="1054" d="M479 1024l-186 385h311l80-385H479zM354 332q45-129 215-129 114 0 207 73l164-172Q793-18 567-18q-232 0-362.5 125T74 430q0 206 134.5 333.5T543 891q222 0 334.5-131T1001 401zm-10 151l363 39q-5 72-46.5 113T545 676q-180 0-201-193z"/><glyph glyph-name="eacute" unicode="é" horiz-adv-x="1054" d="M498 1024l164 385h323l-278-385H498zM354 332q45-129 215-129 114 0 207 73l164-172Q793-18 567-18q-232 0-362.5 125T74 430q0 206 134.5 333.5T543 891q222 0 334.5-131T1001 401zm-10 151l363 39q-5 72-46.5 113T545 676q-180 0-201-193z"/><glyph glyph-name="ecircumflex" unicode="ê" horiz-adv-x="1054" d="M268 1024l396 442h22l240-442H717l-88 147-137-147H268zm86-692q45-129 215-129 114 0 207 73l164-172Q793-18 567-18q-232 0-362.5 125T74 430q0 206 134.5 333.5T543 891q222 0 334.5-131T1001 401zm-10 151l363 39q-5 72-46.5 113T545 676q-180 0-201-193z"/><glyph glyph-name="edieresis" unicode="ë" horiz-adv-x="1054" d="M862 1040q-58 0-103.5 45T713 1192t45.5 106.5T862 1343q59 0 103.5-44.5T1010 1192t-44.5-107-103.5-45zm-430 0q-58 0-102.5 45T285 1192t44.5 106.5T432 1343q59 0 104.5-44.5T582 1192t-45.5-107-104.5-45zm-78-708q45-129 215-129 114 0 207 73l164-172Q793-18 567-18q-232 0-362.5 125T74 430q0 206 134.5 333.5T543 891q222 0 334.5-131T1001 401zm-10 151l363 39q-5 72-46.5 113T545 676q-180 0-201-193z"/><glyph glyph-name="igrave" unicode="ì" horiz-adv-x="532" d="M279 1024L92 1409h311l80-385H279zM319 0q-62 0-103 6.5t-74 23T96.5 74 79 146t9 106l109 620h270L358 254q-4-27 4.5-39t32.5-12h62L422 0H319z"/><glyph glyph-name="iacute" unicode="í" horiz-adv-x="532" d="M233 1024l164 385h324l-279-385H233zM319 0q-62 0-103 6.5t-74 23T96.5 74 79 146t9 106l109 620h270L358 254q-4-27 4.5-39t32.5-12h62L422 0H319z"/><glyph glyph-name="icircumflex" unicode="î" horiz-adv-x="532" d="M33 1024l395 442h23l239-442H481l-88 147-137-147H33zM319 0q-62 0-103 6.5t-74 23T96.5 74 79 146t9 106l109 620h270L358 254q-4-27 4.5-39t32.5-12h62L422 0H319z"/><glyph glyph-name="idieresis" unicode="ï" horiz-adv-x="532" d="M612 1040q-58 0-103.5 45T463 1192t45.5 106.5T612 1343q59 0 103.5-44.5T760 1192t-44.5-107-103.5-45zm-430 0q-58 0-102.5 45T35 1192t44.5 106.5T182 1343q59 0 104.5-44.5T332 1192t-45.5-107-104.5-45zM319 0q-62 0-103 6.5t-74 23T96.5 74 79 146t9 106l109 620h270L358 254q-4-27 4.5-39t32.5-12h62L422 0H319z"/><glyph glyph-name="eth" unicode="ð" horiz-adv-x="1077" d="M614 1077l-122-96-101 133 129 103q-47 62-114 143l169 151q81-74 140-141l135 107 102-134-135-106q209-309 209-702 0-262-132-407.5T532-18q-195 0-325.5 127.5T76 438q0 103 38 191t99.5 144 136 87T500 891q141 0 219-72-31 130-105 258zm-73-868q94 0 148 68.5T743 455q0 94-50 151.5T559 664q-95 0-150-64t-55-170q0-101 50-161t137-60z"/><glyph glyph-name="ntilde" unicode="ñ" horiz-adv-x="1075" d="M459 1024l-178 18q18 140 81.5 213.5T514 1329q70 0 129-41 10-7 27.5-19.5t25-17.5 18.5-9.5 21-4.5q27 0 41.5 22.5T799 1329l178-18q-14-139-79-213t-155-74q-70 0-129 41-11 7-27.5 19.5T562 1102t-19 9.5-21 4.5q-48 0-63-92zM33 0l153 872h271l-33-157q107 176 283 176 144 0 219-113t43-295l-41-229q-4-27 4.5-39t32.5-12h61L991 0H889q-62 0-103.5 6.5t-74 23T666 74t-18 72 9 106l39 223q15 87-17.5 131.5T573 651q-81 0-125-42t-61-136L303 0H33z"/><glyph glyph-name="ograve" unicode="ò" horiz-adv-x="1085" d="M514 1024l-186 385h311l80-385H514zM532-18q-195 0-327.5 125.5T72 424q0 208 139 337.5T557 891q196 0 328.5-125.5T1018 446q0-208-139.5-336T532-18zm9 229q91 0 144.5 65.5T739 449q0 95-51 151.5T549 657q-91 0-145-65t-54-172q0-95 51.5-152T541 211z"/><glyph glyph-name="oacute" unicode="ó" horiz-adv-x="1085" d="M483 1024l164 385h324l-279-385H483zM532-18q-195 0-327.5 125.5T72 424q0 208 139 337.5T557 891q196 0 328.5-125.5T1018 446q0-208-139.5-336T532-18zm9 229q91 0 144.5 65.5T739 449q0 95-51 151.5T549 657q-91 0-145-65t-54-172q0-95 51.5-152T541 211z"/><glyph glyph-name="ocircumflex" unicode="ô" horiz-adv-x="1085" d="M291 1024l395 442h23l239-442H739l-88 147-137-147H291zM532-18q-195 0-327.5 125.5T72 424q0 208 139 337.5T557 891q196 0 328.5-125.5T1018 446q0-208-139.5-336T532-18zm9 229q91 0 144.5 65.5T739 449q0 95-51 151.5T549 657q-91 0-145-65t-54-172q0-95 51.5-152T541 211z"/><glyph glyph-name="otilde" unicode="õ" horiz-adv-x="1085" d="M446 1024l-178 18q18 140 82 213.5t152 73.5q70 0 129-41 10-7 27.5-19.5t25-17.5 18.5-9.5 21-4.5q27 0 41 22t22 70l179-18q-14-139-79-213t-155-74q-70 0-129 41-11 7-27.5 19.5T550 1102t-19 9.5-21 4.5q-49 0-64-92zM532-18q-195 0-327.5 125.5T72 424q0 208 139 337.5T557 891q196 0 328.5-125.5T1018 446q0-208-139.5-336T532-18zm9 229q91 0 144.5 65.5T739 449q0 95-51 151.5T549 657q-91 0-145-65t-54-172q0-95 51.5-152T541 211z"/><glyph glyph-name="odieresis" unicode="ö" horiz-adv-x="1085" d="M868 1040q-58 0-103.5 45T719 1192t45.5 106.5T868 1343q59 0 103.5-44.5T1016 1192t-44.5-107-103.5-45zm-430 0q-58 0-102.5 45T291 1192t44.5 106.5T438 1343q59 0 104.5-44.5T588 1192t-45.5-107-104.5-45zM532-18q-195 0-327.5 125.5T72 424q0 208 139 337.5T557 891q196 0 328.5-125.5T1018 446q0-208-139.5-336T532-18zm9 229q91 0 144.5 65.5T739 449q0 95-51 151.5T549 657q-91 0-145-65t-54-172q0-95 51.5-152T541 211z"/><glyph glyph-name="divide" unicode="÷" d="M268 354q-70 0-120 49.5T98 528q0 74 50 123t120 49 120-49 50-123q0-75-50-124.5T268 354z"/><glyph glyph-name="oslash" unicode="ø" horiz-adv-x="1085" d="M961 670q57-97 57-224 0-208-139.5-336T532-18Q360-18 233 82L98-29 0 100l129 103q-57 97-57 221 0 208 139 337.5T557 891q172 0 299-100l135 110 94-129zM340 375l328 264q-50 35-119 35-97 0-155-70t-58-184q0-17 4-45zm410 125L418 231q48-36 123-36 97 0 155 70t58 184q0 19-4 51z"/><glyph glyph-name="ugrave" unicode="ù" horiz-adv-x="1081" d="M535 1024l-187 385h311l80-385H535zM360-18Q215-18 140.5 94.5T98 389l84 483h273l-84-475q-15-87 17.5-131.5T494 221q81 0 125 42t61 136l84 473h270L926 254q-4-27 4.5-39t32.5-12h61L989 0H887q-58 0-99.5 6.5T721 23t-40.5 27-22 34-9.5 41l-2 14Q588 56 521 19T360-18z"/><glyph glyph-name="uacute" unicode="ú" horiz-adv-x="1081" d="M514 1024l164 385h323l-278-385H514zM360-18Q215-18 140.5 94.5T98 389l84 483h273l-84-475q-15-87 17.5-131.5T494 221q81 0 125 42t61 136l84 473h270L926 254q-4-27 4.5-39t32.5-12h61L989 0H887q-58 0-99.5 6.5T721 23t-40.5 27-22 34-9.5 41l-2 14Q588 56 521 19T360-18z"/><glyph glyph-name="ucircumflex" unicode="û" horiz-adv-x="1081" d="M301 1024l395 442h23l239-442H750l-88 147-138-147H301zM360-18Q215-18 140.5 94.5T98 389l84 483h273l-84-475q-15-87 17.5-131.5T494 221q81 0 125 42t61 136l84 473h270L926 254q-4-27 4.5-39t32.5-12h61L989 0H887q-58 0-99.5 6.5T721 23t-40.5 27-22 34-9.5 41l-2 14Q588 56 521 19T360-18z"/><glyph glyph-name="udieresis" unicode="ü" horiz-adv-x="1081" d="M862 1040q-58 0-103.5 45T713 1192t45.5 106.5T862 1343q59 0 103.5-44.5T1010 1192t-44.5-107-103.5-45zm-430 0q-58 0-102.5 45T285 1192t44.5 106.5T432 1343q59 0 104.5-44.5T582 1192t-45.5-107-104.5-45zM360-18Q215-18 140.5 94.5T98 389l84 483h273l-84-475q-15-87 17.5-131.5T494 221q81 0 125 42t61 136l84 473h270L926 254q-4-27 4.5-39t32.5-12h61L989 0H887q-58 0-99.5 6.5T721 23t-40.5 27-22 34-9.5 41l-2 14Q588 56 521 19T360-18z"/><glyph glyph-name="yacute" unicode="ý" horiz-adv-x="1060" d="M520 1024l164 385h324l-279-385H520zM373-455q-260 0-396 168l179 172q86-112 225-112 186 0 225 209l25 135Q575 46 511 14T360-18Q215-18 140.5 94.5T98 389l84 483h273l-84-475q-15-87 17.5-131.5T494 221q81 0 125 42t61 136l84 473h270L872-49q-37-209-167-307.5T373-455z"/><glyph glyph-name="thorn" unicode="þ" horiz-adv-x="1097" d="M-43-434l336 1913h270L434 745q44 72 103 109t147 37q151 0 251.5-115T1036 473q0-111-33.5-204.5T912 113 780 16.5 623-18q-203 0-293 170L227-434H-43zm594 649q93 0 148 66.5T754 459q0 92-48 144t-131 52q-90 0-146-66t-56-171q0-93 47-148t131-55z"/><glyph glyph-name="ydieresis" unicode="ÿ" horiz-adv-x="1060" d="M854 1040q-58 0-103.5 45T705 1192t45.5 106.5T854 1343q59 0 103-44.5t44-106.5-44-107-103-45zm-430 0q-58 0-103 45t-45 107 45 106.5 103 44.5q59 0 104-44.5t45-106.5-45-107-104-45zM373-455q-260 0-396 168l179 172q86-112 225-112 186 0 225 209l25 135Q575 46 511 14T360-18Q215-18 140.5 94.5T98 389l84 483h273l-84-475q-15-87 17.5-131.5T494 221q81 0 125 42t61 136l84 473h270L872-49q-37-209-167-307.5T373-455z"/><glyph glyph-name="dotlessi" unicode="ı" horiz-adv-x="532" d="M319 0q-62 0-103 6.5t-74 23T96.5 74 79 146t9 106l109 620h270L358 254q-4-27 4.5-39t32.5-12h62L422 0H319z"/><glyph glyph-name="Lslash" unicode="Ł" horiz-adv-x="1134" d="M449 463l-39-217h618L985 0H86l64 362-154-51 43 246 154 51 139 785h280L492 709l387 131-43-246z"/><glyph glyph-name="lslash" unicode="ł" horiz-adv-x="595" d="M442 539l-49-285q-4-27 4.5-39t32.5-12h78L473 0H354q-62 0-103 6.5t-74 23T131.5 74 114 146t9 106l22 131-149-78 47 264 150 78 145 832h270L489 803l160 84-45-264z"/><glyph glyph-name="OE" unicode="Œ" horiz-adv-x="2013" d="M795 0Q488 0 314.5 175T141 643q0 167 60 308t164.5 237.5 250 150.5 314.5 54h1120l-43-246h-625l-79-451h546l-43-241h-546l-37-209h653L1831 0H795zm34 246h113l160 901H924q-240 0-366-142.5T432 631q0-181 99-283t298-102z"/><glyph glyph-name="oe" unicode="œ" horiz-adv-x="1720" d="M874 139Q758-18 532-18q-195 0-327.5 125.5T72 424q0 208 140.5 337.5T563 891q207 0 318-156 118 156 327 156 222 0 335-131t124-359l-647-69q45-129 215-129 114 0 207 73l164-172Q1459-18 1233-18q-247 0-359 157zm136 344l362 39q-5 72-46.5 113T1210 676q-179 0-200-193zM541 211q91 0 144.5 66T739 451q0 94-51.5 150T549 657q-91 0-145-65t-54-172q0-95 51.5-152T541 211z"/><glyph glyph-name="Scaron" unicode="Š" horiz-adv-x="1077" d="M641 1491l-240 444h209l88-149 138 149h223l-395-444h-23zM514-18q-181 0-317.5 85T2 264l221 150q49-80 121.5-133.5T514 227q88 0 143.5 40.5T713 375q0 55-35.5 91.5T539 571l-66 43q-137 89-199.5 183.5T211 1024q0 80 27.5 148.5t80 122 136.5 84 190 30.5q241 0 379-174l-201-172q-43 53-86.5 78.5T631 1167q-70 0-107-37.5t-37-93.5q0-51 31.5-89T631 858l67-43q78-50 127-89t92-89 62.5-109.5T999 395q0-134-65-229T761.5 26.5 514-18z"/><glyph glyph-name="scaron" unicode="š" horiz-adv-x="845" d="M463 983l-240 444h209l88-149 137 149h224L485 983h-22zM381-18q-129 0-224.5 48.5T8 162l187 131q37-53 82-76.5T387 193q105 0 105 53 0 8-2 14t-8.5 12-13 10.5-22 11.5-29.5 13-40 17-49 22q-97 45-148 106t-51 158q0 133 91 207t237 74q193 0 305-129L586 614q-28 35-56 52.5T457 684q-36 0-58-14.5T377 631q0-23 25-39t100-49q63-27 101.5-49t75-55 53-78T748 256q0-125-94.5-199.5T381-18z"/><glyph glyph-name="Ydieresis" unicode="Ÿ" horiz-adv-x="1359" d="M1079 1548q-58 0-103.5 45T930 1700t45.5 106.5T1079 1851q59 0 103.5-44.5T1227 1700t-44.5-107-103.5-45zm-430 0q-58 0-102.5 45T502 1700t44.5 106.5T649 1851q59 0 104.5-44.5T799 1700t-45.5-107-104.5-45zM557 444l-348 949h297l160-449q16-47 32.5-116T723 714l8-46q76 174 148 276l311 449h305L840 457 760 0H479z"/><glyph glyph-name="Zcaron" unicode="Ž" horiz-adv-x="1218" d="M758 1491l-240 444h209l88-149 137 149h224l-396-444h-22zM4 0v25l797 1124H283l43 244h946v-25L473 244h596L1026 0H4z"/><glyph glyph-name="zcaron" unicode="ž" horiz-adv-x="894" d="M526 983l-239 444h209l88-149 137 149h223L549 983h-23zM-2 0v23l459 628H129l39 221h741v-22L451 221h335L748 0H-2z"/><glyph glyph-name="florin" unicode="ƒ" horiz-adv-x="819" d="M225 377H82l39 215h143l64 360q29 163 109.5 238.5T655 1266q177 0 271-133L754 983q-32 49-84 49-34 0-52.5-20.5T590 944l-62-352h215l-38-215H489L348-434H84z"/><glyph glyph-name="circumflex" unicode="ˆ" horiz-adv-x="1003" d="M279 1024l395 442h22l240-442H727l-88 147-137-147H279z"/><glyph glyph-name="caron" unicode="ˇ" horiz-adv-x="1003" d="M590 983l-240 444h209l88-149 137 149h224L612 983h-22z"/><glyph glyph-name="breve" unicode="˘" horiz-adv-x="1003" d="M588 1024q-141 0-225.5 80T272 1311l207 30q10-116 111-116 100 0 123 116l202-30q-20-128-105.5-207.5T588 1024z"/><glyph glyph-name="dotaccent" unicode="˙" horiz-adv-x="1003" d="M637 1040q-58 0-103 45t-45 107 45 106.5 103 44.5q59 0 104-44.5t45-106.5-45-107-104-45z"/><glyph glyph-name="ring" unicode="˚" horiz-adv-x="1003" d="M643 971q-108 0-182 72t-74 171q0 101 74 172.5t182 71.5 182-71.5 74-172.5q0-99-74-171t-182-72zm0 149q37 0 61.5 25.5T729 1214t-25 69-61 26-61-26-25-69 24.5-68.5T643 1120z"/><glyph glyph-name="ogonek" unicode="˛" horiz-adv-x="1003" d="M410-492q-92 0-157 50t-65 143q0 121 109 219l88 80h158L430-143q-38-49-51.5-78T365-287q0-59 57-59 26 0 43 14t39 43l133-78q-71-125-227-125z"/><glyph glyph-name="tilde" unicode="˜" horiz-adv-x="1003" d="M459 1024l-178 18q18 140 81.5 213.5T514 1329q70 0 129-41 10-7 27.5-19.5t25-17.5 18.5-9.5 21-4.5q27 0 41.5 22.5T799 1329l178-18q-14-139-79-213t-155-74q-70 0-129 41-11 7-27.5 19.5T562 1102t-19 9.5-21 4.5q-48 0-63-92z"/><glyph glyph-name="hungarumlaut" unicode="˝" horiz-adv-x="1003" d="M635 1024l176 385h283l-250-385H635zm-371 0l176 385h283l-250-385H264z"/><glyph glyph-name="Delta" unicode="Δ" d="M268 354q-70 0-120 49.5T98 528q0 74 50 123t120 49 120-49 50-123q0-75-50-124.5T268 354z"/><glyph glyph-name="Delta" unicode="∆" d="M268 354q-70 0-120 49.5T98 528q0 74 50 123t120 49 120-49 50-123q0-75-50-124.5T268 354z"/><glyph glyph-name="Omega" unicode="Ω" d="M268 354q-70 0-120 49.5T98 528q0 74 50 123t120 49 120-49 50-123q0-75-50-124.5T268 354z"/><glyph glyph-name="Omega" unicode="Ω" d="M268 354q-70 0-120 49.5T98 528q0 74 50 123t120 49 120-49 50-123q0-75-50-124.5T268 354z"/><glyph glyph-name="pi" unicode="π" d="M268 354q-70 0-120 49.5T98 528q0 74 50 123t120 49 120-49 50-123q0-75-50-124.5T268 354z"/><glyph glyph-name="endash" unicode="–" horiz-adv-x="815" d="M47 350l43 238h694l-43-238H47z"/><glyph glyph-name="emdash" unicode="—" horiz-adv-x="1318" d="M47 350l43 238h1198l-43-238H47z"/><glyph glyph-name="quoteleft" unicode="‘" horiz-adv-x="489" d="M348 844q-66 0-112 46t-46 116q0 74 68 170l152 217h131l-121-246q86-50 86-146 0-67-46.5-112T348 844z"/><glyph glyph-name="quoteright" unicode="’" horiz-adv-x="489" d="M199 860l120 246q-86 50-86 145 0 67 46.5 112.5T391 1409t111.5-46.5T549 1247q0-74-68-170L330 860H199z"/><glyph glyph-name="quotesinglbase" unicode="‚" horiz-adv-x="489" d="M10-211L131 35Q45 85 45 180q0 67 46.5 112.5T203 338t111-46 46-116q0-76-67-170L141-211H10z"/><glyph glyph-name="quotedblleft" unicode="“" horiz-adv-x="925" d="M782 844q-65 0-111 46t-46 116q0 76 67 170l152 217h131l-121-246q86-50 86-146 0-67-46.5-112T782 844zm-434 0q-66 0-112 46t-46 116q0 74 68 170l152 217h131l-121-246q86-50 86-146 0-67-46.5-112T348 844z"/><glyph glyph-name="quotedblright" unicode="”" horiz-adv-x="923" d="M633 860l121 246q-86 50-86 145 0 67 46 112.5t111 45.5 111.5-46.5T983 1247q0-74-68-170L764 860H633zm-434 0l120 246q-86 50-86 145 0 67 46.5 112.5T391 1409t111.5-46.5T549 1247q0-74-68-170L330 860H199z"/><glyph glyph-name="quotedblbase" unicode="„" horiz-adv-x="923" d="M444-211L565 35q-86 50-86 145 0 67 46.5 112.5T637 338t111.5-46T795 176q0-74-68-170L575-211H444zm-434 0L131 35Q45 85 45 180q0 67 46.5 112.5T203 338t111-46 46-116q0-76-67-170L141-211H10z"/><glyph glyph-name="dagger" unicode="†" horiz-adv-x="727" d="M340 973H160l39 221h180l35 199h243l-34-199h180l-39-221H584l-84-477H256z"/><glyph glyph-name="daggerdbl" unicode="‡" horiz-adv-x="727" d="M344 995H164l35 199h180l37 199h243l-34-199h178l-35-199H588l-19-104h181l-35-199H535l-35-198H256l35 198H111l34 199h181z"/><glyph glyph-name="bullet" unicode="•" horiz-adv-x="548" d="M291 297q-86 0-149.5 64.5T78 518q0 94 63.5 157.5T291 739q88 0 152.5-63.5T508 518q0-92-64.5-156.5T291 297z"/><glyph glyph-name="ellipsis" unicode="…" horiz-adv-x="1462" d="M1171-12q-69 0-117 48t-48 122q0 73 48.5 121.5T1171 328q69 0 117.5-49t48.5-121q0-74-48.5-122T1171-12zm-485 0q-69 0-117.5 48T520 158q0 72 49 121t117 49 117-49 49-121q0-74-48.5-122T686-12zm-485 0q-69 0-117.5 48T35 158q0 72 48.5 121T201 328t117.5-49T367 158q0-74-48.5-122T201-12z"/><glyph glyph-name="perthousand" unicode="‰" horiz-adv-x="2531" d="M436 444q-142 0-232.5 91T113 758q0 145 96.5 237t236.5 92q143 0 233.5-88T770 780q0-145-97.5-240.5T436 444zM358 0l859 1069h260L618 0H358zm1768-18q-142 0-233 90.5T1802 295q0 145 97 237.5t237 92.5q143 0 233.5-88.5T2460 317q0-145-97.5-240T2126-18zm-737 0q-142 0-233 90.5T1065 295q0 145 97 237.5t237 92.5q143 0 233-88.5t90-219.5q0-145-97-240t-236-95zM438 643q45 0 77 36.5t32 92.5q0 57-29 87t-72 30q-46 0-77-34.5T338 760q0-53 29-85t71-32zm1690-463q45 0 76.5 36.5T2236 309q0 57-28.5 87t-71.5 30q-46 0-77-34.5t-31-94.5q0-53 29-85t71-32zm-737 0q45 0 76.5 36.5T1499 309q0 57-28.5 87t-71.5 30q-46 0-77.5-35t-31.5-94q0-53 29.5-85t71.5-32z"/><glyph glyph-name="guilsinglleft" unicode="‹" horiz-adv-x="593" d="M211 66L63 401v17l252 346h273L326 406 475 66H211z"/><glyph glyph-name="guilsinglright" unicode="›" horiz-adv-x="593" d="M6 66l262 358-149 340h264l147-336v-16L279 66H6z"/><glyph glyph-name="fraction" unicode="⁄" horiz-adv-x="847" d="M-115 0l848 1069h271L154 0h-269z"/><glyph glyph-name="fraction" unicode="∕" horiz-adv-x="847" d="M-115 0l848 1069h271L154 0h-269z"/><glyph glyph-name="Euro" unicode="€" horiz-adv-x="1208" d="M184 580H66l30 168h131q65 156 205.5 247.5T737 1087q146 0 249-47.5T1171 883L969 743q-40 58-91 83.5T741 852q-145 0-221-104h277l-31-168H459q0-9-1-29.5t-1-30.5v-35h295l-29-168H508q66-104 211-104 71 0 121.5 24t95.5 74l182-149q-74-94-171.5-137T715-18q-173 0-307 91T217 317H23l28 168h131v33q0 42 2 62z"/><glyph glyph-name="trademark" unicode="™" horiz-adv-x="1427" d="M748 774l110 627h19l243-301 350 301h19l-111-627h-180l43 250-151-145h-17l-102 145-43-250H748zm-369 467H215l27 152h510l-27-152H563l-82-467H297z"/><glyph glyph-name="partialdiff" unicode="∂" d="M268 354q-70 0-120 49.5T98 528q0 74 50 123t120 49 120-49 50-123q0-75-50-124.5T268 354z"/><glyph glyph-name="product" unicode="∏" d="M268 354q-70 0-120 49.5T98 528q0 74 50 123t120 49 120-49 50-123q0-75-50-124.5T268 354z"/><glyph glyph-name="summation" unicode="∑" horiz-adv-x="1597" d="M963 18q45-42 89-64t99-22q96 0 164 88l182-157q-62-86-145.5-131T1149-313q-38 0-75.5 7t-67 17.5T943-259t-56.5 34.5-54.5 42-49.5 43T733-93t-47 44q-46 42-72 63t-65.5 40.5T471 74q-69 0-119.5-37.5T256-66L66 94q70 115 202 166-129 171-129 412 0 166 59.5 306t161 233.5 236 145.5 283.5 52q142 0 267-51.5t215.5-142T1504 996t52-277q0-292-162.5-476T963 18zM825 231q201 0 322 135t121 359q0 196-111 315t-287 119q-201 0-321.5-134.5T428 666q0-196 110.5-315.5T825 231z"/><glyph glyph-name="minus" unicode="−" d="M268 354q-70 0-120 49.5T98 528q0 74 50 123t120 49 120-49 50-123q0-75-50-124.5T268 354z"/><glyph glyph-name="radical" unicode="√" d="M268 354q-70 0-120 49.5T98 528q0 74 50 123t120 49 120-49 50-123q0-75-50-124.5T268 354z"/><glyph glyph-name="integral" unicode="∫" d="M268 354q-70 0-120 49.5T98 528q0 74 50 123t120 49 120-49 50-123q0-75-50-124.5T268 354z"/><glyph glyph-name="approxequal" unicode="≈" d="M268 354q-70 0-120 49.5T98 528q0 74 50 123t120 49 120-49 50-123q0-75-50-124.5T268 354z"/><glyph glyph-name="lessequal" unicode="≤" d="M268 354q-70 0-120 49.5T98 528q0 74 50 123t120 49 120-49 50-123q0-75-50-124.5T268 354z"/><glyph glyph-name="greaterequal" unicode="≥" d="M268 354q-70 0-120 49.5T98 528q0 74 50 123t120 49 120-49 50-123q0-75-50-124.5T268 354z"/><glyph glyph-name="lozenge" unicode="◊" d="M268 354q-70 0-120 49.5T98 528q0 74 50 123t120 49 120-49 50-123q0-75-50-124.5T268 354z"/><glyph glyph-name="plusminus" horiz-adv-x="1740" d="M805 649H516L367-199q-14-79-36-126.5t-61.5-71T186-427t-120-7H-76l39 203h82q25 0 37 10t18 41l146 829H102l39 223h144l49 271q29 160 109 240.5t227 80.5q134 0 211-71l-127-199q-37 29-72 29-32 0-51.5-19.5T602 1137l-47-265h289l45 258q33 187 140 281t304 94q208 0 309.5-115.5T1708 1067l-143-813q-4-27 4.5-39t32.5-12h77L1645 0h-119q-62 0-103.5 6.5t-74 23T1303 74t-18 72 9 106l146 827q18 101-13 148t-110 47q-75 0-111-40.5t-51-133.5l-41-228h191l-39-223h-191L934-147q-14-79-36-126.5T836.5-345 753-376t-120-7H508l39 203h65q25 0 37.5 10t18.5 41z"/><glyph glyph-name="apple" d="M268 354q-70 0-120 49.5T98 528q0 74 50 123t120 49 120-49 50-123q0-75-50-124.5T268 354z"/><glyph glyph-name="infinity" horiz-adv-x="1740" d="M1595 1032q-66 0-112.5 45t-46.5 115q0 69 45.5 113.5T1593 1350q67 0 114.5-44.5T1755 1192q0-71-46.5-115.5T1595 1032zm-520-383L934-147q-14-79-36-126.5T836.5-345 753-376t-120-7H508l39 203h65q25 0 37.5 10t18.5 41l137 778H516L367-199q-14-79-36-126.5t-61.5-71T186-427t-120-7H-76l39 203h82q25 0 37 10t18 41l146 829H102l39 223h144l49 271q29 160 109 240.5t227 80.5q124 0 200-67l-116-203q-37 29-72 29-32 0-51.5-19.5T602 1137l-47-265h289l55 312q29 161 109 241t231 80q76 0 131.5-22.5T1479 1411l-158-178q-36 31-70 31-35 0-55-19t-29-67l-55-306h561l-108-618q-4-27 4.5-39t32.5-12h61L1628 0h-102q-62 0-103.5 6.5t-74 23T1303 74t-18 72 9 106l70 397h-289z"/><glyph glyph-name="notequal" horiz-adv-x="1320" d="M805 649H516L367-199q-14-79-36-126.5t-61.5-71T186-427t-120-7H-76l39 203h82q25 0 37 10t18 41l146 829H102l39 223h144l49 271q29 160 109 240.5t227 80.5q124 0 200-67l-116-203q-37 29-72 29-32 0-51.5-19.5T602 1137l-47-265h289l55 312q29 160 112 240.5t234 80.5q163 0 256-110l-158-178q-32 47-86 47-74 0-90-86l-53-306h225l-39-223h-225L934-147q-14-79-36-126.5T836.5-345 753-376t-120-7H508l39 203h65q25 0 37.5 10t18.5 41z"/></font>
</defs>
</svg>
