<svg width="161" height="44" fill="none" xmlns="http://www.w3.org/2000/svg"><path d="M54.196 29h3.519V12.44h-3.519V29zm10.738.368c3.68 0 6.095-2.369 6.095-6.555 0-4.048-2.346-6.578-6.095-6.578-3.68 0-6.072 2.369-6.072 6.578 0 4.071 2.323 6.555 6.072 6.555zm0-2.852c-1.587 0-2.461-1.311-2.461-3.703 0-2.415.85-3.726 2.46-3.726 1.61 0 2.485 1.334 2.485 3.726 0 2.415-.851 3.703-2.484 3.703zm11.82 2.507c1.334 0 2.438-.552 3.22-1.633v2.07c0 1.725-.851 2.3-2.116 2.3-1.22 0-2.162-.598-2.3-1.702h-3.52c.438 3.013 2.715 4.393 5.866 4.393 3.243 0 5.589-1.725 5.589-5.037V16.626h-3.52v1.15c-.758-1.012-1.84-1.541-3.22-1.541-3.081 0-5.082 2.3-5.082 6.417 0 3.933 1.955 6.371 5.083 6.371zm.85-2.852c-1.517 0-2.322-1.265-2.322-3.519 0-2.323.805-3.565 2.323-3.565 1.54 0 2.369 1.265 2.369 3.542 0 2.3-.805 3.542-2.37 3.542zm13.127 3.197c3.68 0 6.096-2.369 6.096-6.555 0-4.048-2.346-6.578-6.096-6.578-3.68 0-6.072 2.369-6.072 6.578 0 4.071 2.323 6.555 6.072 6.555zm0-2.852c-1.587 0-2.46-1.311-2.46-3.703 0-2.415.85-3.726 2.46-3.726 1.61 0 2.485 1.334 2.485 3.726 0 2.415-.851 3.703-2.484 3.703zm7.267-11.132h3.519V12.44h-3.52v2.944zm0 13.616h3.519V16.626h-3.52V29zm8.713 5.083v-6.325c.736 1.058 1.794 1.61 3.105 1.61 3.151 0 5.198-2.369 5.198-6.578 0-4.048-2.001-6.555-5.198-6.555-1.288 0-2.346.598-3.105 1.679v-1.288h-3.519v17.457h3.519zm2.369-14.996c1.495 0 2.323 1.311 2.323 3.703 0 2.415-.805 3.726-2.323 3.726-1.541 0-2.369-1.334-2.369-3.726s.805-3.703 2.369-3.703zm10.16.966c0-.667.598-1.127 1.518-1.127 1.242 0 1.978.529 2.185 1.794h3.496c-.345-3.128-2.599-4.485-5.566-4.485-3.312 0-4.991 1.932-4.991 4.002 0 4.968 7.498 2.829 7.498 5.221 0 .759-.621 1.242-1.863 1.242-1.311 0-2.254-.621-2.415-1.771h-3.519c.46 3.059 2.714 4.439 5.842 4.439 3.22 0 5.474-1.679 5.474-4.117 0-4.899-7.659-2.76-7.659-5.198zm16.329 3.68c0 1.587-.874 2.783-2.231 2.783-1.242 0-1.84-.782-1.84-2.369v-7.521h-3.519v8.234c0 3.082 1.725 4.508 4.071 4.508 1.495 0 2.714-.644 3.519-2.024V29h3.519V16.626h-3.519v7.107zM140.788 29h3.519v-7.107c0-1.587.805-2.806 2.024-2.806 1.127 0 1.679.805 1.679 2.369V29h3.496v-7.107c0-1.587.828-2.806 2.047-2.806 1.127 0 1.656.805 1.656 2.369V29h3.519v-8.257c0-3.059-1.702-4.508-4.002-4.508-1.541 0-2.852.644-3.703 2.047-.621-1.38-1.863-2.047-3.335-2.047-1.426 0-2.599.621-3.381 1.955v-1.564h-3.519V29z" class="ccustom" fill="#55AE36"/><path d="M40.85 34.053C44.662 30.649 47 26.055 47 21 47 10.507 36.926 2 24.5 2S2 10.507 2 21s10.074 19 22.5 19c3.525 0 6.861-.685 9.832-1.905 3.489 2.154 7.764 3.702 12.485 3.375-2.494-.634-4.64-3.202-5.967-7.417z" class="ccompli2" fill="#B6EFA2"/><path d="M41 21c0 7.732-7.387 14-16.5 14S8 28.732 8 21 15.387 7 24.5 7 41 13.268 41 21z" class="ccompli1" fill="#88E169"/><path d="M35 21c0 4.97-4.701 9-10.5 9S14 25.97 14 21s4.701-9 10.5-9S35 16.03 35 21z" class="ccustom" fill="#55AE36"/></svg>